999
DXF file: mountin_dim_apex10_and_6151.dxf
999
Pro/ENGINEER 9521 by Parametric Technology Corporation
0
SECTION
2
HEADER
9
$EXTMAX
10
34.000000
20
22.000000
9
$EXTMIN
10
0.000000
20
0.000000
9
$LIMMIN
10
0.000000
20
0.000000
9
$LIMMAX
10
34.000000
20
22.000000
9
$VIEWCTR
10
17.000000
20
11.000000
9
$VIEWSIZE
40
22.000000
9
$CLAYER
8
0
9
$LTSCALE
40
1.870000
9
$CELTYPE
6
BYLAYER
9
$DIMSCALE
40
1
9
$DIMASZ
40
0.187500
9
$DIMEXO
40
0.212500
9
$DIMDLI
40
1.292000
9
$DIMEXE
40
0.612000
9
$DIMCEN
40
0.306000
9
$DIMTXT
40
0.384208
0
ENDSEC
0
SECTION
2
TABLES
0
TABLE
2
LTYPE
70
6
0
LTYPE
2
CONTINUOUS
70
64
3
Solid line
72
65
73
0
40
0
0
LTYPE
2
CENTER
70
64
3
____ _ ____ _ ____ _ ____ _ ____ _ ____ _ ____
72
65
73
4
40
0.6
49
0.375
49
-0.075
49
0.075
49
-0.075
0
LTYPE
2
HIDDEN
70
64
3
- - - - - - - - - - - - - - - - - - - -
72
65
73
2
40
0.2
49
0.1
49
-0.1
0
LTYPE
2
PHANTOM
70
64
3
_____ _ _ _____ _ _ _____ _ _ _____
72
65
73
6
40
0.8
49
0.45
49
-0.05
49
0.1
49
-0.05
49
0.1
49
-0.05
0
LTYPE
2
DOT
70
64
3
. . . . . . . . . . . . . . . . . . . .
72
65
73
2
40
0.2
49
0.1
49
-0.1
0
LTYPE
2
DASHED
70
64
3
- - - - - - - - - - - - - - - - - - - -
72
65
73
2
40
0.2
49
0.1
49
-0.1
0
ENDTAB
0
TABLE
2
LAYER
70
36
0
LAYER
2
0
70
0
62
7
6
CONTINUOUS
0
LAYER
2
DEFAULT_1
70
0
62
7
6
CENTER
0
LAYER
2
DEFAULT_2
70
0
62
7
6
HIDDEN
0
LAYER
2
DEFAULT_3
70
0
62
7
6
PHANTOM
0
ENDTAB
0
ENDSEC
0
SECTION
2
BLOCKS
0
BLOCK
8
0
62
2
6
BYBLOCK
2
*TEXT1
70
1
10
0.000000
20
0.000000
0
TEXT
8
0
62
2
6
BYBLOCK
10
28.443012
20
1.339738
40
0.060000
1
APPROVALS
72
5
11
28.983012
21
1.339738
0
ENDBLK
8
0
0
BLOCK
8
0
62
2
6
BYBLOCK
2
*TEXT2
70
1
10
0.000000
20
0.000000
0
TEXT
8
0
62
2
6
BYBLOCK
10
29.278553
20
1.339738
40
0.060000
1
DATE
72
5
11
29.518553
21
1.339738
0
ENDBLK
8
0
0
BLOCK
8
0
62
2
6
BYBLOCK
2
*TEXT3
70
1
10
0.000000
20
0.000000
0
TEXT
8
0
62
2
6
BYBLOCK
10
28.308561
20
1.148333
40
0.060000
1
DRAWN
72
5
11
28.608561
21
1.148333
0
ENDBLK
8
0
0
BLOCK
8
0
62
2
6
BYBLOCK
2
*TEXT4
70
1
10
0.000000
20
0.000000
0
TEXT
8
0
62
2
6
BYBLOCK
10
28.308561
20
0.898333
40
0.060000
1
CHECKED
72
5
11
28.728561
21
0.898333
0
ENDBLK
8
0
0
BLOCK
8
0
62
2
6
BYBLOCK
2
*TEXT5
70
1
10
0.000000
20
0.000000
0
TEXT
8
0
62
2
6
BYBLOCK
10
28.308561
20
0.648333
40
0.060000
1
ENGR
72
5
11
28.548561
21
0.648333
0
ENDBLK
8
0
0
BLOCK
8
0
62
2
6
BYBLOCK
2
*TEXT6
70
1
10
0.000000
20
0.000000
0
TEXT
8
0
62
2
6
BYBLOCK
10
28.308561
20
0.398333
40
0.060000
1
QC
72
5
11
28.428561
21
0.398333
0
ENDBLK
8
0
0
BLOCK
8
0
62
2
6
BYBLOCK
2
*TEXT7
70
1
10
0.000000
20
0.000000
0
TEXT
8
0
62
2
6
BYBLOCK
10
29.973385
20
0.308896
40
0.099999
1
DO NOT SCALE DRAWING
72
5
11
31.973365
21
0.308896
0
ENDBLK
8
0
0
BLOCK
8
0
62
2
6
BYBLOCK
2
*TEXT8
70
1
10
0.000000
20
0.000000
0
TEXT
8
0
62
2
6
BYBLOCK
10
29.808561
20
0.898333
40
0.060000
1
SCALE
72
5
11
30.108561
21
0.898333
0
ENDBLK
8
0
0
BLOCK
8
0
62
2
6
BYBLOCK
2
*TEXT9
70
1
10
0.000000
20
0.000000
0
TEXT
8
0
62
2
6
BYBLOCK
10
31.558561
20
0.898333
40
0.060000
1
DRAWING NO.
72
5
11
32.218561
21
0.898333
0
ENDBLK
8
0
0
BLOCK
8
0
62
2
6
BYBLOCK
2
*TEXT10
70
1
10
0.000000
20
0.000000
0
TEXT
8
0
62
2
6
BYBLOCK
10
28.123197
20
20.821672
40
0.060000
1
REV
72
5
11
28.303197
21
20.821672
0
ENDBLK
8
0
0
BLOCK
8
0
62
2
6
BYBLOCK
2
*TEXT11
70
1
10
0.000000
20
0.000000
0
TEXT
8
0
62
2
6
BYBLOCK
10
29.082387
20
20.821672
40
0.060000
1
DESCRIPTION
72
5
11
29.742387
21
20.821672
0
ENDBLK
8
0
0
BLOCK
8
0
62
2
6
BYBLOCK
2
*TEXT12
70
1
10
0.000000
20
0.000000
0
TEXT
8
0
62
2
6
BYBLOCK
10
31.877006
20
20.821672
40
0.060000
1
DATE
72
5
11
32.117006
21
20.821672
0
ENDBLK
8
0
0
BLOCK
8
0
62
2
6
BYBLOCK
2
*TEXT13
70
1
10
0.000000
20
0.000000
0
TEXT
8
0
62
2
6
BYBLOCK
10
32.779821
20
20.821672
40
0.060000
1
APPROVAL
72
5
11
33.259821
21
20.821672
0
ENDBLK
8
0
0
BLOCK
8
0
62
2
6
BYBLOCK
2
*TEXT14
70
1
10
0.000000
20
0.000000
0
TEXT
8
0
62
2
6
BYBLOCK
10
33.602133
20
2.803332
40
0.120000
1
A
72
5
11
33.722133
21
2.803332
0
ENDBLK
8
0
0
BLOCK
8
0
62
2
6
BYBLOCK
2
*TEXT15
70
1
10
0.000000
20
0.000000
0
TEXT
8
0
62
2
6
BYBLOCK
10
33.602133
20
8.053332
40
0.120000
1
B
72
5
11
33.722133
21
8.053332
0
ENDBLK
8
0
0
BLOCK
8
0
62
2
6
BYBLOCK
2
*TEXT16
70
1
10
0.000000
20
0.000000
0
TEXT
8
0
62
2
6
BYBLOCK
10
33.602133
20
13.303332
40
0.120000
1
C
72
5
11
33.722133
21
13.303332
0
ENDBLK
8
0
0
BLOCK
8
0
62
2
6
BYBLOCK
2
*TEXT17
70
1
10
0.000000
20
0.000000
0
TEXT
8
0
62
2
6
BYBLOCK
10
33.602133
20
18.553332
40
0.120000
1
D
72
5
11
33.722133
21
18.553332
0
ENDBLK
8
0
0
BLOCK
8
0
62
2
6
BYBLOCK
2
*TEXT18
70
1
10
0.000000
20
0.000000
0
TEXT
8
0
62
2
6
BYBLOCK
10
0.352130
20
2.803332
40
0.120000
1
A
72
5
11
0.472130
21
2.803332
0
ENDBLK
8
0
0
BLOCK
8
0
62
2
6
BYBLOCK
2
*TEXT19
70
1
10
0.000000
20
0.000000
0
TEXT
8
0
62
2
6
BYBLOCK
10
0.352130
20
8.053332
40
0.120000
1
B
72
5
11
0.472130
21
8.053332
0
ENDBLK
8
0
0
BLOCK
8
0
62
2
6
BYBLOCK
2
*TEXT20
70
1
10
0.000000
20
0.000000
0
TEXT
8
0
62
2
6
BYBLOCK
10
0.352130
20
13.303332
40
0.120000
1
C
72
5
11
0.472130
21
13.303332
0
ENDBLK
8
0
0
BLOCK
8
0
62
2
6
BYBLOCK
2
*TEXT21
70
1
10
0.000000
20
0.000000
0
TEXT
8
0
62
2
6
BYBLOCK
10
0.352130
20
18.553332
40
0.120000
1
D
72
5
11
0.472130
21
18.553332
0
ENDBLK
8
0
0
BLOCK
8
0
62
2
6
BYBLOCK
2
*TEXT22
70
1
10
0.000000
20
0.000000
0
TEXT
8
0
62
2
6
BYBLOCK
10
31.414633
20
0.053332
40
0.120000
1
1
72
5
11
31.534633
21
0.053332
0
ENDBLK
8
0
0
BLOCK
8
0
62
2
6
BYBLOCK
2
*TEXT23
70
1
10
0.000000
20
0.000000
0
TEXT
8
0
62
2
6
BYBLOCK
10
27.289633
20
0.053332
40
0.120000
1
2
72
5
11
27.409633
21
0.053332
0
ENDBLK
8
0
0
BLOCK
8
0
62
2
6
BYBLOCK
2
*TEXT24
70
1
10
0.000000
20
0.000000
0
TEXT
8
0
62
2
6
BYBLOCK
10
23.164630
20
0.053332
40
0.120000
1
3
72
5
11
23.284630
21
0.053332
0
ENDBLK
8
0
0
BLOCK
8
0
62
2
6
BYBLOCK
2
*TEXT25
70
1
10
0.000000
20
0.000000
0
TEXT
8
0
62
2
6
BYBLOCK
10
19.039630
20
0.053332
40
0.120000
1
4
72
5
11
19.159630
21
0.053332
0
ENDBLK
8
0
0
BLOCK
8
0
62
2
6
BYBLOCK
2
*TEXT26
70
1
10
0.000000
20
0.000000
0
TEXT
8
0
62
2
6
BYBLOCK
10
14.914630
20
0.053332
40
0.120000
1
5
72
5
11
15.034630
21
0.053332
0
ENDBLK
8
0
0
BLOCK
8
0
62
2
6
BYBLOCK
2
*TEXT27
70
1
10
0.000000
20
0.000000
0
TEXT
8
0
62
2
6
BYBLOCK
10
10.789630
20
0.053332
40
0.120000
1
6
72
5
11
10.909630
21
0.053332
0
ENDBLK
8
0
0
BLOCK
8
0
62
2
6
BYBLOCK
2
*TEXT28
70
1
10
0.000000
20
0.000000
0
TEXT
8
0
62
2
6
BYBLOCK
10
6.664630
20
0.053332
40
0.120000
1
7
72
5
11
6.784630
21
0.053332
0
ENDBLK
8
0
0
BLOCK
8
0
62
2
6
BYBLOCK
2
*TEXT29
70
1
10
0.000000
20
0.000000
0
TEXT
8
0
62
2
6
BYBLOCK
10
2.539650
20
0.053332
40
0.120000
1
8
72
5
11
2.659650
21
0.053332
0
ENDBLK
8
0
0
BLOCK
8
0
62
2
6
BYBLOCK
2
*TEXT30
70
1
10
0.000000
20
0.000000
0
TEXT
8
0
62
2
6
BYBLOCK
10
31.414633
20
21.303332
40
0.120000
1
1
72
5
11
31.534633
21
21.303332
0
ENDBLK
8
0
0
BLOCK
8
0
62
2
6
BYBLOCK
2
*TEXT31
70
1
10
0.000000
20
0.000000
0
TEXT
8
0
62
2
6
BYBLOCK
10
27.289633
20
21.303332
40
0.120000
1
2
72
5
11
27.409633
21
21.303332
0
ENDBLK
8
0
0
BLOCK
8
0
62
2
6
BYBLOCK
2
*TEXT32
70
1
10
0.000000
20
0.000000
0
TEXT
8
0
62
2
6
BYBLOCK
10
23.164630
20
21.303332
40
0.120000
1
3
72
5
11
23.284630
21
21.303332
0
ENDBLK
8
0
0
BLOCK
8
0
62
2
6
BYBLOCK
2
*TEXT33
70
1
10
0.000000
20
0.000000
0
TEXT
8
0
62
2
6
BYBLOCK
10
19.039630
20
21.303332
40
0.120000
1
4
72
5
11
19.159630
21
21.303332
0
ENDBLK
8
0
0
BLOCK
8
0
62
2
6
BYBLOCK
2
*TEXT34
70
1
10
0.000000
20
0.000000
0
TEXT
8
0
62
2
6
BYBLOCK
10
14.914630
20
21.303332
40
0.120000
1
5
72
5
11
15.034630
21
21.303332
0
ENDBLK
8
0
0
BLOCK
8
0
62
2
6
BYBLOCK
2
*TEXT35
70
1
10
0.000000
20
0.000000
0
TEXT
8
0
62
2
6
BYBLOCK
10
10.789630
20
21.303332
40
0.120000
1
6
72
5
11
10.909630
21
21.303332
0
ENDBLK
8
0
0
BLOCK
8
0
62
2
6
BYBLOCK
2
*TEXT36
70
1
10
0.000000
20
0.000000
0
TEXT
8
0
62
2
6
BYBLOCK
10
6.664630
20
21.303332
40
0.120000
1
7
72
5
11
6.784630
21
21.303332
0
ENDBLK
8
0
0
BLOCK
8
0
62
2
6
BYBLOCK
2
*TEXT37
70
1
10
0.000000
20
0.000000
0
TEXT
8
0
62
2
6
BYBLOCK
10
2.539650
20
21.303332
40
0.120000
1
8
72
5
11
2.659650
21
21.303332
0
ENDBLK
8
0
0
BLOCK
8
0
62
2
6
BYBLOCK
2
*TEXT38
70
1
10
0.000000
20
0.000000
0
TEXT
8
0
62
2
6
BYBLOCK
10
26.128302
20
2.124561
40
0.080000
1
UNLESS OTHERWISE SPECIFIED
72
5
11
27.792302
21
2.124561
0
ENDBLK
8
0
0
BLOCK
8
0
62
2
6
BYBLOCK
2
*TEXT39
70
1
10
0.000000
20
0.000000
0
TEXT
8
0
62
2
6
BYBLOCK
10
26.135019
20
1.902179
40
0.080000
1
.X   
72
5
11
26.455019
21
1.902179
0
TEXT
8
0
62
2
6
BYBLOCK
10
26.455019
20
1.902179
40
0.080000
1
%%p
72
5
11
26.548352
21
1.902179
0
TEXT
8
0
62
2
6
BYBLOCK
10
26.548352
20
1.902179
40
0.080000
1
 0.03
72
5
11
26.868352
21
1.902179
0
ENDBLK
8
0
0
BLOCK
8
0
62
2
6
BYBLOCK
2
*TEXT40
70
1
10
0.000000
20
0.000000
0
TEXT
8
0
62
2
6
BYBLOCK
10
26.135019
20
1.782179
40
0.080000
1
.XX  
72
5
11
26.455019
21
1.782179
0
TEXT
8
0
62
2
6
BYBLOCK
10
26.455019
20
1.782179
40
0.080000
1
%%p
72
5
11
26.548352
21
1.782179
0
TEXT
8
0
62
2
6
BYBLOCK
10
26.548352
20
1.782179
40
0.080000
1
 0.01
72
5
11
26.868352
21
1.782179
0
ENDBLK
8
0
0
BLOCK
8
0
62
2
6
BYBLOCK
2
*TEXT41
70
1
10
0.000000
20
0.000000
0
TEXT
8
0
62
2
6
BYBLOCK
10
26.135019
20
1.662179
40
0.080000
1
.XXX 
72
5
11
26.455019
21
1.662179
0
TEXT
8
0
62
2
6
BYBLOCK
10
26.455019
20
1.662179
40
0.080000
1
%%p
72
5
11
26.548352
21
1.662179
0
TEXT
8
0
62
2
6
BYBLOCK
10
26.548352
20
1.662179
40
0.080000
1
 0.005
72
5
11
26.932352
21
1.662179
0
ENDBLK
8
0
0
BLOCK
8
0
62
2
6
BYBLOCK
2
*TEXT42
70
1
10
0.000000
20
0.000000
0
TEXT
8
0
62
2
6
BYBLOCK
10
27.162917
20
1.912063
40
0.080000
1
ANGLES 
72
5
11
27.610917
21
1.912063
0
TEXT
8
0
62
2
6
BYBLOCK
10
27.610917
20
1.912063
40
0.080000
1
%%p
72
5
11
27.704250
21
1.912063
0
TEXT
8
0
62
2
6
BYBLOCK
10
27.704250
20
1.912063
40
0.080000
1
1
72
5
11
27.768250
21
1.912063
0
TEXT
8
0
62
2
6
BYBLOCK
10
27.768250
20
1.912063
40
0.080000
1
%%d
72
5
11
27.821583
21
1.912063
0
ENDBLK
8
0
0
BLOCK
8
0
62
2
6
BYBLOCK
2
*TEXT43
70
1
10
0.000000
20
0.000000
0
TEXT
8
0
62
2
6
BYBLOCK
10
27.148091
20
1.783576
40
0.080000
1
RMS FINISH
72
5
11
27.788091
21
1.783576
0
ENDBLK
8
0
0
BLOCK
8
0
62
2
6
BYBLOCK
2
*TEXT44
70
1
10
0.000000
20
0.000000
0
TEXT
8
0
62
2
6
BYBLOCK
10
25.690256
20
1.313987
40
0.100000
1
DEBURR AND BREAK ALL SHARP EDGES
72
5
11
28.250256
21
1.313987
0
ENDBLK
8
0
0
BLOCK
8
0
62
2
6
BYBLOCK
2
*TEXT45
70
1
10
0.000000
20
0.000000
0
TEXT
8
0
62
2
6
BYBLOCK
10
25.690256
20
1.096547
40
0.100000
1
MATERIAL:
72
5
11
26.410256
21
1.096547
0
ENDBLK
8
0
0
BLOCK
8
0
62
2
6
BYBLOCK
2
*TEXT46
70
1
10
0.000000
20
0.000000
0
TEXT
8
0
62
2
6
BYBLOCK
10
25.695197
20
0.597424
40
0.100000
1
FINISH:
72
5
11
26.255197
21
0.597424
0
ENDBLK
8
0
0
BLOCK
8
0
62
2
6
BYBLOCK
2
*TEXT47
70
1
10
0.000000
20
0.000000
0
TEXT
8
0
62
2
6
BYBLOCK
10
29.451858
20
-0.170469
40
0.100000
1
TYPE: 
72
5
11
29.931858
21
-0.170469
0
ENDBLK
8
0
0
BLOCK
8
0
62
2
6
BYBLOCK
2
*TEXT48
70
1
10
0.000000
20
0.000000
0
TEXT
8
0
62
2
6
BYBLOCK
10
29.931858
20
-0.170469
40
0.100000
1
PART
72
5
11
30.251858
21
-0.170469
0
ENDBLK
8
0
0
BLOCK
8
0
62
2
6
BYBLOCK
2
*TEXT49
70
1
10
0.000000
20
0.000000
0
TEXT
8
0
62
2
6
BYBLOCK
10
30.251858
20
-0.170469
40
0.100000
1
 
72
5
11
30.331858
21
-0.170469
0
ENDBLK
8
0
0
BLOCK
8
0
62
2
6
BYBLOCK
2
*TEXT50
70
1
10
0.000000
20
0.000000
0
TEXT
8
0
62
2
6
BYBLOCK
10
30.331858
20
-0.170469
40
0.100000
1
MODEL: 
72
5
11
30.891858
21
-0.170469
0
ENDBLK
8
0
0
BLOCK
8
0
62
2
6
BYBLOCK
2
*TEXT51
70
1
10
0.000000
20
0.000000
0
TEXT
8
0
62
2
6
BYBLOCK
10
30.891858
20
-0.170469
40
0.100000
1
DEFAULT
72
5
11
31.451858
21
-0.170469
0
ENDBLK
8
0
0
BLOCK
8
0
62
2
6
BYBLOCK
2
*TEXT52
70
1
10
0.000000
20
0.000000
0
TEXT
8
0
62
2
6
BYBLOCK
10
31.451858
20
-0.170469
40
0.100000
1
 DWG: 
72
5
11
31.931858
21
-0.170469
0
ENDBLK
8
0
0
BLOCK
8
0
62
2
6
BYBLOCK
2
*TEXT53
70
1
10
0.000000
20
0.000000
0
TEXT
8
0
62
2
6
BYBLOCK
10
31.931858
20
-0.170469
40
0.100000
1
MOUNTIN_DIM_APEX10_AND_6151
72
5
11
34.091858
21
-0.170469
0
ENDBLK
8
0
0
BLOCK
8
0
62
2
6
BYBLOCK
2
*TEXT54
70
1
10
0.000000
20
0.000000
0
TEXT
8
0
62
2
6
BYBLOCK
10
31.180801
20
0.644750
40
0.220000
1
D
72
5
11
31.400801
21
0.644750
0
ENDBLK
8
0
0
BLOCK
8
0
62
2
6
BYBLOCK
2
*TEXT55
70
1
10
0.000000
20
0.000000
0
TEXT
8
0
62
2
6
BYBLOCK
10
32.301078
20
0.307719
40
0.120000
1
SHEET 
72
5
11
32.877078
21
0.307719
0
ENDBLK
8
0
0
BLOCK
8
0
62
2
6
BYBLOCK
2
*TEXT56
70
1
10
0.000000
20
0.000000
0
TEXT
8
0
62
2
6
BYBLOCK
10
32.877078
20
0.307719
40
0.120000
1
1
72
5
11
32.973078
21
0.307719
0
ENDBLK
8
0
0
BLOCK
8
0
62
2
6
BYBLOCK
2
*TEXT57
70
1
10
0.000000
20
0.000000
0
TEXT
8
0
62
2
6
BYBLOCK
10
32.973078
20
0.307719
40
0.120000
1
 OF 
72
5
11
33.357078
21
0.307719
0
ENDBLK
8
0
0
BLOCK
8
0
62
2
6
BYBLOCK
2
*TEXT58
70
1
10
0.000000
20
0.000000
0
TEXT
8
0
62
2
6
BYBLOCK
10
33.357078
20
0.307719
40
0.120000
1
1
72
5
11
33.453078
21
0.307719
0
ENDBLK
8
0
0
BLOCK
8
0
62
2
6
BYBLOCK
2
*TEXT59
70
1
10
0.000000
20
0.000000
0
TEXT
8
0
62
2
6
BYBLOCK
10
27.342845
20
1.661085
40
0.080000
1
63
72
5
11
27.470845
21
1.661085
0
ENDBLK
8
0
0
BLOCK
8
0
62
2
6
BYBLOCK
2
*TEXT60
70
1
10
0.000000
20
0.000000
0
TEXT
8
0
62
2
6
BYBLOCK
10
29.830824
20
1.403293
40
0.156250
1
DIM DWG, MOUNTING DIMENSIONS,
72
5
11
33.455824
21
1.403293
0
ENDBLK
8
0
0
BLOCK
8
0
62
2
6
BYBLOCK
2
*TEXT61
70
1
10
0.000000
20
0.000000
0
TEXT
8
0
62
2
6
BYBLOCK
10
30.455824
20
1.168918
40
0.156250
1
APEX10 AND APEX6151
72
5
11
32.830824
21
1.168918
0
ENDBLK
8
0
0
BLOCK
8
0
62
2
6
BYBLOCK
2
*TEXT62
70
1
10
0.000000
20
0.000000
0
TEXT
8
0
62
2
6
BYBLOCK
10
30.043324
20
0.661106
40
0.156250
1
2.00
72
5
11
30.543324
21
0.661106
0
ENDBLK
8
0
0
BLOCK
8
0
62
2
6
BYBLOCK
2
*TEXT63
70
1
10
0.000000
20
0.000000
0
TEXT
8
0
62
2
6
BYBLOCK
10
30.543324
20
0.661106
40
0.156250
1
:1
72
5
11
30.793324
21
0.661106
0
ENDBLK
8
0
0
BLOCK
8
0
62
2
6
BYBLOCK
2
*TEXT64
70
1
10
0.000000
20
0.000000
0
TEXT
8
0
62
2
6
BYBLOCK
10
31.768324
20
0.661106
40
0.156250
1
82-015316-01
72
5
11
33.268324
21
0.661106
0
ENDBLK
8
0
0
BLOCK
8
0
62
2
6
BYBLOCK
2
*TEXT65
70
1
10
0.000000
20
0.000000
0
TEXT
8
0
62
2
6
BYBLOCK
10
28.085662
20
20.534681
40
0.125000
1
 A  INITIAL RELEASE ER 1574          3-7-96    AJC
72
5
11
33.085662
21
20.534681
0
ENDBLK
8
0
0
BLOCK
8
0
62
2
6
BYBLOCK
2
*D65
70
1
10
0.000000
20
0.000000
0
TEXT
8
0
62
2
6
BYBLOCK
10
7.511933
20
19.162606
40
0.160000
1
9.20
72
5
11
8.023933
21
19.162606
0
TEXT
8
0
62
2
6
BYBLOCK
10
7.639933
20
18.922606
40
0.160000
1
233,7
72
5
11
8.279933
21
18.922606
0
TEXT
8
0
62
2
6
BYBLOCK
10
7.511933
20
18.922606
40
0.160000
1
[
72
5
11
7.639933
21
18.922606
0
TEXT
8
0
62
2
6
BYBLOCK
10
8.279933
20
18.922606
40
0.160000
1
]
72
5
11
8.407933
21
18.922606
0
LINE
8
0
62
2
6
BYBLOCK
10
12.062979
20
16.979930
11
12.062979
21
19.367606
0
LINE
8
0
62
2
6
BYBLOCK
10
2.862979
20
18.111268
11
2.862979
21
19.367606
0
LINE
8
0
62
2
6
BYBLOCK
10
12.062979
20
19.242606
11
8.487933
21
19.242606
0
LINE
8
0
62
2
6
BYBLOCK
10
2.862979
20
19.242606
11
7.431933
21
19.242606
0
SOLID
8
0
62
2
6
BYBLOCK
10
11.875479
20
19.273856
11
11.875479
21
19.211356
12
12.062979
22
19.242606
13
12.062979
23
19.242606
0
SOLID
8
0
62
2
6
BYBLOCK
10
3.050479
20
19.211356
11
3.050479
21
19.273856
12
2.862979
22
19.242606
13
2.862979
23
19.242606
0
ENDBLK
8
0
0
BLOCK
8
0
62
2
6
BYBLOCK
2
*D66
70
1
10
0.000000
20
0.000000
0
TEXT
8
0
62
2
6
BYBLOCK
10
19.114965
20
19.841046
40
0.160000
1
3.00
72
5
11
19.626965
21
19.841046
0
TEXT
8
0
62
2
6
BYBLOCK
10
19.242965
20
19.601046
40
0.160000
1
76,2
72
5
11
19.754965
21
19.601046
0
TEXT
8
0
62
2
6
BYBLOCK
10
19.114965
20
19.601046
40
0.160000
1
[
72
5
11
19.242965
21
19.601046
0
TEXT
8
0
62
2
6
BYBLOCK
10
19.754965
20
19.601046
40
0.160000
1
]
72
5
11
19.882965
21
19.601046
0
LINE
8
0
62
2
6
BYBLOCK
10
17.936658
20
16.925512
11
17.936658
21
20.046046
0
LINE
8
0
62
2
6
BYBLOCK
10
20.936658
20
16.896534
11
20.936658
21
20.046046
0
LINE
8
0
62
2
6
BYBLOCK
10
17.936658
20
19.921046
11
19.034965
21
19.921046
0
LINE
8
0
62
2
6
BYBLOCK
10
20.936658
20
19.921046
11
19.962965
21
19.921046
0
SOLID
8
0
62
2
6
BYBLOCK
10
18.124158
20
19.889796
11
18.124158
21
19.952296
12
17.936658
22
19.921046
13
17.936658
23
19.921046
0
SOLID
8
0
62
2
6
BYBLOCK
10
20.749158
20
19.952296
11
20.749158
21
19.889796
12
20.936658
22
19.921046
13
20.936658
23
19.921046
0
ENDBLK
8
0
0
BLOCK
8
0
62
2
6
BYBLOCK
2
*D67
70
1
10
0.000000
20
0.000000
0
TEXT
8
0
62
2
6
BYBLOCK
10
25.646657
20
11.600475
40
0.160000
1
15.00
72
5
11
26.286657
21
11.600475
0
TEXT
8
0
62
2
6
BYBLOCK
10
25.774657
20
11.360475
40
0.160000
1
381
72
5
11
26.158657
21
11.360475
0
TEXT
8
0
62
2
6
BYBLOCK
10
25.646657
20
11.360475
40
0.160000
1
[
72
5
11
25.774657
21
11.360475
0
TEXT
8
0
62
2
6
BYBLOCK
10
26.158657
20
11.360475
40
0.160000
1
]
72
5
11
26.286657
21
11.360475
0
LINE
8
0
62
2
6
BYBLOCK
10
20.837532
20
2.813116
11
26.091657
21
2.813116
0
LINE
8
0
62
2
6
BYBLOCK
10
20.779576
20
17.813116
11
26.091657
21
17.813116
0
LINE
8
0
62
2
6
BYBLOCK
10
25.966657
20
2.813116
11
25.966657
21
11.280475
0
LINE
8
0
62
2
6
BYBLOCK
10
25.966657
20
17.813116
11
25.966657
21
11.840475
0
SOLID
8
0
62
2
6
BYBLOCK
10
25.997907
20
3.000616
11
25.935407
21
3.000616
12
25.966657
22
2.813116
13
25.966657
23
2.813116
0
SOLID
8
0
62
2
6
BYBLOCK
10
25.935407
20
17.625616
11
25.997907
21
17.625616
12
25.966657
22
17.813116
13
25.966657
23
17.813116
0
ENDBLK
8
0
0
BLOCK
8
0
62
2
6
BYBLOCK
2
*D68
70
1
10
0.000000
20
0.000000
0
TEXT
8
0
62
2
6
BYBLOCK
10
23.965927
20
10.673176
40
0.160000
1
14.25
72
5
11
24.605927
21
10.673176
0
TEXT
8
0
62
2
6
BYBLOCK
10
24.093927
20
10.433176
40
0.160000
1
362
72
5
11
24.477927
21
10.433176
0
TEXT
8
0
62
2
6
BYBLOCK
10
23.965927
20
10.433176
40
0.160000
1
[
72
5
11
24.093927
21
10.433176
0
TEXT
8
0
62
2
6
BYBLOCK
10
24.477927
20
10.433176
40
0.160000
1
]
72
5
11
24.605927
21
10.433176
0
LINE
8
0
62
2
6
BYBLOCK
10
20.381321
20
17.634116
11
24.410927
21
17.634116
0
LINE
8
0
62
2
6
BYBLOCK
10
20.460817
20
3.384116
11
24.410927
21
3.384116
0
LINE
8
0
62
2
6
BYBLOCK
10
24.285927
20
17.634116
11
24.285927
21
10.913176
0
LINE
8
0
62
2
6
BYBLOCK
10
24.285927
20
3.384116
11
24.285927
21
10.353176
0
SOLID
8
0
62
2
6
BYBLOCK
10
24.254677
20
17.446616
11
24.317177
21
17.446616
12
24.285927
22
17.634116
13
24.285927
23
17.634116
0
SOLID
8
0
62
2
6
BYBLOCK
10
24.317177
20
3.571616
11
24.254677
21
3.571616
12
24.285927
22
3.384116
13
24.285927
23
3.384116
0
ENDBLK
8
0
0
BLOCK
8
0
62
2
6
BYBLOCK
2
*D69
70
1
10
0.000000
20
0.000000
0
TEXT
8
0
62
2
6
BYBLOCK
10
24.633664
20
18.700111
40
0.160000
1
.179
72
5
11
25.145664
21
18.700111
0
TEXT
8
0
62
2
6
BYBLOCK
10
24.761664
20
18.460111
40
0.160000
1
4,55
72
5
11
25.273664
21
18.460111
0
TEXT
8
0
62
2
6
BYBLOCK
10
24.633664
20
18.460111
40
0.160000
1
[
72
5
11
24.761664
21
18.460111
0
TEXT
8
0
62
2
6
BYBLOCK
10
25.273664
20
18.460111
40
0.160000
1
]
72
5
11
25.401664
21
18.460111
0
LINE
8
0
62
2
6
BYBLOCK
10
20.779576
20
17.813116
11
24.410927
21
17.813116
0
LINE
8
0
62
2
6
BYBLOCK
10
20.381321
20
17.634116
11
24.410927
21
17.634116
0
LINE
8
0
62
2
6
BYBLOCK
10
24.285927
20
17.813116
11
24.285927
21
18.780111
0
LINE
8
0
62
2
6
BYBLOCK
10
24.285927
20
18.780111
11
24.553664
21
18.780111
0
LINE
8
0
62
2
6
BYBLOCK
10
24.285927
20
17.634116
11
24.285927
21
17.134116
0
SOLID
8
0
62
2
6
BYBLOCK
10
24.317177
20
18.000616
11
24.254677
21
18.000616
12
24.285927
22
17.813116
13
24.285927
23
17.813116
0
SOLID
8
0
62
2
6
BYBLOCK
10
24.254677
20
17.446616
11
24.317177
21
17.446616
12
24.285927
22
17.634116
13
24.285927
23
17.634116
0
ENDBLK
8
0
0
BLOCK
8
0
62
2
6
BYBLOCK
2
*D70
70
1
10
0.000000
20
0.000000
0
TEXT
8
0
62
2
6
BYBLOCK
10
22.884175
20
18.468286
40
0.160000
1
1.06
72
5
11
23.396175
21
18.468286
0
TEXT
8
0
62
2
6
BYBLOCK
10
23.012175
20
18.228286
40
0.160000
1
26,8
72
5
11
23.524175
21
18.228286
0
TEXT
8
0
62
2
6
BYBLOCK
10
22.884175
20
18.228286
40
0.160000
1
[
72
5
11
23.012175
21
18.228286
0
TEXT
8
0
62
2
6
BYBLOCK
10
23.524175
20
18.228286
40
0.160000
1
]
72
5
11
23.652175
21
18.228286
0
LINE
8
0
62
2
6
BYBLOCK
10
21.127313
20
16.758116
11
22.759175
21
16.758116
0
LINE
8
0
62
2
6
BYBLOCK
10
20.779576
20
17.813116
11
22.759175
21
17.813116
0
LINE
8
0
62
2
6
BYBLOCK
10
22.634175
20
16.758116
11
22.634175
21
16.258116
0
LINE
8
0
62
2
6
BYBLOCK
10
22.634175
20
17.813116
11
22.634175
21
18.548286
0
LINE
8
0
62
2
6
BYBLOCK
10
22.634175
20
18.548286
11
22.804175
21
18.548286
0
SOLID
8
0
62
2
6
BYBLOCK
10
22.602925
20
16.570616
11
22.665425
21
16.570616
12
22.634175
22
16.758116
13
22.634175
23
16.758116
0
SOLID
8
0
62
2
6
BYBLOCK
10
22.665425
20
18.000616
11
22.602925
21
18.000616
12
22.634175
22
17.813116
13
22.634175
23
17.813116
0
ENDBLK
8
0
0
BLOCK
8
0
62
2
6
BYBLOCK
2
*D71
70
1
10
0.000000
20
0.000000
0
TEXT
8
0
62
2
6
BYBLOCK
10
22.186175
20
8.975818
40
0.160000
1
12.89
72
5
11
22.826175
21
8.975818
0
TEXT
8
0
62
2
6
BYBLOCK
10
22.314175
20
8.735818
40
0.160000
1
327,4
72
5
11
22.954175
21
8.735818
0
TEXT
8
0
62
2
6
BYBLOCK
10
22.186175
20
8.735818
40
0.160000
1
[
72
5
11
22.314175
21
8.735818
0
TEXT
8
0
62
2
6
BYBLOCK
10
22.954175
20
8.735818
40
0.160000
1
]
72
5
11
23.082175
21
8.735818
0
LINE
8
0
62
2
6
BYBLOCK
10
21.127313
20
16.758116
11
22.759175
21
16.758116
0
LINE
8
0
62
2
6
BYBLOCK
10
21.069357
20
3.868116
11
22.759175
21
3.868116
0
LINE
8
0
62
2
6
BYBLOCK
10
22.634175
20
16.758116
11
22.634175
21
9.215818
0
LINE
8
0
62
2
6
BYBLOCK
10
22.634175
20
3.868116
11
22.634175
21
8.655818
0
SOLID
8
0
62
2
6
BYBLOCK
10
22.602925
20
16.570616
11
22.665425
21
16.570616
12
22.634175
22
16.758116
13
22.634175
23
16.758116
0
SOLID
8
0
62
2
6
BYBLOCK
10
22.665425
20
4.055616
11
22.602925
21
4.055616
12
22.634175
22
3.868116
13
22.634175
23
3.868116
0
ENDBLK
8
0
0
BLOCK
8
0
62
2
6
BYBLOCK
2
*D72
70
1
10
0.000000
20
0.000000
0
TEXT
8
0
62
2
6
BYBLOCK
10
21.446455
20
19.088150
40
0.160000
1
.75
72
5
11
21.830455
21
19.088150
0
TEXT
8
0
62
2
6
BYBLOCK
10
21.574455
20
18.848150
40
0.160000
1
19,1
72
5
11
22.086455
21
18.848150
0
TEXT
8
0
62
2
6
BYBLOCK
10
21.446455
20
18.848150
40
0.160000
1
[
72
5
11
21.574455
21
18.848150
0
TEXT
8
0
62
2
6
BYBLOCK
10
22.086455
20
18.848150
40
0.160000
1
]
72
5
11
22.214455
21
18.848150
0
LINE
8
0
62
2
6
BYBLOCK
10
20.936658
20
16.896534
11
20.936658
21
19.293150
0
LINE
8
0
62
2
6
BYBLOCK
10
20.186658
20
17.879724
11
20.186658
21
19.293150
0
LINE
8
0
62
2
6
BYBLOCK
10
20.936658
20
19.168150
11
20.561658
21
19.168150
0
LINE
8
0
62
2
6
BYBLOCK
10
20.561658
20
19.168150
11
21.366455
21
19.168150
0
LINE
8
0
62
2
6
BYBLOCK
10
20.186658
20
19.168150
11
20.561658
21
19.168150
0
SOLID
8
0
62
2
6
BYBLOCK
10
20.749158
20
19.199400
11
20.749158
21
19.136900
12
20.936658
22
19.168150
13
20.936658
23
19.168150
0
SOLID
8
0
62
2
6
BYBLOCK
10
20.374158
20
19.136900
11
20.374158
21
19.199400
12
20.186658
22
19.168150
13
20.186658
23
19.168150
0
ENDBLK
8
0
0
BLOCK
8
0
62
2
6
BYBLOCK
2
*D73
70
1
10
0.000000
20
0.000000
0
TEXT
8
0
62
2
6
BYBLOCK
10
19.084849
20
19.088150
40
0.160000
1
1.500
72
5
11
19.724849
21
19.088150
0
TEXT
8
0
62
2
6
BYBLOCK
10
19.212849
20
18.848150
40
0.160000
1
38,1
72
5
11
19.724849
21
18.848150
0
TEXT
8
0
62
2
6
BYBLOCK
10
19.084849
20
18.848150
40
0.160000
1
[
72
5
11
19.212849
21
18.848150
0
TEXT
8
0
62
2
6
BYBLOCK
10
19.724849
20
18.848150
40
0.160000
1
]
72
5
11
19.852849
21
18.848150
0
LINE
8
0
62
2
6
BYBLOCK
10
20.186658
20
17.879724
11
20.186658
21
19.293150
0
LINE
8
0
62
2
6
BYBLOCK
10
18.686658
20
17.903660
11
18.686658
21
19.293150
0
LINE
8
0
62
2
6
BYBLOCK
10
20.186658
20
19.168150
11
19.932849
21
19.168150
0
LINE
8
0
62
2
6
BYBLOCK
10
18.686658
20
19.168150
11
19.004849
21
19.168150
0
SOLID
8
0
62
2
6
BYBLOCK
10
19.999158
20
19.199400
11
19.999158
21
19.136900
12
20.186658
22
19.168150
13
20.186658
23
19.168150
0
SOLID
8
0
62
2
6
BYBLOCK
10
18.874158
20
19.136900
11
18.874158
21
19.199400
12
18.686658
22
19.168150
13
18.686658
23
19.168150
0
ENDBLK
8
0
0
BLOCK
8
0
62
2
6
BYBLOCK
2
*TEXT75
70
1
10
0.000000
20
0.000000
0
TEXT
8
0
62
2
6
BYBLOCK
10
28.786179
20
1.064831
40
0.100000
1
JB   3-7-96
72
5
11
29.666179
21
1.064831
0
ENDBLK
8
0
0
BLOCK
8
0
62
2
6
BYBLOCK
2
*TEXT76
70
1
10
0.000000
20
0.000000
0
TEXT
8
0
62
2
6
BYBLOCK
10
13.743640
20
2.077864
40
0.160000
1
4x clearance for 
72
5
11
15.919640
21
2.077864
0
ENDBLK
8
0
0
BLOCK
8
0
62
2
6
BYBLOCK
2
*TEXT77
70
1
10
0.000000
20
0.000000
0
TEXT
8
0
62
2
6
BYBLOCK
10
12.847640
20
1.837864
40
0.160000
1
#10 (M5) mounting screws
72
5
11
15.919640
21
1.837864
0
ENDBLK
8
0
0
BLOCK
8
0
62
2
6
BYBLOCK
2
*TEXT78
70
1
10
0.000000
20
0.000000
0
TEXT
8
0
62
2
6
BYBLOCK
10
14.947732
20
18.868278
40
0.160000
1
Unpainted 
72
5
11
16.227732
21
18.868278
0
ENDBLK
8
0
0
BLOCK
8
0
62
2
6
BYBLOCK
2
*TEXT79
70
1
10
0.000000
20
0.000000
0
TEXT
8
0
62
2
6
BYBLOCK
10
14.563732
20
18.628278
40
0.160000
1
for grounding
72
5
11
16.227732
21
18.628278
0
ENDBLK
8
0
0
ENDSEC
0
SECTION
2
ENTITIES
0
INSERT
8
0
62
2
2
*TEXT1
10
0.000000
20
0.000000
0
INSERT
8
0
62
2
2
*TEXT2
10
0.000000
20
0.000000
0
INSERT
8
0
62
2
2
*TEXT3
10
0.000000
20
0.000000
0
INSERT
8
0
62
2
2
*TEXT4
10
0.000000
20
0.000000
0
INSERT
8
0
62
2
2
*TEXT5
10
0.000000
20
0.000000
0
INSERT
8
0
62
2
2
*TEXT6
10
0.000000
20
0.000000
0
INSERT
8
0
62
2
2
*TEXT7
10
0.000000
20
0.000000
0
INSERT
8
0
62
2
2
*TEXT8
10
0.000000
20
0.000000
0
INSERT
8
0
62
2
2
*TEXT9
10
0.000000
20
0.000000
0
INSERT
8
0
62
2
2
*TEXT10
10
0.000000
20
0.000000
0
INSERT
8
0
62
2
2
*TEXT11
10
0.000000
20
0.000000
0
INSERT
8
0
62
2
2
*TEXT12
10
0.000000
20
0.000000
0
INSERT
8
0
62
2
2
*TEXT13
10
0.000000
20
0.000000
0
INSERT
8
0
62
2
2
*TEXT14
10
0.000000
20
0.000000
0
INSERT
8
0
62
2
2
*TEXT15
10
0.000000
20
0.000000
0
INSERT
8
0
62
2
2
*TEXT16
10
0.000000
20
0.000000
0
INSERT
8
0
62
2
2
*TEXT17
10
0.000000
20
0.000000
0
INSERT
8
0
62
2
2
*TEXT18
10
0.000000
20
0.000000
0
INSERT
8
0
62
2
2
*TEXT19
10
0.000000
20
0.000000
0
INSERT
8
0
62
2
2
*TEXT20
10
0.000000
20
0.000000
0
INSERT
8
0
62
2
2
*TEXT21
10
0.000000
20
0.000000
0
INSERT
8
0
62
2
2
*TEXT22
10
0.000000
20
0.000000
0
INSERT
8
0
62
2
2
*TEXT23
10
0.000000
20
0.000000
0
INSERT
8
0
62
2
2
*TEXT24
10
0.000000
20
0.000000
0
INSERT
8
0
62
2
2
*TEXT25
10
0.000000
20
0.000000
0
INSERT
8
0
62
2
2
*TEXT26
10
0.000000
20
0.000000
0
INSERT
8
0
62
2
2
*TEXT27
10
0.000000
20
0.000000
0
INSERT
8
0
62
2
2
*TEXT28
10
0.000000
20
0.000000
0
INSERT
8
0
62
2
2
*TEXT29
10
0.000000
20
0.000000
0
INSERT
8
0
62
2
2
*TEXT30
10
0.000000
20
0.000000
0
INSERT
8
0
62
2
2
*TEXT31
10
0.000000
20
0.000000
0
INSERT
8
0
62
2
2
*TEXT32
10
0.000000
20
0.000000
0
INSERT
8
0
62
2
2
*TEXT33
10
0.000000
20
0.000000
0
INSERT
8
0
62
2
2
*TEXT34
10
0.000000
20
0.000000
0
INSERT
8
0
62
2
2
*TEXT35
10
0.000000
20
0.000000
0
INSERT
8
0
62
2
2
*TEXT36
10
0.000000
20
0.000000
0
INSERT
8
0
62
2
2
*TEXT37
10
0.000000
20
0.000000
0
INSERT
8
0
62
2
2
*TEXT38
10
0.000000
20
0.000000
0
INSERT
8
0
62
2
2
*TEXT39
10
0.000000
20
0.000000
0
INSERT
8
0
62
2
2
*TEXT40
10
0.000000
20
0.000000
0
INSERT
8
0
62
2
2
*TEXT41
10
0.000000
20
0.000000
0
INSERT
8
0
62
2
2
*TEXT42
10
0.000000
20
0.000000
0
INSERT
8
0
62
2
2
*TEXT43
10
0.000000
20
0.000000
0
INSERT
8
0
62
2
2
*TEXT44
10
0.000000
20
0.000000
0
INSERT
8
0
62
2
2
*TEXT45
10
0.000000
20
0.000000
0
INSERT
8
0
62
2
2
*TEXT46
10
0.000000
20
0.000000
0
INSERT
8
0
62
2
2
*TEXT47
10
0.000000
20
0.000000
0
INSERT
8
0
62
2
2
*TEXT48
10
0.000000
20
0.000000
0
INSERT
8
0
62
2
2
*TEXT49
10
0.000000
20
0.000000
0
INSERT
8
0
62
2
2
*TEXT50
10
0.000000
20
0.000000
0
INSERT
8
0
62
2
2
*TEXT51
10
0.000000
20
0.000000
0
INSERT
8
0
62
2
2
*TEXT52
10
0.000000
20
0.000000
0
INSERT
8
0
62
2
2
*TEXT53
10
0.000000
20
0.000000
0
INSERT
8
0
62
2
2
*TEXT54
10
0.000000
20
0.000000
0
INSERT
8
0
62
2
2
*TEXT55
10
0.000000
20
0.000000
0
INSERT
8
0
62
2
2
*TEXT56
10
0.000000
20
0.000000
0
INSERT
8
0
62
2
2
*TEXT57
10
0.000000
20
0.000000
0
INSERT
8
0
62
2
2
*TEXT58
10
0.000000
20
0.000000
0
INSERT
8
0
62
2
2
*TEXT59
10
0.000000
20
0.000000
0
LINE
8
0
62
2
10
27.341829
20
1.630624
11
27.410845
21
1.511085
0
LINE
8
0
62
2
10
27.410845
20
1.511085
11
27.479861
21
1.630624
0
LINE
8
0
62
2
10
27.479861
20
1.630624
11
27.549121
21
1.750586
0
LINE
8
0
62
2
10
29.768324
20
1.739231
11
33.518324
21
1.739231
0
LINE
8
0
62
2
10
29.768324
20
1.739231
11
29.768324
21
0.489231
0
LINE
8
0
62
2
10
29.768324
20
0.989231
11
33.518324
21
0.989231
0
LINE
8
0
62
2
10
29.768324
20
0.489231
11
33.518324
21
0.489231
0
LINE
8
0
62
2
10
31.068324
20
0.989231
11
31.068324
21
0.489231
0
LINE
8
0
62
2
10
31.518324
20
0.989231
11
31.518324
21
0.489231
0
LINE
8
0
62
2
10
33.518324
20
1.739231
11
33.518324
21
0.489231
0
INSERT
8
0
62
2
2
*TEXT60
10
0.000000
20
0.000000
0
INSERT
8
0
62
2
2
*TEXT61
10
0.000000
20
0.000000
0
INSERT
8
0
62
2
2
*TEXT62
10
0.000000
20
0.000000
0
INSERT
8
0
62
2
2
*TEXT63
10
0.000000
20
0.000000
0
INSERT
8
0
62
2
2
*TEXT64
10
0.000000
20
0.000000
0
LINE
8
0
62
2
10
25.641073
20
0.238831
11
22.825073
21
0.238831
0
LINE
8
0
62
2
10
25.641073
20
0.238831
11
25.641073
21
0.878831
0
LINE
8
0
62
2
10
25.641073
20
0.558831
11
22.825073
21
0.558831
0
LINE
8
0
62
2
10
25.641073
20
0.878831
11
22.825073
21
0.878831
0
LINE
8
0
62
2
10
24.233073
20
0.238831
11
24.233073
21
0.878831
0
LINE
8
0
62
2
10
22.825073
20
0.238831
11
22.825073
21
0.878831
0
LINE
8
0
62
2
10
28.023162
20
20.737806
11
33.523162
21
20.737806
0
LINE
8
0
62
2
10
28.023162
20
20.737806
11
28.023162
21
20.312806
0
LINE
8
0
62
2
10
28.023162
20
20.507806
11
33.523162
21
20.507806
0
LINE
8
0
62
2
10
28.023162
20
20.312806
11
33.523162
21
20.312806
0
LINE
8
0
62
2
10
28.398162
20
20.737806
11
28.398162
21
20.312806
0
LINE
8
0
62
2
10
31.648162
20
20.737806
11
31.648162
21
20.312806
0
LINE
8
0
62
2
10
32.523162
20
20.737806
11
32.523162
21
20.312806
0
LINE
8
0
62
2
10
33.523162
20
20.737806
11
33.523162
21
20.312806
0
INSERT
8
0
62
2
2
*TEXT65
10
0.000000
20
0.000000
0
DIMENSION
8
0
62
2
2
*D65
10
2.862979
20
19.242606
11
7.959933
21
19.122606
13
12.062979
23
16.979930
14
2.862979
24
18.111268
50
180.000000
0
DIMENSION
8
0
62
2
2
*D66
10
20.936658
20
19.921046
11
19.498965
21
19.801046
13
17.936658
23
16.925512
14
20.936658
24
16.896534
0
DIMENSION
8
0
62
2
2
*D67
10
25.966657
20
17.813116
11
25.966657
21
11.560475
13
20.837532
23
2.813116
14
20.779576
24
17.813116
50
90.000000
0
DIMENSION
8
0
62
2
2
*D68
10
24.285927
20
3.384116
11
24.285927
21
10.633176
13
20.381321
23
17.634116
14
20.460817
24
3.384116
50
270.000000
0
DIMENSION
8
0
62
2
2
*D69
10
24.285927
20
17.634116
11
25.017664
21
18.660111
13
20.779576
23
17.813116
14
20.381321
24
17.634116
50
270.000000
0
DIMENSION
8
0
62
2
2
*D70
10
22.634175
20
17.813116
11
23.268175
21
18.428286
13
21.127313
23
16.758116
14
20.779576
24
17.813116
50
90.000000
0
DIMENSION
8
0
62
2
2
*D71
10
22.634175
20
3.868116
11
22.634175
21
8.935818
13
21.127313
23
16.758116
14
21.069357
24
3.868116
50
270.000000
0
DIMENSION
8
0
62
2
2
*D72
10
20.186658
20
19.168150
11
21.830455
21
19.048150
13
20.936658
23
16.896534
14
20.186658
24
17.879724
50
180.000000
0
DIMENSION
8
0
62
2
2
*D73
10
18.686658
20
19.168150
11
19.468849
21
19.048150
13
20.186658
23
17.879724
14
18.686658
24
17.903660
50
180.000000
0
INSERT
8
0
62
2
2
*TEXT75
10
0.000000
20
0.000000
0
SOLID
8
0
62
2
6
BYBLOCK
10
18.433250
20
3.362741
11
18.461942
21
3.307216
12
18.614171
22
3.421054
13
18.614171
23
3.421054
0
INSERT
8
0
62
2
2
*TEXT76
10
0.000000
20
0.000000
0
INSERT
8
0
62
2
2
*TEXT77
10
0.000000
20
0.000000
0
SOLID
8
0
62
2
6
BYBLOCK
10
19.913234
20
17.727754
11
19.891807
21
17.669041
12
20.078658
22
17.634116
13
20.078658
23
17.634116
0
INSERT
8
0
62
2
2
*TEXT78
10
0.000000
20
0.000000
0
INSERT
8
0
62
2
2
*TEXT79
10
0.000000
20
0.000000
0
LINE
8
0
10
0.000000
20
-0.260000
11
0.000000
21
21.740000
0
LINE
8
0
62
6
10
0.344990
20
10.839372
11
0.344990
21
10.637292
0
LINE
8
0
62
6
10
0.519990
20
0.238332
11
0.519990
21
21.738332
0
LINE
8
0
62
6
10
0.521149
20
0.238332
11
0.521149
21
-0.261668
0
LINE
8
0
62
6
10
4.644990
20
0.238332
11
4.644990
21
-0.261668
0
LINE
8
0
62
6
10
4.644990
20
21.238332
11
4.644990
21
21.738332
0
LINE
8
0
10
33.247220
20
1.990810
11
33.240020
21
1.989010
0
LINE
8
0
10
33.223820
20
2.017810
11
33.238220
21
2.021410
0
LINE
8
0
10
32.619020
20
1.879210
11
32.611820
21
1.877410
0
LINE
8
0
10
33.000620
20
1.990810
11
32.993420
21
1.989010
0
LINE
8
0
10
32.977220
20
2.017810
11
32.991620
21
2.021410
0
LINE
8
0
10
32.457020
20
1.992610
11
32.442620
21
1.989010
0
LINE
8
0
10
32.052020
20
1.990810
11
32.044820
21
1.989010
0
LINE
8
0
10
32.028620
20
2.017810
11
32.043020
21
2.021410
0
LINE
8
0
10
30.646970
20
2.004789
11
30.630970
21
2.000789
0
LINE
8
0
10
30.398970
20
2.004789
11
30.382970
21
2.000789
0
LINE
8
0
10
30.798970
20
2.004789
11
30.780970
21
2.000789
0
LINE
8
0
10
33.276020
20
1.877410
11
33.267020
21
1.875610
0
LINE
8
0
10
33.029420
20
1.877410
11
33.020420
21
1.875610
0
LINE
8
0
10
33.256220
20
1.992610
11
33.247220
21
1.990810
0
LINE
8
0
10
33.238220
20
2.021410
11
33.247220
21
2.023210
0
LINE
8
0
10
32.494820
20
1.881010
11
32.485820
21
1.879210
0
LINE
8
0
10
33.009620
20
1.992610
11
33.000620
21
1.990810
0
LINE
8
0
10
32.991620
20
2.021410
11
33.000620
21
2.023210
0
LINE
8
0
10
32.770220
20
1.992610
11
32.761220
21
1.990810
0
LINE
8
0
10
32.080820
20
1.877410
11
32.071820
21
1.875610
0
LINE
8
0
10
32.215820
20
1.992610
11
32.206820
21
1.990810
0
LINE
8
0
10
32.061020
20
1.992610
11
32.052020
21
1.990810
0
LINE
8
0
10
32.043020
20
2.021410
11
32.052020
21
2.023210
0
LINE
8
0
10
31.861220
20
2.068210
11
31.879220
21
2.071810
0
LINE
8
0
10
30.246970
20
1.938789
11
30.226970
21
1.934789
0
LINE
8
0
10
32.854820
20
1.992610
11
32.844020
21
1.990810
0
LINE
8
0
10
31.909820
20
1.875610
11
31.899020
21
1.873810
0
LINE
8
0
10
32.300420
20
1.992610
11
32.289620
21
1.990810
0
LINE
8
0
10
31.890020
20
2.037610
11
31.868420
21
2.034010
0
LINE
8
0
10
32.773820
20
2.021410
11
32.786420
21
2.023210
0
LINE
8
0
10
32.219420
20
2.021410
11
32.232020
21
2.023210
0
LINE
8
0
10
33.423620
20
1.985410
11
33.409220
21
1.983610
0
LINE
8
0
10
31.886420
20
1.908010
11
31.902620
21
1.909810
0
LINE
8
0
6
DOT
62
2
10
0.000000
20
-0.261668
11
33.999991
21
-0.261668
0
LINE
8
0
10
0.000000
20
-0.260000
11
34.000000
21
-0.260000
0
LINE
8
0
62
6
10
17.121030
20
0.063333
11
16.918960
21
0.063333
0
LINE
8
0
62
6
10
0.019990
20
0.238332
11
34.019990
21
0.238332
0
LINE
8
0
10
30.130970
20
1.880789
11
30.148970
21
1.882789
0
LINE
8
0
62
6
10
28.269990
20
0.488332
11
31.519990
21
0.488332
0
LINE
8
0
62
6
10
25.639991
20
0.738332
11
29.769990
21
0.738332
0
LINE
8
0
62
6
10
28.269990
20
0.988332
11
29.769990
21
0.988332
0
LINE
8
0
62
6
10
29.769990
20
0.988876
11
31.521290
21
0.988876
0
LINE
8
0
62
6
10
25.639991
20
1.238332
11
29.769990
21
1.238332
0
LINE
8
0
62
6
10
25.639991
20
1.488332
11
29.769990
21
1.488332
0
LINE
8
0
62
6
10
8.769990
20
0.238332
11
8.769990
21
-0.261668
0
LINE
8
0
62
6
10
8.769990
20
21.238332
11
8.769990
21
21.738332
0
LINE
8
0
10
29.832970
20
2.186789
11
30.930970
21
2.188789
0
LINE
8
0
62
6
10
29.769990
20
1.738332
11
33.519990
21
1.738332
0
LINE
8
0
10
30.930970
20
1.780789
11
29.832970
21
1.780789
0
LINE
8
0
10
32.428220
20
1.823410
11
32.390420
21
1.823410
0
LINE
8
0
10
30.022970
20
1.840789
11
30.110970
21
1.840789
0
LINE
8
0
10
30.246970
20
1.840789
11
30.414970
21
1.840789
0
LINE
8
0
10
30.460970
20
1.840789
11
30.518970
21
1.840789
0
LINE
8
0
10
30.550970
20
1.840789
11
30.620970
21
1.840789
0
LINE
8
0
10
30.646970
20
1.840789
11
30.812970
21
1.840789
0
LINE
8
0
10
31.899020
20
1.873810
11
31.875620
21
1.873810
0
LINE
8
0
10
33.267020
20
1.875610
11
33.243620
21
1.875610
0
LINE
8
0
10
33.020420
20
1.875610
11
32.997020
21
1.875610
0
LINE
8
0
10
32.606420
20
1.875610
11
32.588420
21
1.875610
0
LINE
8
0
10
32.476820
20
1.875610
11
32.451620
21
1.875610
0
LINE
8
0
10
32.071820
20
1.875610
11
32.048420
21
1.875610
0
LINE
8
0
10
33.171620
20
1.877410
11
33.141020
21
1.877410
0
LINE
8
0
10
33.389420
20
1.879210
11
33.351620
21
1.879210
0
LINE
8
0
10
33.135620
20
1.879210
11
33.130220
21
1.879210
0
LINE
8
0
10
32.912420
20
1.879210
11
32.874620
21
1.879210
0
LINE
8
0
10
32.829620
20
1.879210
11
32.793620
21
1.879210
0
LINE
8
0
10
32.748620
20
1.879210
11
32.710820
21
1.879210
0
LINE
8
0
10
32.678420
20
1.879210
11
32.642420
21
1.879210
0
LINE
8
0
10
32.358020
20
1.879210
11
32.320220
21
1.879210
0
LINE
8
0
10
32.275220
20
1.879210
11
32.239220
21
1.879210
0
LINE
8
0
10
32.194220
20
1.879210
11
32.156420
21
1.879210
0
LINE
8
0
10
30.110970
20
1.880789
11
30.130970
21
1.880789
0
LINE
8
0
10
32.052020
20
1.904410
11
32.070020
21
1.904410
0
LINE
8
0
10
32.451620
20
1.904410
11
32.466020
21
1.904410
0
LINE
8
0
10
32.611820
20
1.904410
11
32.622620
21
1.904410
0
LINE
8
0
10
33.000620
20
1.904410
11
33.018620
21
1.904410
0
LINE
8
0
10
33.151820
20
1.904410
11
33.171620
21
1.904410
0
LINE
8
0
10
33.247220
20
1.904410
11
33.265220
21
1.904410
0
LINE
8
0
10
30.754970
20
1.906789
11
30.678970
21
1.906789
0
LINE
8
0
10
31.879220
20
1.908010
11
31.886420
21
1.908010
0
LINE
8
0
10
29.832970
20
1.938789
11
30.140970
21
1.938789
0
LINE
8
0
10
30.222970
20
1.938789
11
30.246970
21
1.938789
0
LINE
8
0
10
30.414970
20
1.938789
11
30.460970
21
1.938789
0
LINE
8
0
10
30.812970
20
1.938789
11
30.860970
21
1.938789
0
LINE
8
0
10
30.290970
20
1.940789
11
30.246970
21
1.940789
0
LINE
8
0
10
31.929620
20
1.944010
11
31.971020
21
1.944010
0
LINE
8
0
10
31.839620
20
1.969210
11
31.841420
21
1.969210
0
LINE
8
0
10
33.434420
20
1.985410
11
33.423620
21
1.985410
0
LINE
8
0
10
32.782820
20
1.990810
11
32.779220
21
1.990810
0
LINE
8
0
10
32.228420
20
1.990810
11
32.224820
21
1.990810
0
LINE
8
0
10
32.775620
20
1.992610
11
32.770220
21
1.992610
0
LINE
8
0
10
32.221220
20
1.992610
11
32.215820
21
1.992610
0
LINE
8
0
10
33.171620
20
1.994410
11
33.148220
21
1.994410
0
LINE
8
0
10
33.112220
20
1.994410
11
33.092420
21
1.994410
0
LINE
8
0
10
32.426420
20
1.999810
11
32.433620
21
1.999810
0
LINE
8
0
10
30.860970
20
2.004789
11
30.798970
21
2.004789
0
LINE
8
0
10
30.712970
20
2.004789
11
30.646970
21
2.004789
0
LINE
8
0
10
30.620970
20
2.004789
11
30.550970
21
2.004789
0
LINE
8
0
10
30.460970
20
2.004789
11
30.398970
21
2.004789
0
LINE
8
0
10
30.310970
20
2.004789
11
30.222970
21
2.004789
0
LINE
8
0
10
30.140970
20
2.004789
11
29.832970
21
2.004789
0
LINE
8
0
10
31.971020
20
2.005210
11
31.929620
21
2.005210
0
LINE
8
0
10
32.156420
20
2.019610
11
32.190620
21
2.019610
0
LINE
8
0
10
32.390420
20
2.019610
11
32.426420
21
2.019610
0
LINE
8
0
10
32.550620
20
2.019610
11
32.588420
21
2.019610
0
LINE
8
0
10
32.640620
20
2.019610
11
32.678420
21
2.019610
0
LINE
8
0
10
32.710820
20
2.019610
11
32.745020
21
2.019610
0
LINE
8
0
10
33.092420
20
2.019610
11
33.112220
21
2.019610
0
LINE
8
0
10
33.148220
20
2.019610
11
33.171620
21
2.019610
0
LINE
8
0
10
33.351620
20
2.019610
11
33.385820
21
2.019610
0
LINE
8
0
10
32.458820
20
2.021410
11
32.460620
21
2.021410
0
LINE
8
0
10
32.052020
20
2.023210
11
32.068220
21
2.023210
0
LINE
8
0
10
32.232020
20
2.023210
11
32.239220
21
2.023210
0
LINE
8
0
10
32.302220
20
2.023210
11
32.316620
21
2.023210
0
LINE
8
0
10
32.464220
20
2.023210
11
32.473220
21
2.023210
0
LINE
8
0
10
32.786420
20
2.023210
11
32.793620
21
2.023210
0
LINE
8
0
10
32.856620
20
2.023210
11
32.871020
21
2.023210
0
LINE
8
0
10
33.000620
20
2.023210
11
33.016820
21
2.023210
0
LINE
8
0
10
33.247220
20
2.023210
11
33.263420
21
2.023210
0
LINE
8
0
10
33.421820
20
2.023210
11
33.434420
21
2.023210
0
LINE
8
0
10
33.112220
20
2.057410
11
33.148220
21
2.057410
0
LINE
8
0
62
6
10
25.639991
20
2.070667
11
28.269990
21
2.070667
0
LINE
8
0
10
31.879220
20
2.071810
11
31.899020
21
2.071810
0
LINE
8
0
10
30.518970
20
2.072789
11
30.460970
21
2.072789
0
LINE
8
0
10
30.130970
20
2.072789
11
30.022970
21
2.072789
0
LINE
8
0
62
6
10
25.644460
20
2.232939
11
33.524459
21
2.232939
0
LINE
8
0
62
6
10
0.519990
20
10.738332
11
0.345000
21
10.839372
0
LINE
8
0
62
6
10
0.519990
20
10.738332
11
0.344990
21
10.637292
0
LINE
8
0
10
18.641238
20
3.381433
11
18.797306
21
3.381433
0
LINE
8
0
10
20.141238
20
3.381433
11
20.297306
21
3.381433
0
LINE
8
0
10
30.148970
20
2.070789
11
30.130970
21
2.072789
0
LINE
8
0
10
31.904420
20
2.035810
11
31.890020
21
2.037610
0
LINE
8
0
10
31.864820
20
1.877410
11
31.854020
21
1.879210
0
LINE
8
0
10
32.601020
20
1.906210
11
32.611820
21
1.904410
0
LINE
8
0
10
31.899020
20
2.071810
11
31.909820
21
2.070010
0
LINE
8
0
10
30.226970
20
1.844789
11
30.246970
21
1.840789
0
LINE
8
0
10
32.037620
20
1.879210
11
32.028620
21
1.881010
0
LINE
8
0
10
32.070020
20
1.990810
11
32.061020
21
1.992610
0
LINE
8
0
10
32.309420
20
1.990810
11
32.300420
21
1.992610
0
LINE
8
0
10
32.986220
20
1.879210
11
32.977220
21
1.881010
0
LINE
8
0
10
30.328970
20
2.000789
11
30.310970
21
2.004789
0
LINE
8
0
62
6
10
17.020010
20
21.238332
11
17.121030
21
21.413322
0
LINE
8
0
62
6
10
0.519990
20
5.488332
11
0.019990
21
5.488332
0
LINE
8
0
62
6
10
33.519990
20
5.488332
11
34.019990
21
5.488332
0
LINE
8
0
10
33.232820
20
1.879210
11
33.223820
21
1.881010
0
LINE
8
0
10
32.863820
20
1.990810
11
32.854820
21
1.992610
0
LINE
8
0
10
33.018620
20
1.990810
11
33.009620
21
1.992610
0
LINE
8
0
10
33.265220
20
1.990810
11
33.256220
21
1.992610
0
LINE
8
0
10
30.630970
20
1.844789
11
30.646970
21
1.840789
0
LINE
8
0
10
32.077220
20
1.989010
11
32.070020
21
1.990810
0
LINE
8
0
10
32.068220
20
2.023210
11
32.089820
21
2.017810
0
LINE
8
0
10
32.239220
20
2.023210
11
32.246420
21
2.021410
0
LINE
8
0
10
32.316620
20
2.023210
11
32.331020
21
2.019610
0
LINE
8
0
10
32.471420
20
1.989010
11
32.457020
21
1.992610
0
LINE
8
0
10
32.793620
20
2.023210
11
32.800820
21
2.021410
0
LINE
8
0
10
32.871020
20
2.023210
11
32.885420
21
2.019610
0
LINE
8
0
10
33.025820
20
1.989010
11
33.018620
21
1.990810
0
LINE
8
0
10
33.016820
20
2.023210
11
33.038420
21
2.017810
0
LINE
8
0
10
33.272420
20
1.989010
11
33.265220
21
1.990810
0
LINE
8
0
10
33.263420
20
2.023210
11
33.285020
21
2.017810
0
LINE
8
0
10
30.726970
20
2.000789
11
30.712970
21
2.004789
0
LINE
8
0
62
6
10
17.019990
20
0.238329
11
17.121030
21
0.063334
0
LINE
8
0
62
6
10
12.894990
20
0.238332
11
12.894990
21
-0.261668
0
LINE
8
0
62
6
10
12.894990
20
21.238332
11
12.894990
21
21.738332
0
LINE
8
0
10
30.166970
20
2.064789
11
30.148970
21
2.070789
0
LINE
8
0
10
31.875620
20
1.873810
11
31.864820
21
1.877410
0
LINE
8
0
10
31.873820
20
1.909810
11
31.879220
21
1.908010
0
LINE
8
0
10
32.048420
20
1.875610
11
32.037620
21
1.879210
0
LINE
8
0
10
31.909820
20
2.070010
11
31.920620
21
2.066410
0
LINE
8
0
10
32.439020
20
1.909810
11
32.444420
21
1.908010
0
LINE
8
0
10
32.246420
20
2.021410
11
32.251820
21
2.019610
0
LINE
8
0
10
32.473220
20
2.023210
11
32.494820
21
2.016010
0
LINE
8
0
10
32.997020
20
1.875610
11
32.986220
21
1.879210
0
LINE
8
0
10
33.130220
20
1.879210
11
33.124820
21
1.881010
0
LINE
8
0
10
33.141020
20
1.877410
11
33.135620
21
1.879210
0
LINE
8
0
10
32.800820
20
2.021410
11
32.806220
21
2.019610
0
LINE
8
0
10
33.243620
20
1.875610
11
33.232820
21
1.879210
0
LINE
8
0
10
31.920620
20
2.066410
11
31.938620
21
2.059210
0
LINE
8
0
10
32.588420
20
1.875610
11
32.579420
21
1.879210
0
LINE
8
0
10
30.182970
20
2.056789
11
30.166970
21
2.064789
0
LINE
8
0
10
31.854020
20
1.879210
11
31.843220
21
1.884610
0
LINE
8
0
10
31.866620
20
1.913410
11
31.873820
21
1.909810
0
LINE
8
0
10
32.044820
20
1.908010
11
32.052020
21
1.904410
0
LINE
8
0
10
31.915220
20
2.030410
11
31.904420
21
2.035810
0
LINE
8
0
10
32.089820
20
2.017810
11
32.097020
21
2.014210
0
LINE
8
0
10
32.451620
20
1.875610
11
32.440820
21
1.881010
0
LINE
8
0
10
32.439020
20
1.882810
11
32.435420
21
1.884610
0
LINE
8
0
10
32.224820
20
1.990810
11
32.221220
21
1.992610
0
LINE
8
0
10
32.232020
20
1.989010
11
32.228420
21
1.990810
0
LINE
8
0
10
32.444420
20
1.908010
11
32.451620
21
1.904410
0
LINE
8
0
10
32.251820
20
2.019610
11
32.255420
21
2.017810
0
LINE
8
0
10
32.579420
20
1.879210
11
32.572220
21
1.882810
0
LINE
8
0
10
30.616970
20
1.852789
11
30.630970
21
1.844789
0
LINE
8
0
62
6
10
17.019990
20
0.063333
11
17.019990
21
-0.261668
0
LINE
8
0
62
6
10
17.019990
20
21.413322
11
17.019990
21
21.738332
0
LINE
8
0
62
6
10
0.344990
20
10.738332
11
0.019990
21
10.738332
0
LINE
8
0
62
6
10
33.694989
20
10.738332
11
34.019990
21
10.738332
0
LINE
8
0
10
32.779220
20
1.990810
11
32.775620
21
1.992610
0
LINE
8
0
10
32.786420
20
1.989010
11
32.782820
21
1.990810
0
LINE
8
0
10
32.993420
20
1.908010
11
33.000620
21
1.904410
0
LINE
8
0
10
32.806220
20
2.019610
11
32.809820
21
2.017810
0
LINE
8
0
10
33.124820
20
1.881010
11
33.117620
21
1.884610
0
LINE
8
0
10
33.240020
20
1.908010
11
33.247220
21
1.904410
0
LINE
8
0
10
33.038420
20
2.017810
11
33.045620
21
2.014210
0
LINE
8
0
10
33.285020
20
2.017810
11
33.292220
21
2.014210
0
LINE
8
0
10
31.843220
20
1.884610
11
31.834220
21
1.890010
0
LINE
8
0
10
32.028620
20
1.881010
11
32.019620
21
1.886410
0
LINE
8
0
10
30.210970
20
1.854789
11
30.226970
21
1.844789
0
LINE
8
0
10
32.977220
20
1.881010
11
32.968220
21
1.886410
0
LINE
8
0
10
33.223820
20
1.881010
11
33.214820
21
1.886410
0
LINE
8
0
10
31.855820
20
1.920610
11
31.866620
21
1.913410
0
LINE
8
0
10
32.039420
20
1.911610
11
32.044820
21
1.908010
0
LINE
8
0
10
32.097020
20
2.014210
11
32.113220
21
2.003410
0
LINE
8
0
10
32.259020
20
2.014210
11
32.264420
21
2.010610
0
LINE
8
0
10
32.331020
20
2.019610
11
32.341820
21
2.012410
0
LINE
8
0
10
32.476820
20
1.985410
11
32.471420
21
1.989010
0
LINE
8
0
10
32.494820
20
2.016010
11
32.505620
21
2.008810
0
LINE
8
0
10
32.813420
20
2.014210
11
32.818820
21
2.010610
0
LINE
8
0
10
32.988020
20
1.911610
11
32.993420
21
1.908010
0
LINE
8
0
10
32.885420
20
2.019610
11
32.896220
21
2.012410
0
LINE
8
0
10
30.342970
20
1.990789
11
30.328970
21
2.000789
0
LINE
8
0
10
30.740970
20
1.990789
11
30.726970
21
2.000789
0
LINE
8
0
10
18.686104
20
17.563899
11
18.686104
21
17.719967
0
LINE
8
0
10
18.714017
20
3.313899
11
18.714017
21
3.469967
0
LINE
8
0
10
33.045620
20
2.014210
11
33.061820
21
2.003410
0
LINE
8
0
10
33.234620
20
1.911610
11
33.240020
21
1.908010
0
LINE
8
0
10
33.292220
20
2.014210
11
33.308420
21
2.003410
0
LINE
8
0
10
32.019620
20
1.886410
11
32.012420
21
1.891810
0
LINE
8
0
10
31.938620
20
2.059210
11
31.945820
21
2.053810
0
LINE
8
0
10
32.316620
20
1.985410
11
32.309420
21
1.990810
0
LINE
8
0
10
32.572220
20
1.882810
11
32.565020
21
1.888210
0
LINE
8
0
10
32.593820
20
1.911610
11
32.601020
21
1.906210
0
LINE
8
0
10
32.968220
20
1.886410
11
32.961020
21
1.891810
0
LINE
8
0
10
32.871020
20
1.985410
11
32.863820
21
1.990810
0
LINE
8
0
10
33.214820
20
1.886410
11
33.207620
21
1.891810
0
LINE
8
0
10
31.834220
20
1.890010
11
31.825220
21
1.897210
0
LINE
8
0
10
30.194970
20
2.046789
11
30.182970
21
2.056789
0
LINE
8
0
10
20.186104
20
17.563899
11
20.186104
21
17.719967
0
LINE
8
0
10
20.214017
20
3.313899
11
20.214017
21
3.469967
0
LINE
8
0
62
6
10
21.144990
20
0.238332
11
21.144990
21
-0.261668
0
LINE
8
0
62
6
10
21.144990
20
21.238332
11
21.144990
21
21.738332
0
LINE
8
0
10
32.012420
20
1.891810
11
32.005220
21
1.899010
0
LINE
8
0
10
32.034020
20
1.917010
11
32.039420
21
1.911610
0
LINE
8
0
10
31.945820
20
2.053810
11
31.953020
21
2.046610
0
LINE
8
0
10
32.088020
20
1.978210
11
32.077220
21
1.989010
0
LINE
8
0
10
32.237420
20
1.981810
11
32.235620
21
1.983610
0
LINE
8
0
10
32.233820
20
1.987210
11
32.232020
21
1.989010
0
LINE
8
0
10
32.255420
20
2.017810
11
32.259020
21
2.014210
0
LINE
8
0
10
32.440820
20
1.881010
11
32.439020
21
1.882810
0
LINE
8
0
10
32.433620
20
1.888210
11
32.431820
21
1.890010
0
LINE
8
0
10
32.430020
20
1.893610
11
32.428220
21
1.895410
0
LINE
8
0
10
32.433620
20
1.915210
11
32.439020
21
1.909810
0
LINE
8
0
10
32.341820
20
2.012410
11
32.345420
21
2.008810
0
LINE
8
0
10
32.482220
20
1.980010
11
32.476820
21
1.985410
0
LINE
8
0
10
32.505620
20
2.008810
11
32.509220
21
2.005210
0
LINE
8
0
10
32.791820
20
1.981810
11
32.790020
21
1.983610
0
LINE
8
0
10
32.788220
20
1.987210
11
32.786420
21
1.989010
0
LINE
8
0
10
32.809820
20
2.017810
11
32.813420
21
2.014210
0
LINE
8
0
10
32.961020
20
1.891810
11
32.953820
21
1.899010
0
LINE
8
0
10
32.982620
20
1.917010
11
32.988020
21
1.911610
0
LINE
8
0
10
32.896220
20
2.012410
11
32.899820
21
2.008810
0
LINE
8
0
10
30.206970
20
2.032789
11
30.194970
21
2.046789
0
LINE
8
0
10
30.352970
20
1.978789
11
30.342970
21
1.990789
0
LINE
8
0
62
6
10
17.019990
20
0.238332
11
16.918960
21
0.063335
0
LINE
8
0
62
6
10
0.519990
20
15.988332
11
0.019990
21
15.988332
0
LINE
8
0
62
6
10
33.519990
20
15.988332
11
34.019990
21
15.988332
0
LINE
8
0
10
33.036620
20
1.978210
11
33.025820
21
1.989010
0
LINE
8
0
10
33.150020
20
1.906210
11
33.151820
21
1.904410
0
LINE
8
0
10
33.207620
20
1.891810
11
33.200420
21
1.899010
0
LINE
8
0
10
33.229220
20
1.917010
11
33.234620
21
1.911610
0
LINE
8
0
10
33.283220
20
1.978210
11
33.272420
21
1.989010
0
LINE
8
0
10
31.924220
20
2.019610
11
31.915220
21
2.030410
0
LINE
8
0
10
31.825220
20
1.897210
11
31.818020
21
1.906210
0
LINE
8
0
10
30.750970
20
1.976789
11
30.740970
21
1.990789
0
LINE
8
0
62
6
10
17.019990
20
21.238332
11
16.918960
21
21.413322
0
LINE
8
0
10
18.613324
20
17.631433
11
18.769393
21
17.631433
0
LINE
8
0
10
20.113324
20
17.631433
11
20.269393
21
17.631433
0
LINE
8
0
10
32.005220
20
1.899010
11
31.999820
21
1.906210
0
LINE
8
0
10
31.953020
20
2.046610
11
31.958420
21
2.039410
0
LINE
8
0
10
32.565020
20
1.888210
11
32.559620
21
1.895410
0
LINE
8
0
10
30.200970
20
1.870789
11
30.210970
21
1.854789
0
LINE
8
0
10
30.620970
20
1.840789
11
30.570970
21
1.922789
0
LINE
8
0
10
30.518970
20
1.894789
11
30.550970
21
1.840789
0
LINE
8
0
62
6
10
25.269990
20
0.238332
11
25.269990
21
-0.261668
0
LINE
8
0
62
6
10
25.269990
20
21.238332
11
25.269990
21
21.738332
0
LINE
8
0
62
6
10
33.519992
20
10.738332
11
33.694988
21
10.637292
0
LINE
8
0
10
32.953820
20
1.899010
11
32.948420
21
1.906210
0
LINE
8
0
10
33.200420
20
1.899010
11
33.195020
21
1.906210
0
LINE
8
0
10
31.818020
20
1.906210
11
31.810820
21
1.917010
0
LINE
8
0
10
31.848620
20
1.931410
11
31.855820
21
1.920610
0
LINE
8
0
10
32.091620
20
1.972810
11
32.088020
21
1.978210
0
LINE
8
0
10
32.113220
20
2.003410
11
32.124020
21
1.987210
0
LINE
8
0
10
32.264420
20
2.010610
11
32.271620
21
1.999810
0
LINE
8
0
10
32.345420
20
2.008810
11
32.352620
21
1.998010
0
LINE
8
0
10
32.509220
20
2.005210
11
32.516420
21
1.994410
0
LINE
8
0
10
32.818820
20
2.010610
11
32.826020
21
1.999810
0
LINE
8
0
10
32.899820
20
2.008810
11
32.907020
21
1.998010
0
LINE
8
0
10
33.040220
20
1.972810
11
33.036620
21
1.978210
0
LINE
8
0
10
33.061820
20
2.003410
11
33.072620
21
1.987210
0
LINE
8
0
10
31.958420
20
2.039410
11
31.963820
21
2.030410
0
LINE
8
0
10
30.608970
20
1.866789
11
30.616970
21
1.852789
0
LINE
8
0
10
30.214970
20
2.016789
11
30.206970
21
2.032789
0
LINE
8
0
62
6
10
25.639991
20
2.238332
11
25.639991
21
0.238332
0
LINE
8
0
62
6
10
33.519992
20
10.738332
11
33.694987
21
10.839362
0
LINE
8
0
10
33.286820
20
1.972810
11
33.283220
21
1.978210
0
LINE
8
0
10
33.308420
20
2.003410
11
33.319220
21
1.987210
0
LINE
8
0
10
32.559620
20
1.895410
11
32.554220
21
1.904410
0
LINE
8
0
10
31.810820
20
1.917010
11
31.805420
21
1.927810
0
LINE
8
0
10
31.999820
20
1.906210
11
31.996220
21
1.913410
0
LINE
8
0
10
31.963820
20
2.030410
11
31.967420
21
2.023210
0
LINE
8
0
10
32.028620
20
1.931410
11
32.032220
21
1.924210
0
LINE
8
0
10
32.124020
20
1.987210
11
32.127620
21
1.980010
0
LINE
8
0
10
32.239220
20
1.974610
11
32.237420
21
1.978210
0
LINE
8
0
10
32.235620
20
1.983610
11
32.233820
21
1.987210
0
LINE
8
0
10
30.220970
20
2.000789
11
30.214970
21
2.016789
0
LINE
8
0
62
6
10
28.021991
20
20.738332
11
33.519990
21
20.738332
0
LINE
8
0
62
6
10
28.021991
20
20.988332
11
33.519990
21
20.988332
0
LINE
8
0
62
6
10
0.019990
20
21.238332
11
34.019990
21
21.238332
0
LINE
8
0
62
6
10
17.121030
20
21.413322
11
16.918960
21
21.413322
0
LINE
8
0
10
0.000000
20
21.740000
11
34.000000
21
21.740000
0
LINE
8
0
10
32.431820
20
1.890010
11
32.430020
21
1.893610
0
LINE
8
0
10
32.435420
20
1.884610
11
32.433620
21
1.888210
0
LINE
8
0
10
32.430020
20
1.922410
11
32.433620
21
1.915210
0
LINE
8
0
10
32.487620
20
1.965610
11
32.484020
21
1.972810
0
LINE
8
0
10
32.518220
20
1.989010
11
32.521820
21
1.981810
0
LINE
8
0
10
32.590220
20
1.918810
11
32.593820
21
1.911610
0
LINE
8
0
10
32.793620
20
1.974610
11
32.791820
21
1.978210
0
LINE
8
0
10
32.790020
20
1.983610
11
32.788220
21
1.987210
0
LINE
8
0
10
32.948420
20
1.906210
11
32.944820
21
1.913410
0
LINE
8
0
10
32.977220
20
1.931410
11
32.980820
21
1.924210
0
LINE
8
0
10
33.117620
20
1.884610
11
33.112220
21
1.895410
0
LINE
8
0
10
33.072620
20
1.987210
11
33.076220
21
1.980010
0
LINE
8
0
10
33.148220
20
1.913410
11
33.150020
21
1.909810
0
LINE
8
0
10
33.195020
20
1.906210
11
33.191420
21
1.913410
0
LINE
8
0
10
33.223820
20
1.931410
11
33.227420
21
1.924210
0
LINE
8
0
10
33.319220
20
1.987210
11
33.322820
21
1.980010
0
LINE
8
0
10
31.996220
20
1.913410
11
31.992620
21
1.922410
0
LINE
8
0
10
31.929620
20
2.005210
11
31.924220
21
2.019610
0
LINE
8
0
10
30.754970
20
1.962789
11
30.750970
21
1.976789
0
LINE
8
0
10
30.356970
20
1.962789
11
30.352970
21
1.978789
0
LINE
8
0
62
6
10
28.021991
20
21.238332
11
28.021991
21
20.738332
0
LINE
8
0
62
6
10
28.269990
20
2.238332
11
28.269990
21
0.238332
0
LINE
8
0
62
6
10
28.396991
20
21.238332
11
28.396991
21
20.738332
0
LINE
8
0
10
32.944820
20
1.913410
11
32.941220
21
1.922410
0
LINE
8
0
10
33.191420
20
1.913410
11
33.187820
21
1.922410
0
LINE
8
0
10
32.352620
20
1.998010
11
32.358020
21
1.981810
0
LINE
8
0
10
32.516420
20
1.994410
11
32.518220
21
1.989010
0
LINE
8
0
10
31.803620
20
1.942210
11
31.800020
21
1.954810
0
LINE
8
0
10
30.604970
20
1.884789
11
30.608970
21
1.866789
0
LINE
8
0
10
30.196970
20
1.890789
11
30.200970
21
1.870789
0
LINE
8
0
62
6
10
29.144990
20
1.488332
11
29.144990
21
0.238332
0
LINE
8
0
62
6
10
29.394990
20
0.238332
11
29.394990
21
-0.261668
0
LINE
8
0
62
6
10
29.394990
20
21.238332
11
29.394990
21
21.738332
0
LINE
8
0
62
6
10
29.769990
20
2.238332
11
29.769990
21
0.238332
0
LINE
8
0
10
29.832970
20
1.780789
11
29.832970
21
1.938789
0
LINE
8
0
10
29.832970
20
2.004789
11
29.832970
21
2.186789
0
LINE
8
0
10
30.022970
20
2.072789
11
30.022970
21
2.004789
0
LINE
8
0
10
30.022970
20
1.938789
11
30.022970
21
1.840789
0
LINE
8
0
10
30.110970
20
1.840789
11
30.110970
21
1.880789
0
LINE
8
0
10
30.140970
20
2.004789
11
30.140970
21
1.938789
0
LINE
8
0
10
30.148970
20
1.882789
11
30.166970
21
1.888789
0
LINE
8
0
10
32.907020
20
1.998010
11
32.912420
21
1.981810
0
LINE
8
0
10
31.843220
20
1.953010
11
31.848620
21
1.931410
0
LINE
8
0
10
32.032220
20
1.924210
11
32.034020
21
1.917010
0
LINE
8
0
10
32.093420
20
1.965610
11
32.091620
21
1.972810
0
LINE
8
0
10
32.127620
20
1.980010
11
32.129420
21
1.972810
0
LINE
8
0
10
32.426420
20
1.936810
11
32.430020
21
1.922410
0
LINE
8
0
10
32.484020
20
1.972810
11
32.482220
21
1.980010
0
LINE
8
0
10
32.521820
20
1.981810
11
32.525420
21
1.967410
0
LINE
8
0
10
31.841420
20
1.962010
11
31.843220
21
1.953010
0
LINE
8
0
10
31.967420
20
2.023210
11
31.971020
21
2.005210
0
LINE
8
0
10
31.992620
20
1.922410
11
31.989020
21
1.940410
0
LINE
8
0
10
32.026820
20
1.940410
11
32.028620
21
1.931410
0
LINE
8
0
10
32.095220
20
1.956610
11
32.093420
21
1.965610
0
LINE
8
0
10
32.129420
20
1.965610
11
32.131220
21
1.956610
0
LINE
8
0
10
30.222970
20
1.982789
11
30.220970
21
2.000789
0
LINE
8
0
10
30.222970
20
2.004789
11
30.222970
21
1.938789
0
LINE
8
0
10
30.290970
20
1.940789
11
30.290970
21
1.888789
0
LINE
8
0
10
30.356970
20
1.962789
11
30.356970
21
1.840789
0
LINE
8
0
10
30.414970
20
1.840789
11
30.414970
21
1.938789
0
LINE
8
0
10
30.460970
20
2.072789
11
30.460970
21
1.840789
0
LINE
8
0
10
30.518970
20
1.840789
11
30.518970
21
1.894789
0
LINE
8
0
10
30.518970
20
1.952789
11
30.518970
21
2.072789
0
LINE
8
0
10
30.604970
20
1.962789
11
30.604970
21
1.884789
0
LINE
8
0
10
30.678970
20
1.940789
11
30.678970
21
1.906789
0
LINE
8
0
10
30.754970
20
1.962789
11
30.754970
21
1.840789
0
LINE
8
0
10
30.812970
20
1.840789
11
30.812970
21
1.938789
0
LINE
8
0
10
30.860970
20
1.938789
11
30.860970
21
2.004789
0
LINE
8
0
10
30.930970
20
2.188789
11
30.930970
21
1.780789
0
LINE
8
0
62
6
10
31.070302
20
0.987716
11
31.070302
21
0.487716
0
LINE
8
0
10
30.220970
20
1.954789
11
30.222970
21
1.972789
0
LINE
8
0
10
30.166970
20
1.888789
11
30.182970
21
1.896789
0
LINE
8
0
10
31.852220
20
2.064610
11
31.861220
21
2.068210
0
LINE
8
0
10
31.927820
20
1.882810
11
31.909820
21
1.875610
0
LINE
8
0
10
32.098820
20
1.884610
11
32.080820
21
1.877410
0
LINE
8
0
10
32.485820
20
1.879210
11
32.476820
21
1.875610
0
LINE
8
0
10
32.208620
20
2.017810
11
32.219420
21
2.021410
0
LINE
8
0
10
32.291420
20
2.019610
11
32.302220
21
2.023210
0
LINE
8
0
10
32.763020
20
2.017810
11
32.773820
21
2.021410
0
LINE
8
0
10
32.845820
20
2.019610
11
32.856620
21
2.023210
0
LINE
8
0
10
32.611820
20
1.877410
11
32.606420
21
1.875610
0
LINE
8
0
10
32.624420
20
1.881010
11
32.619020
21
1.879210
0
LINE
8
0
10
33.411020
20
2.019610
11
33.421820
21
2.023210
0
LINE
8
0
10
32.980820
20
1.924210
11
32.982620
21
1.917010
0
LINE
8
0
10
33.042020
20
1.965610
11
33.040220
21
1.972810
0
LINE
8
0
10
33.076220
20
1.980010
11
33.078020
21
1.972810
0
LINE
8
0
10
33.227420
20
1.924210
11
33.229220
21
1.917010
0
LINE
8
0
10
33.288620
20
1.965610
11
33.286820
21
1.972810
0
LINE
8
0
10
33.322820
20
1.980010
11
33.324620
21
1.972810
0
LINE
8
0
10
32.318420
20
1.976410
11
32.316620
21
1.985410
0
LINE
8
0
10
32.489420
20
1.956610
11
32.487620
21
1.965610
0
LINE
8
0
10
32.872820
20
1.976410
11
32.871020
21
1.985410
0
LINE
8
0
10
32.941220
20
1.922410
11
32.937620
21
1.940410
0
LINE
8
0
10
32.975420
20
1.940410
11
32.977220
21
1.931410
0
LINE
8
0
10
33.043820
20
1.956610
11
33.042020
21
1.965610
0
LINE
8
0
10
33.078020
20
1.965610
11
33.079820
21
1.956610
0
LINE
8
0
10
33.187820
20
1.922410
11
33.184220
21
1.940410
0
LINE
8
0
10
33.222020
20
1.940410
11
33.223820
21
1.931410
0
LINE
8
0
10
33.290420
20
1.956610
11
33.288620
21
1.965610
0
LINE
8
0
10
33.324620
20
1.965610
11
33.326420
21
1.956610
0
LINE
8
0
10
32.554220
20
1.904410
11
32.550620
21
1.926010
0
LINE
8
0
10
32.588420
20
1.929610
11
32.590220
21
1.918810
0
LINE
8
0
10
32.320220
20
1.963810
11
32.318420
21
1.976410
0
LINE
8
0
10
31.805420
20
1.927810
11
31.803620
21
1.942210
0
LINE
8
0
62
6
10
31.647436
20
21.237296
11
31.647436
21
20.737296
0
LINE
8
0
10
31.800020
20
1.954810
11
31.800020
21
1.987210
0
LINE
8
0
10
31.839620
20
1.971010
11
31.839620
21
1.969210
0
LINE
8
0
10
31.841420
20
1.969210
11
31.841420
21
1.962010
0
LINE
8
0
10
31.989020
20
1.940410
11
31.989020
21
1.963810
0
LINE
8
0
10
32.026820
20
1.956610
11
32.026820
21
1.940410
0
LINE
8
0
10
32.095220
20
1.940410
11
32.095220
21
1.956610
0
LINE
8
0
10
32.129420
20
1.972810
11
32.129420
21
1.965610
0
LINE
8
0
10
32.131220
20
1.956610
11
32.131220
21
1.938610
0
LINE
8
0
10
32.156420
20
1.879210
11
32.156420
21
2.019610
0
LINE
8
0
10
32.190620
20
2.019610
11
32.190620
21
1.998010
0
LINE
8
0
10
32.194220
20
1.963810
11
32.194220
21
1.879210
0
LINE
8
0
62
6
10
32.219991
20
0.488332
11
32.219991
21
0.238332
0
LINE
8
0
10
32.237420
20
1.978210
11
32.237420
21
1.981810
0
LINE
8
0
10
32.239220
20
1.879210
11
32.239220
21
1.974610
0
LINE
8
0
10
32.275220
20
1.963810
11
32.275220
21
1.879210
0
LINE
8
0
10
32.320220
20
1.879210
11
32.320220
21
1.963810
0
LINE
8
0
10
32.358020
20
1.981810
11
32.358020
21
1.879210
0
LINE
8
0
10
32.390420
20
1.823410
11
32.390420
21
2.019610
0
LINE
8
0
10
32.426420
20
2.019610
11
32.426420
21
1.999810
0
LINE
8
0
10
32.426420
20
1.945810
11
32.426420
21
1.936810
0
LINE
8
0
10
32.428220
20
1.895410
11
32.428220
21
1.823410
0
LINE
8
0
10
32.489420
20
1.940410
11
32.489420
21
1.956610
0
LINE
8
0
62
6
10
32.521991
20
21.238332
11
32.521991
21
20.738332
0
LINE
8
0
10
32.525420
20
1.967410
11
32.525420
21
1.940410
0
LINE
8
0
10
32.550620
20
1.926010
11
32.550620
21
2.019610
0
LINE
8
0
10
30.756970
20
1.978789
11
30.754970
21
1.962789
0
LINE
8
0
10
30.200970
20
1.910789
11
30.196970
21
1.890789
0
LINE
8
0
10
30.360970
20
1.978789
11
30.356970
21
1.962789
0
LINE
8
0
10
30.608970
20
1.978789
11
30.604970
21
1.962789
0
LINE
8
0
10
30.214970
20
1.936789
11
30.220970
21
1.954789
0
LINE
8
0
10
30.182970
20
1.896789
11
30.194970
21
1.906789
0
LINE
8
0
10
30.780970
20
2.000789
11
30.766970
21
1.990789
0
LINE
8
0
10
30.226970
20
1.934789
11
30.210970
21
1.924789
0
LINE
8
0
10
31.936820
20
1.888210
11
31.927820
21
1.882810
0
LINE
8
0
10
30.382970
20
2.000789
11
30.368970
21
1.992789
0
LINE
8
0
10
30.630970
20
2.000789
11
30.616970
21
1.992789
0
LINE
8
0
10
31.902620
20
1.909810
11
31.915220
21
1.917010
0
LINE
8
0
10
31.837820
20
2.057410
11
31.852220
21
2.064610
0
LINE
8
0
10
32.021420
20
2.014210
11
32.028620
21
2.017810
0
LINE
8
0
10
32.287820
20
2.017810
11
32.291420
21
2.019610
0
LINE
8
0
10
32.070020
20
1.904410
11
32.077220
21
1.908010
0
LINE
8
0
10
32.455220
20
2.019610
11
32.458820
21
2.021410
0
LINE
8
0
10
32.449820
20
2.016010
11
32.453420
21
2.017810
0
LINE
8
0
10
32.460620
20
2.021410
11
32.464220
21
2.023210
0
LINE
8
0
10
32.444420
20
2.010610
11
32.448020
21
2.012410
0
LINE
8
0
10
32.466020
20
1.904410
11
32.473220
21
1.908010
0
LINE
8
0
10
32.842220
20
2.017810
11
32.845820
21
2.019610
0
LINE
8
0
10
32.631620
20
1.911610
11
32.635220
21
1.913410
0
LINE
8
0
10
32.622620
20
1.904410
11
32.629820
21
1.908010
0
LINE
8
0
10
32.970020
20
2.014210
11
32.977220
21
2.017810
0
LINE
8
0
10
33.216620
20
2.014210
11
33.223820
21
2.017810
0
LINE
8
0
10
33.018620
20
1.904410
11
33.025820
21
1.908010
0
LINE
8
0
10
33.400220
20
2.014210
11
33.411020
21
2.019610
0
LINE
8
0
10
33.409220
20
1.983610
11
33.398420
21
1.978210
0
LINE
8
0
10
33.265220
20
1.904410
11
33.272420
21
1.908010
0
LINE
8
0
10
33.047420
20
1.884610
11
33.029420
21
1.877410
0
LINE
8
0
10
33.294020
20
1.884610
11
33.276020
21
1.877410
0
LINE
8
0
10
32.874620
20
1.963810
11
32.872820
21
1.976410
0
LINE
8
0
10
32.588420
20
2.019610
11
32.588420
21
1.929610
0
LINE
8
0
10
32.638820
20
1.920610
11
32.638820
21
1.926010
0
LINE
8
0
10
32.640620
20
1.931410
11
32.640620
21
2.019610
0
LINE
8
0
10
32.642420
20
1.879210
11
32.642420
21
1.897210
0
LINE
8
0
10
32.678420
20
2.019610
11
32.678420
21
1.879210
0
LINE
8
0
10
32.710820
20
1.879210
11
32.710820
21
2.019610
0
LINE
8
0
10
32.745020
20
2.019610
11
32.745020
21
1.998010
0
LINE
8
0
10
32.748620
20
1.963810
11
32.748620
21
1.879210
0
LINE
8
0
10
32.791820
20
1.978210
11
32.791820
21
1.981810
0
LINE
8
0
10
32.793620
20
1.879210
11
32.793620
21
1.974610
0
LINE
8
0
10
32.829620
20
1.963810
11
32.829620
21
1.879210
0
LINE
8
0
10
32.874620
20
1.879210
11
32.874620
21
1.963810
0
LINE
8
0
10
32.912420
20
1.981810
11
32.912420
21
1.879210
0
LINE
8
0
10
32.937620
20
1.940410
11
32.937620
21
1.963810
0
LINE
8
0
10
32.975420
20
1.956610
11
32.975420
21
1.940410
0
LINE
8
0
10
33.043820
20
1.940410
11
33.043820
21
1.956610
0
LINE
8
0
10
33.078020
20
1.972810
11
33.078020
21
1.965610
0
LINE
8
0
10
33.079820
20
1.956610
11
33.079820
21
1.938610
0
LINE
8
0
10
33.092420
20
1.994410
11
33.092420
21
2.019610
0
LINE
8
0
10
33.112220
20
1.895410
11
33.112220
21
1.994410
0
LINE
8
0
10
33.112220
20
2.019610
11
33.112220
21
2.057410
0
LINE
8
0
10
33.148220
20
2.057410
11
33.148220
21
2.019610
0
LINE
8
0
10
33.148220
20
1.994410
11
33.148220
21
1.913410
0
LINE
8
0
10
33.150020
20
1.909810
11
33.150020
21
1.906210
0
LINE
8
0
10
33.171620
20
2.019610
11
33.171620
21
1.994410
0
LINE
8
0
10
33.171620
20
1.904410
11
33.171620
21
1.877410
0
LINE
8
0
10
33.184220
20
1.940410
11
33.184220
21
1.963810
0
LINE
8
0
10
33.222020
20
1.956610
11
33.222020
21
1.940410
0
LINE
8
0
10
33.290420
20
1.940410
11
33.290420
21
1.956610
0
LINE
8
0
10
33.324620
20
1.972810
11
33.324620
21
1.965610
0
LINE
8
0
10
33.326420
20
1.956610
11
33.326420
21
1.938610
0
LINE
8
0
10
33.351620
20
1.879210
11
33.351620
21
2.019610
0
LINE
8
0
10
33.385820
20
2.019610
11
33.385820
21
1.994410
0
LINE
8
0
10
33.389420
20
1.953010
11
33.389420
21
1.879210
0
LINE
8
0
10
33.434420
20
2.023210
11
33.434420
21
1.985410
0
LINE
8
0
62
6
10
33.519990
20
-0.261668
11
33.519990
21
21.738332
0
LINE
8
0
62
6
10
33.694989
20
10.839372
11
33.694989
21
10.637292
0
LINE
8
0
6
DOT
62
2
10
33.999991
20
-0.261668
11
33.999991
21
21.738332
0
LINE
8
0
10
34.000000
20
-0.260000
11
34.000000
21
21.740000
0
LINE
8
0
10
32.428220
20
1.965610
11
32.426420
21
1.945810
0
LINE
8
0
10
31.841420
20
1.985410
11
31.839620
21
1.971010
0
LINE
8
0
10
33.391220
20
1.967410
11
33.389420
21
1.953010
0
LINE
8
0
10
31.843220
20
1.998010
11
31.841420
21
1.985410
0
LINE
8
0
10
32.196020
20
1.976410
11
32.194220
21
1.963810
0
LINE
8
0
10
32.277020
20
1.976410
11
32.275220
21
1.963810
0
LINE
8
0
10
32.750420
20
1.976410
11
32.748620
21
1.963810
0
LINE
8
0
10
32.831420
20
1.976410
11
32.829620
21
1.963810
0
LINE
8
0
10
31.800020
20
1.987210
11
31.801820
21
1.998010
0
LINE
8
0
10
31.805420
20
2.007010
11
31.807220
21
2.016010
0
LINE
8
0
10
31.967420
20
1.933210
11
31.965620
21
1.924210
0
LINE
8
0
10
32.028620
20
1.965610
11
32.026820
21
1.956610
0
LINE
8
0
10
32.093420
20
1.931410
11
32.095220
21
1.940410
0
LINE
8
0
10
32.131220
20
1.938610
11
32.127620
21
1.920610
0
LINE
8
0
10
32.487620
20
1.931410
11
32.489420
21
1.940410
0
LINE
8
0
10
32.525420
20
1.940410
11
32.520020
21
1.913410
0
LINE
8
0
10
32.977220
20
1.965610
11
32.975420
21
1.956610
0
LINE
8
0
10
33.042020
20
1.931410
11
33.043820
21
1.940410
0
LINE
8
0
10
33.079820
20
1.938610
11
33.076220
21
1.920610
0
LINE
8
0
10
33.223820
20
1.965610
11
33.222020
21
1.956610
0
LINE
8
0
10
33.288620
20
1.931410
11
33.290420
21
1.940410
0
LINE
8
0
10
33.326420
20
1.938610
11
33.322820
21
1.920610
0
LINE
8
0
10
31.989020
20
1.963810
11
31.992620
21
1.978210
0
LINE
8
0
10
31.996220
20
1.983610
11
31.998020
21
1.990810
0
LINE
8
0
10
32.091620
20
1.924210
11
32.093420
21
1.931410
0
LINE
8
0
10
32.482220
20
1.917010
11
32.484020
21
1.924210
0
LINE
8
0
10
32.937620
20
1.963810
11
32.941220
21
1.978210
0
LINE
8
0
10
32.944820
20
1.983610
11
32.946620
21
1.990810
0
LINE
8
0
10
33.040220
20
1.924210
11
33.042020
21
1.931410
0
LINE
8
0
10
33.184220
20
1.963810
11
33.187820
21
1.978210
0
LINE
8
0
10
33.191420
20
1.983610
11
33.193220
21
1.990810
0
LINE
8
0
10
33.286820
20
1.924210
11
33.288620
21
1.931410
0
LINE
8
0
10
31.924220
20
1.927810
11
31.929620
21
1.944010
0
LINE
8
0
10
31.971020
20
1.944010
11
31.967420
21
1.933210
0
LINE
8
0
10
32.034020
20
1.978210
11
32.032220
21
1.972810
0
LINE
8
0
10
32.638820
20
1.926010
11
32.640620
21
1.931410
0
LINE
8
0
10
32.982620
20
1.978210
11
32.980820
21
1.972810
0
LINE
8
0
10
33.229220
20
1.978210
11
33.227420
21
1.972810
0
LINE
8
0
10
32.433620
20
1.980010
11
32.428220
21
1.965610
0
LINE
8
0
10
31.807220
20
2.016010
11
31.814420
21
2.034010
0
LINE
8
0
10
31.801820
20
1.998010
11
31.805420
21
2.007010
0
LINE
8
0
10
31.965620
20
1.924210
11
31.962020
21
1.915210
0
LINE
8
0
10
32.127620
20
1.920610
11
32.124020
21
1.911610
0
LINE
8
0
10
32.199620
20
1.985410
11
32.196020
21
1.976410
0
LINE
8
0
10
32.754020
20
1.985410
11
32.750420
21
1.976410
0
LINE
8
0
10
33.076220
20
1.920610
11
33.072620
21
1.911610
0
LINE
8
0
10
33.322820
20
1.920610
11
33.319220
21
1.911610
0
LINE
8
0
10
30.206970
20
1.920789
11
30.214970
21
1.936789
0
LINE
8
0
10
31.854020
20
2.019610
11
31.843220
21
1.998010
0
LINE
8
0
10
32.032220
20
1.972810
11
32.028620
21
1.965610
0
LINE
8
0
10
32.088020
20
1.917010
11
32.091620
21
1.924210
0
LINE
8
0
10
32.448020
20
2.012410
11
32.449820
21
2.016010
0
LINE
8
0
10
32.484020
20
1.924210
11
32.487620
21
1.931410
0
LINE
8
0
10
32.520020
20
1.913410
11
32.512820
21
1.899010
0
LINE
8
0
10
32.629820
20
1.908010
11
32.631620
21
1.911610
0
LINE
8
0
10
32.635220
20
1.913410
11
32.638820
21
1.920610
0
LINE
8
0
10
32.980820
20
1.972810
11
32.977220
21
1.965610
0
LINE
8
0
10
33.036620
20
1.917010
11
33.040220
21
1.924210
0
LINE
8
0
10
33.227420
20
1.972810
11
33.223820
21
1.965610
0
LINE
8
0
10
33.283220
20
1.917010
11
33.286820
21
1.924210
0
LINE
8
0
10
33.387620
20
1.996210
11
33.389420
21
1.999810
0
LINE
8
0
10
33.394820
20
2.005210
11
33.396620
21
2.008810
0
LINE
8
0
10
33.398420
20
2.010610
11
33.400220
21
2.014210
0
LINE
8
0
10
30.368970
20
1.992789
11
30.360970
21
1.978789
0
LINE
8
0
10
30.616970
20
1.992789
11
30.608970
21
1.978789
0
LINE
8
0
10
32.282420
20
1.985410
11
32.277020
21
1.976410
0
LINE
8
0
10
32.836820
20
1.985410
11
32.831420
21
1.976410
0
LINE
8
0
10
30.570970
20
1.922789
11
30.620970
21
2.004789
0
LINE
8
0
10
30.550970
20
2.004789
11
30.518970
21
1.952789
0
LINE
8
0
10
31.998020
20
1.990810
11
32.005220
21
2.001610
0
LINE
8
0
10
31.992620
20
1.978210
11
31.996220
21
1.983610
0
LINE
8
0
10
32.271620
20
1.999810
11
32.275220
21
2.005210
0
LINE
8
0
10
32.478620
20
1.911610
11
32.482220
21
1.917010
0
LINE
8
0
10
32.642420
20
1.897210
11
32.638820
21
1.891810
0
LINE
8
0
10
32.826020
20
1.999810
11
32.829620
21
2.005210
0
LINE
8
0
10
32.946620
20
1.990810
11
32.953820
21
2.001610
0
LINE
8
0
10
32.941220
20
1.978210
11
32.944820
21
1.983610
0
LINE
8
0
10
33.193220
20
1.990810
11
33.200420
21
2.001610
0
LINE
8
0
10
33.187820
20
1.978210
11
33.191420
21
1.983610
0
LINE
8
0
10
33.398420
20
1.978210
11
33.391220
21
1.967410
0
LINE
8
0
10
30.210970
20
1.924789
11
30.200970
21
1.910789
0
LINE
8
0
10
31.814420
20
2.034010
11
31.819820
21
2.041210
0
LINE
8
0
10
31.962020
20
1.915210
11
31.951220
21
1.900810
0
LINE
8
0
10
32.124020
20
1.911610
11
32.113220
21
1.897210
0
LINE
8
0
10
32.512820
20
1.899010
11
32.507420
21
1.891810
0
LINE
8
0
10
33.072620
20
1.911610
11
33.061820
21
1.897210
0
LINE
8
0
10
33.319220
20
1.911610
11
33.308420
21
1.897210
0
LINE
8
0
10
31.861220
20
2.028610
11
31.854020
21
2.019610
0
LINE
8
0
10
32.192420
20
1.999810
11
32.199620
21
2.008810
0
LINE
8
0
10
32.746820
20
1.999810
11
32.754020
21
2.008810
0
LINE
8
0
10
30.766970
20
1.990789
11
30.756970
21
1.978789
0
LINE
8
0
10
31.915220
20
1.917010
11
31.924220
21
1.927810
0
LINE
8
0
10
30.194970
20
1.906789
11
30.206970
21
1.920789
0
LINE
8
0
10
31.819820
20
2.041210
11
31.830620
21
2.052010
0
LINE
8
0
10
32.010620
20
2.005210
11
32.016020
21
2.010610
0
LINE
8
0
10
31.951220
20
1.900810
11
31.944020
21
1.893610
0
LINE
8
0
10
32.044820
20
1.989010
11
32.034020
21
1.978210
0
LINE
8
0
10
32.082620
20
1.911610
11
32.088020
21
1.917010
0
LINE
8
0
10
32.199620
20
2.008810
11
32.208620
21
2.017810
0
LINE
8
0
10
32.190620
20
1.998010
11
32.192420
21
1.999810
0
LINE
8
0
10
32.113220
20
1.897210
11
32.106020
21
1.890010
0
LINE
8
0
10
32.275220
20
2.005210
11
32.287820
21
2.017810
0
LINE
8
0
10
32.433620
20
1.999810
11
32.444420
21
2.010610
0
LINE
8
0
10
32.453420
20
2.017810
11
32.455220
21
2.019610
0
LINE
8
0
10
32.442620
20
1.989010
11
32.433620
21
1.980010
0
LINE
8
0
10
32.507420
20
1.891810
11
32.502020
21
1.886410
0
LINE
8
0
10
32.633420
20
1.888210
11
32.629820
21
1.884610
0
LINE
8
0
10
32.754020
20
2.008810
11
32.763020
21
2.017810
0
LINE
8
0
10
32.745020
20
1.998010
11
32.746820
21
1.999810
0
LINE
8
0
10
32.829620
20
2.005210
11
32.842220
21
2.017810
0
LINE
8
0
10
32.959220
20
2.005210
11
32.964620
21
2.010610
0
LINE
8
0
10
32.993420
20
1.989010
11
32.982620
21
1.978210
0
LINE
8
0
10
33.031220
20
1.911610
11
33.036620
21
1.917010
0
LINE
8
0
10
33.061820
20
1.897210
11
33.054620
21
1.890010
0
LINE
8
0
10
33.205820
20
2.005210
11
33.211220
21
2.010610
0
LINE
8
0
10
33.240020
20
1.989010
11
33.229220
21
1.978210
0
LINE
8
0
10
33.277820
20
1.911610
11
33.283220
21
1.917010
0
LINE
8
0
10
33.396620
20
2.008810
11
33.398420
21
2.010610
0
LINE
8
0
10
33.389420
20
1.999810
11
33.394820
21
2.005210
0
LINE
8
0
10
33.385820
20
1.994410
11
33.387620
21
1.996210
0
LINE
8
0
10
33.308420
20
1.897210
11
33.301220
21
1.890010
0
LINE
8
0
10
31.830620
20
2.052010
11
31.837820
21
2.057410
0
LINE
8
0
10
31.868420
20
2.034010
11
31.861220
21
2.028610
0
LINE
8
0
10
31.944020
20
1.893610
11
31.936820
21
1.888210
0
LINE
8
0
10
32.206820
20
1.990810
11
32.199620
21
1.985410
0
LINE
8
0
10
32.106020
20
1.890010
11
32.098820
21
1.884610
0
LINE
8
0
10
32.289620
20
1.990810
11
32.282420
21
1.985410
0
LINE
8
0
10
32.502020
20
1.886410
11
32.494820
21
1.881010
0
LINE
8
0
10
32.761220
20
1.990810
11
32.754020
21
1.985410
0
LINE
8
0
10
32.844020
20
1.990810
11
32.836820
21
1.985410
0
LINE
8
0
10
33.054620
20
1.890010
11
33.047420
21
1.884610
0
LINE
8
0
10
33.301220
20
1.890010
11
33.294020
21
1.884610
0
LINE
8
0
10
32.016020
20
2.010610
11
32.021420
21
2.014210
0
LINE
8
0
10
32.005220
20
2.001610
11
32.010620
21
2.005210
0
LINE
8
0
10
32.077220
20
1.908010
11
32.082620
21
1.911610
0
LINE
8
0
10
32.473220
20
1.908010
11
32.478620
21
1.911610
0
LINE
8
0
10
32.638820
20
1.891810
11
32.633420
21
1.888210
0
LINE
8
0
10
32.629820
20
1.884610
11
32.624420
21
1.881010
0
LINE
8
0
10
32.964620
20
2.010610
11
32.970020
21
2.014210
0
LINE
8
0
10
32.953820
20
2.001610
11
32.959220
21
2.005210
0
LINE
8
0
10
33.025820
20
1.908010
11
33.031220
21
1.911610
0
LINE
8
0
10
33.211220
20
2.010610
11
33.216620
21
2.014210
0
LINE
8
0
10
33.200420
20
2.001610
11
33.205820
21
2.005210
0
LINE
8
0
10
33.272420
20
1.908010
11
33.277820
21
1.911610
0
LINE
8
0
62
2
10
16.169640
20
2.157864
11
15.919640
21
2.157864
0
LINE
8
0
10
20.577658
20
2.813116
11
18.295658
21
2.813116
0
LINE
8
0
10
20.707658
20
3.613116
11
18.165658
21
3.613116
0
LINE
8
0
10
18.188826
20
3.765071
11
18.190373
21
3.765021
0
LINE
8
0
10
18.187303
20
3.765129
11
18.188826
21
3.765071
0
POLYLINE
8
0
66
1
70
0
0
VERTEX
8
0
10
18.193878
20
3.771226
0
VERTEX
8
0
10
18.205238
20
3.770766
0
VERTEX
8
0
10
18.216653
20
3.770611
0
VERTEX
8
0
10
18.228070
20
3.770766
0
VERTEX
8
0
10
18.239308
20
3.771221
0
SEQEND
0
LINE
8
0
10
18.242025
20
3.765071
11
18.242942
21
3.765021
0
LINE
8
0
10
18.241120
20
3.765129
11
18.242025
21
3.765071
0
LINE
8
0
10
18.179851
20
3.765801
11
18.187303
21
3.765129
0
LINE
8
0
10
18.172008
20
3.766671
11
18.179851
21
3.765801
0
LINE
8
0
10
18.163529
20
3.767803
11
18.172008
21
3.766671
0
LINE
8
0
10
18.154194
20
3.769282
11
18.163529
21
3.767803
0
LINE
8
0
10
18.143764
20
3.771226
11
18.154194
21
3.769282
0
LINE
8
0
10
18.295658
20
17.813116
11
18.165658
21
17.683116
0
LINE
8
0
10
18.279121
20
3.769282
11
18.289551
21
3.771226
0
LINE
8
0
10
18.269786
20
3.767803
11
18.279121
21
3.769282
0
LINE
8
0
10
18.261307
20
3.766671
11
18.269786
21
3.767803
0
LINE
8
0
10
18.253464
20
3.765801
11
18.261307
21
3.766671
0
LINE
8
0
10
18.246012
20
3.765129
11
18.253464
21
3.765801
0
LINE
8
0
10
18.191290
20
3.765071
11
18.192196
21
3.765129
0
LINE
8
0
10
18.190373
20
3.765021
11
18.191290
21
3.765071
0
POLYLINE
8
0
66
1
70
0
0
VERTEX
8
0
10
20.269551
20
4.245337
0
VERTEX
8
0
10
20.259111
20
4.244791
0
VERTEX
8
0
10
20.249729
20
4.244380
0
VERTEX
8
0
10
20.241209
20
4.244068
0
VERTEX
8
0
10
20.233366
20
4.243833
0
VERTEX
8
0
10
20.226012
20
4.243654
0
SEQEND
0
LINE
8
0
10
18.244490
20
3.765071
11
18.246012
21
3.765129
0
POLYLINE
8
0
66
1
70
0
0
VERTEX
8
0
10
20.219437
20
4.195223
0
VERTEX
8
0
10
20.208077
20
4.194807
0
VERTEX
8
0
10
20.196662
20
4.194668
0
VERTEX
8
0
10
20.185245
20
4.194807
0
VERTEX
8
0
10
20.173878
20
4.195223
0
SEQEND
0
POLYLINE
8
0
66
1
70
0
0
VERTEX
8
0
10
18.699437
20
4.195223
0
VERTEX
8
0
10
18.688077
20
4.194807
0
VERTEX
8
0
10
18.676662
20
4.194668
0
VERTEX
8
0
10
18.665245
20
4.194807
0
VERTEX
8
0
10
18.653878
20
4.195223
0
SEQEND
0
LINE
8
0
10
18.242942
20
3.765021
11
18.244490
21
3.765071
0
LINE
8
0
10
18.349158
20
3.788116
11
18.084158
21
3.788116
0
LINE
8
0
10
18.076658
20
3.848116
11
18.356658
21
3.848116
0
LINE
8
0
10
18.026658
20
3.868116
11
20.856658
21
3.868116
0
LINE
8
0
10
20.856658
20
3.918116
11
18.467658
21
3.918116
0
LINE
8
0
10
18.026658
20
3.918116
11
18.396658
21
3.918116
0
LINE
8
0
10
20.781658
20
3.933116
11
18.091658
21
3.933116
0
LINE
8
0
10
17.986658
20
4.038116
11
18.001658
21
4.038116
0
POLYLINE
8
0
66
1
70
0
0
VERTEX
8
0
10
18.647303
20
4.243654
0
VERTEX
8
0
10
18.639749
20
4.243838
0
VERTEX
8
0
10
18.631900
20
4.244075
0
VERTEX
8
0
10
18.623466
20
4.244384
0
VERTEX
8
0
10
18.614182
20
4.244792
0
VERTEX
8
0
10
18.603764
20
4.245337
0
SEQEND
0
LINE
8
0
10
18.295658
20
2.813116
11
18.165658
21
2.943116
0
LINE
8
0
10
18.647303
20
16.382578
11
18.650373
21
16.384400
0
LINE
8
0
10
18.706012
20
16.333654
11
18.702942
21
16.331832
0
LINE
8
0
10
18.603764
20
16.335337
11
18.749551
21
16.380895
0
LINE
8
0
10
20.123764
20
16.335337
11
20.269551
21
16.380895
0
POLYLINE
8
0
66
1
70
0
0
VERTEX
8
0
10
20.123764
20
4.290895
0
VERTEX
8
0
10
20.134204
20
4.291441
0
VERTEX
8
0
10
20.143586
20
4.291853
0
VERTEX
8
0
10
20.152106
20
4.292164
0
VERTEX
8
0
10
20.159949
20
4.292400
0
VERTEX
8
0
10
20.167303
20
4.292578
0
SEQEND
0
POLYLINE
8
0
66
1
70
0
0
VERTEX
8
0
10
18.749551
20
4.245337
0
VERTEX
8
0
10
18.739111
20
4.244791
0
VERTEX
8
0
10
18.729729
20
4.244380
0
VERTEX
8
0
10
18.721209
20
4.244068
0
VERTEX
8
0
10
18.713366
20
4.243833
0
VERTEX
8
0
10
18.706012
20
4.243654
0
SEQEND
0
POLYLINE
8
0
66
1
70
0
0
VERTEX
8
0
10
18.603764
20
4.290895
0
VERTEX
8
0
10
18.614204
20
4.291441
0
VERTEX
8
0
10
18.623586
20
4.291853
0
VERTEX
8
0
10
18.632106
20
4.292164
0
VERTEX
8
0
10
18.639949
20
4.292400
0
VERTEX
8
0
10
18.647303
20
4.292578
0
SEQEND
0
POLYLINE
8
0
66
1
70
0
0
VERTEX
8
0
10
20.173878
20
4.341009
0
VERTEX
8
0
10
20.185238
20
4.341425
0
VERTEX
8
0
10
20.196653
20
4.341564
0
VERTEX
8
0
10
20.208070
20
4.341425
0
VERTEX
8
0
10
20.219437
20
4.341009
0
SEQEND
0
POLYLINE
8
0
66
1
70
0
0
VERTEX
8
0
10
18.653878
20
4.341009
0
VERTEX
8
0
10
18.665238
20
4.341425
0
VERTEX
8
0
10
18.676653
20
4.341564
0
VERTEX
8
0
10
18.688070
20
4.341425
0
VERTEX
8
0
10
18.699437
20
4.341009
0
SEQEND
0
LINE
8
0
10
18.001658
20
4.578116
11
17.986658
21
4.578116
0
LINE
8
0
10
20.886658
20
4.643116
11
20.871658
21
4.643116
0
LINE
8
0
10
20.886658
20
4.728116
11
20.871658
21
4.728116
0
POLYLINE
8
0
66
1
70
0
0
VERTEX
8
0
10
20.167303
20
4.243654
0
VERTEX
8
0
10
20.159749
20
4.243838
0
VERTEX
8
0
10
20.151900
20
4.244075
0
VERTEX
8
0
10
20.143466
20
4.244384
0
VERTEX
8
0
10
20.134182
20
4.244792
0
VERTEX
8
0
10
20.123764
20
4.245337
0
SEQEND
0
POLYLINE
8
0
66
1
70
0
0
VERTEX
8
0
10
18.706012
20
4.292578
0
VERTEX
8
0
10
18.713566
20
4.292394
0
VERTEX
8
0
10
18.721415
20
4.292157
0
VERTEX
8
0
10
18.729849
20
4.291848
0
VERTEX
8
0
10
18.739133
20
4.291440
0
VERTEX
8
0
10
18.749551
20
4.290895
0
SEQEND
0
POLYLINE
8
0
66
1
70
0
0
VERTEX
8
0
10
20.226012
20
4.292578
0
VERTEX
8
0
10
20.233566
20
4.292394
0
VERTEX
8
0
10
20.241415
20
4.292157
0
VERTEX
8
0
10
20.249849
20
4.291848
0
VERTEX
8
0
10
20.259133
20
4.291440
0
VERTEX
8
0
10
20.269551
20
4.290895
0
SEQEND
0
LINE
8
0
10
18.603764
20
4.290895
11
18.749551
21
4.245337
0
LINE
8
0
10
20.123764
20
4.290895
11
20.269551
21
4.245337
0
LINE
8
0
10
18.650373
20
4.241832
11
18.647303
21
4.243654
0
LINE
8
0
10
18.702942
20
4.294400
11
18.706012
21
4.292578
0
LINE
8
0
10
18.290106
20
16.855621
11
18.289551
21
16.855006
0
LINE
8
0
10
18.446658
20
16.758116
11
18.396658
21
16.708116
0
LINE
8
0
10
18.452368
20
16.693116
11
18.467368
21
16.708116
0
LINE
8
0
10
18.647303
20
16.333654
11
18.706012
21
16.382578
0
LINE
8
0
10
20.886658
20
5.008116
11
20.871658
21
5.008116
0
LINE
8
0
10
18.647303
20
4.292578
11
18.706012
21
4.243654
0
LINE
8
0
10
18.396658
20
3.918116
11
18.446658
21
3.868116
0
LINE
8
0
10
18.467441
20
3.918044
11
18.452368
21
3.933116
0
LINE
8
0
10
18.289551
20
3.771226
11
18.290106
21
3.770611
0
LINE
8
0
10
19.195106
20
16.855621
11
19.194551
21
16.855006
0
LINE
8
0
10
18.650373
20
16.331832
11
18.702942
21
16.384400
0
LINE
8
0
10
20.167303
20
16.382578
11
20.170373
21
16.384400
0
LINE
8
0
10
20.226012
20
16.333654
11
20.222942
21
16.331832
0
LINE
8
0
10
20.170373
20
4.241832
11
20.167303
21
4.243654
0
LINE
8
0
10
20.222942
20
4.294400
11
20.226012
21
4.292578
0
LINE
8
0
10
18.650373
20
4.294400
11
18.702942
21
4.241832
0
LINE
8
0
10
18.652196
20
16.328762
11
18.701120
21
16.387471
0
LINE
8
0
10
20.167303
20
16.333654
11
20.226012
21
16.382578
0
LINE
8
0
10
20.167303
20
4.292578
11
20.226012
21
4.243654
0
LINE
8
0
10
18.652196
20
4.297471
11
18.701120
21
4.238762
0
LINE
8
0
10
18.650373
20
16.384400
11
18.652196
21
16.387471
0
LINE
8
0
10
18.702942
20
16.331832
11
18.701120
21
16.328762
0
LINE
8
0
10
20.493106
20
16.905621
11
20.492551
21
16.905006
0
LINE
8
0
10
20.170373
20
16.331832
11
20.222942
21
16.384400
0
LINE
8
0
10
20.676658
20
16.708116
11
20.661658
21
16.693116
0
LINE
8
0
10
20.170373
20
4.294400
11
20.222942
21
4.241832
0
LINE
8
0
10
18.652196
20
4.238762
11
18.650373
21
4.241832
0
LINE
8
0
10
18.701120
20
4.297471
11
18.702942
21
4.294400
0
LINE
8
0
10
20.172196
20
16.328762
11
20.221120
21
16.387471
0
LINE
8
0
10
20.871658
20
16.478852
11
20.886658
21
16.493852
0
LINE
8
0
10
20.886658
20
4.132380
11
20.871658
21
4.147380
0
LINE
8
0
10
20.172196
20
4.297471
11
20.221120
21
4.238762
0
LINE
8
0
10
18.241120
20
16.861103
11
18.240549
21
16.859002
0
LINE
8
0
10
18.240549
20
16.859002
11
18.239437
21
16.855006
0
LINE
8
0
10
18.653878
20
16.285223
11
18.699437
21
16.431009
0
LINE
8
0
10
18.699437
20
4.195223
11
18.653878
21
4.341009
0
LINE
8
0
10
18.239437
20
3.771226
11
18.240564
21
3.767176
0
LINE
8
0
10
18.240564
20
3.767176
11
18.241120
21
3.765129
0
LINE
8
0
10
19.146120
20
16.861103
11
19.145547
21
16.858996
0
LINE
8
0
10
19.145547
20
16.858996
11
19.144437
21
16.855006
0
LINE
8
0
10
20.170373
20
16.384400
11
20.172196
21
16.387471
0
LINE
8
0
10
20.222942
20
16.331832
11
20.221120
21
16.328762
0
LINE
8
0
10
20.172196
20
4.238762
11
20.170373
21
4.241832
0
LINE
8
0
10
20.221120
20
4.297471
11
20.222942
21
4.294400
0
LINE
8
0
10
17.936658
20
16.668116
11
17.936658
21
3.958116
0
POLYLINE
8
0
66
1
70
0
0
VERTEX
8
0
10
18.653878
20
4.195223
0
VERTEX
8
0
10
18.653221
20
4.208038
0
VERTEX
8
0
10
18.652752
20
4.219486
0
VERTEX
8
0
10
18.652421
20
4.229693
0
VERTEX
8
0
10
18.652196
20
4.238762
0
SEQEND
0
POLYLINE
8
0
66
1
70
0
0
VERTEX
8
0
10
18.699437
20
4.341009
0
VERTEX
8
0
10
18.700094
20
4.328195
0
VERTEX
8
0
10
18.700564
20
4.316746
0
VERTEX
8
0
10
18.700894
20
4.306540
0
VERTEX
8
0
10
18.701120
20
4.297471
0
SEQEND
0
POLYLINE
8
0
66
1
70
0
0
VERTEX
8
0
10
18.603764
20
4.245337
0
VERTEX
8
0
10
18.603460
20
4.252805
0
VERTEX
8
0
10
18.603273
20
4.260388
0
VERTEX
8
0
10
18.603209
20
4.268116
0
SEQEND
0
LINE
8
0
10
17.986658
20
3.958116
11
17.986658
21
16.668116
0
LINE
8
0
10
18.001658
20
4.023116
11
18.001658
21
16.603116
0
LINE
8
0
10
18.056658
20
16.708116
11
18.056658
21
16.685051
0
LINE
8
0
10
18.056658
20
3.941182
11
18.056658
21
3.918116
0
LINE
8
0
10
18.076658
20
16.778116
11
18.076658
21
16.758116
0
LINE
8
0
10
18.076658
20
3.848116
11
18.076658
21
3.868116
0
LINE
8
0
10
18.084158
20
3.848116
11
18.084158
21
3.788116
0
LINE
8
0
10
18.084158
20
16.778116
11
18.084158
21
16.838116
0
LINE
8
0
10
18.165658
20
2.943116
11
18.165658
21
3.767518
0
LINE
8
0
10
18.165658
20
16.858714
11
18.165658
21
17.683116
0
LINE
8
0
10
18.349158
20
3.848116
11
18.349158
21
3.788116
0
LINE
8
0
10
18.349158
20
16.778116
11
18.349158
21
16.838116
0
LINE
8
0
10
18.356658
20
16.778116
11
18.356658
21
16.758116
0
LINE
8
0
10
18.356658
20
3.848116
11
18.356658
21
3.868116
0
LINE
8
0
10
18.366658
20
3.868116
11
18.366658
21
3.918116
0
LINE
8
0
10
18.366658
20
16.708116
11
18.366658
21
16.758116
0
LINE
8
0
10
18.467658
20
16.758116
11
18.467658
21
16.708116
0
LINE
8
0
10
18.467658
20
3.918116
11
18.467658
21
3.868116
0
LINE
8
0
10
20.173878
20
16.285223
11
20.219437
21
16.431009
0
LINE
8
0
10
20.219437
20
4.195223
11
20.173878
21
4.341009
0
POLYLINE
8
0
66
1
70
0
0
VERTEX
8
0
10
18.653878
20
16.285223
0
VERTEX
8
0
10
18.653221
20
16.298038
0
VERTEX
8
0
10
18.652752
20
16.309486
0
VERTEX
8
0
10
18.652421
20
16.319693
0
VERTEX
8
0
10
18.652196
20
16.328762
0
SEQEND
0
POLYLINE
8
0
66
1
70
0
0
VERTEX
8
0
10
18.749551
20
4.290895
0
VERTEX
8
0
10
18.749855
20
4.283428
0
VERTEX
8
0
10
18.750042
20
4.275844
0
VERTEX
8
0
10
18.750106
20
4.268116
0
SEQEND
0
POLYLINE
8
0
66
1
70
0
0
VERTEX
8
0
10
18.603764
20
16.335337
0
VERTEX
8
0
10
18.603460
20
16.342805
0
VERTEX
8
0
10
18.603273
20
16.350388
0
VERTEX
8
0
10
18.603209
20
16.358116
0
SEQEND
0
LINE
8
0
10
18.521658
20
3.918116
11
18.521658
21
3.933116
0
LINE
8
0
10
18.560658
20
16.708116
11
18.560658
21
16.693116
0
LINE
8
0
10
18.578658
20
17.634116
11
18.578658
21
17.552449
0
LINE
8
0
10
18.607658
20
3.384116
11
18.607658
21
3.302449
0
LINE
8
0
10
18.772658
20
16.708116
11
18.772658
21
16.693116
0
LINE
8
0
10
18.794658
20
17.552449
11
18.794658
21
17.634116
0
LINE
8
0
10
18.801658
20
3.918116
11
18.801658
21
3.933116
0
LINE
8
0
10
18.823658
20
3.302449
11
18.823658
21
3.384116
0
LINE
8
0
10
18.973158
20
16.758116
11
18.973158
21
16.768782
0
LINE
8
0
10
18.981658
20
16.778116
11
18.981658
21
16.758116
0
LINE
8
0
10
18.989158
20
16.778116
11
18.989158
21
16.838116
0
POLYLINE
8
0
66
1
70
0
0
VERTEX
8
0
10
18.603209
20
16.358116
0
VERTEX
8
0
10
18.603273
20
16.365841
0
VERTEX
8
0
10
18.603460
20
16.373424
0
VERTEX
8
0
10
18.603764
20
16.380895
0
SEQEND
0
POLYLINE
8
0
66
1
70
0
0
VERTEX
8
0
10
18.603209
20
4.268116
0
VERTEX
8
0
10
18.603273
20
4.275841
0
VERTEX
8
0
10
18.603460
20
4.283424
0
VERTEX
8
0
10
18.603764
20
4.290895
0
SEQEND
0
POLYLINE
8
0
66
1
70
0
0
VERTEX
8
0
10
18.750106
20
16.358116
0
VERTEX
8
0
10
18.750042
20
16.350391
0
VERTEX
8
0
10
18.749855
20
16.342809
0
VERTEX
8
0
10
18.749551
20
16.335337
0
SEQEND
0
POLYLINE
8
0
66
1
70
0
0
VERTEX
8
0
10
18.750106
20
4.268116
0
VERTEX
8
0
10
18.750042
20
4.260391
0
VERTEX
8
0
10
18.749855
20
4.252809
0
VERTEX
8
0
10
18.749551
20
4.245337
0
SEQEND
0
POLYLINE
8
0
66
1
70
0
0
VERTEX
8
0
10
18.652196
20
16.387471
0
VERTEX
8
0
10
18.652432
20
16.396898
0
VERTEX
8
0
10
18.652766
20
16.407148
0
VERTEX
8
0
10
18.653233
20
16.418444
0
VERTEX
8
0
10
18.653878
20
16.431009
0
SEQEND
0
POLYLINE
8
0
66
1
70
0
0
VERTEX
8
0
10
18.701120
20
16.328762
0
VERTEX
8
0
10
18.700883
20
16.319335
0
VERTEX
8
0
10
18.700549
20
16.309084
0
VERTEX
8
0
10
18.700082
20
16.297789
0
VERTEX
8
0
10
18.699437
20
16.285223
0
SEQEND
0
POLYLINE
8
0
66
1
70
0
0
VERTEX
8
0
10
18.652196
20
4.297471
0
VERTEX
8
0
10
18.652432
20
4.306898
0
VERTEX
8
0
10
18.652766
20
4.317148
0
VERTEX
8
0
10
18.653233
20
4.328444
0
VERTEX
8
0
10
18.653878
20
4.341009
0
SEQEND
0
POLYLINE
8
0
66
1
70
0
0
VERTEX
8
0
10
18.701120
20
4.238762
0
VERTEX
8
0
10
18.700883
20
4.229335
0
VERTEX
8
0
10
18.700549
20
4.219084
0
VERTEX
8
0
10
18.700082
20
4.207789
0
VERTEX
8
0
10
18.699437
20
4.195223
0
SEQEND
0
LINE
8
0
10
19.991170
20
16.758994
11
20.009158
21
16.871416
0
LINE
8
0
10
20.444120
20
16.911103
11
20.443549
21
16.909002
0
LINE
8
0
10
20.443549
20
16.909002
11
20.442437
21
16.905006
0
POLYLINE
8
0
66
1
70
0
0
VERTEX
8
0
10
18.699437
20
16.431009
0
VERTEX
8
0
10
18.700094
20
16.418195
0
VERTEX
8
0
10
18.700564
20
16.406746
0
VERTEX
8
0
10
18.700894
20
16.396540
0
VERTEX
8
0
10
18.701120
20
16.387471
0
SEQEND
0
POLYLINE
8
0
66
1
70
0
0
VERTEX
8
0
10
18.749551
20
16.380895
0
VERTEX
8
0
10
18.749855
20
16.373428
0
VERTEX
8
0
10
18.750042
20
16.365844
0
VERTEX
8
0
10
18.750106
20
16.358116
0
SEQEND
0
LINE
8
0
10
19.015658
20
16.708116
11
19.015658
21
16.693116
0
LINE
8
0
10
19.227658
20
16.708116
11
19.227658
21
16.693116
0
LINE
8
0
10
19.254158
20
16.778116
11
19.254158
21
16.838116
0
LINE
8
0
10
19.261658
20
16.778116
11
19.261658
21
16.758116
0
LINE
8
0
10
19.270158
20
16.758116
11
19.270158
21
16.768782
0
POLYLINE
8
0
66
1
70
0
0
VERTEX
8
0
10
20.173878
20
4.195223
0
VERTEX
8
0
10
20.173221
20
4.208038
0
VERTEX
8
0
10
20.172752
20
4.219486
0
VERTEX
8
0
10
20.172421
20
4.229693
0
VERTEX
8
0
10
20.172196
20
4.238762
0
SEQEND
0
POLYLINE
8
0
66
1
70
0
0
VERTEX
8
0
10
20.219437
20
4.341009
0
VERTEX
8
0
10
20.220094
20
4.328195
0
VERTEX
8
0
10
20.220564
20
4.316746
0
VERTEX
8
0
10
20.220894
20
4.306540
0
VERTEX
8
0
10
20.221120
20
4.297471
0
SEQEND
0
POLYLINE
8
0
66
1
70
0
0
VERTEX
8
0
10
20.123764
20
4.245337
0
VERTEX
8
0
10
20.123460
20
4.252805
0
VERTEX
8
0
10
20.123273
20
4.260388
0
VERTEX
8
0
10
20.123209
20
4.268116
0
SEQEND
0
LINE
8
0
10
19.886658
20
3.933116
11
19.886658
21
3.918116
0
LINE
8
0
10
19.886658
20
16.693116
11
19.886658
21
16.708116
0
LINE
8
0
10
18.192196
20
3.765129
11
18.192766
21
3.767230
0
LINE
8
0
10
18.192766
20
3.767230
11
18.193878
21
3.771226
0
LINE
8
0
10
18.193878
20
16.855006
11
18.192752
21
16.859056
0
LINE
8
0
10
18.192752
20
16.859056
11
18.192196
21
16.861103
0
POLYLINE
8
0
66
1
70
0
0
VERTEX
8
0
10
20.173878
20
16.285223
0
VERTEX
8
0
10
20.173221
20
16.298038
0
VERTEX
8
0
10
20.172752
20
16.309486
0
VERTEX
8
0
10
20.172421
20
16.319693
0
VERTEX
8
0
10
20.172196
20
16.328762
0
SEQEND
0
POLYLINE
8
0
66
1
70
0
0
VERTEX
8
0
10
20.269551
20
4.290895
0
VERTEX
8
0
10
20.269855
20
4.283428
0
VERTEX
8
0
10
20.270042
20
4.275844
0
VERTEX
8
0
10
20.270106
20
4.268116
0
SEQEND
0
POLYLINE
8
0
66
1
70
0
0
VERTEX
8
0
10
20.123764
20
16.335337
0
VERTEX
8
0
10
20.123460
20
16.342805
0
VERTEX
8
0
10
20.123273
20
16.350388
0
VERTEX
8
0
10
20.123209
20
16.358116
0
SEQEND
0
POLYLINE
8
0
66
1
70
0
0
VERTEX
8
0
10
20.269551
20
16.380895
0
VERTEX
8
0
10
20.269855
20
16.373428
0
VERTEX
8
0
10
20.270042
20
16.365844
0
VERTEX
8
0
10
20.270106
20
16.358116
0
SEQEND
0
LINE
8
0
10
20.078658
20
17.634116
11
20.078658
21
17.552449
0
LINE
8
0
10
20.107658
20
3.384116
11
20.107658
21
3.302449
0
LINE
8
0
10
20.144658
20
16.808116
11
20.144658
21
16.758116
0
LINE
8
0
10
20.279658
20
16.828116
11
20.279658
21
16.808116
0
LINE
8
0
10
20.287158
20
16.828116
11
20.287158
21
16.888116
0
LINE
8
0
10
20.294658
20
17.552449
11
20.294658
21
17.634116
0
LINE
8
0
10
20.323658
20
3.302449
11
20.323658
21
3.384116
0
LINE
8
0
10
20.506658
20
3.933116
11
20.506658
21
3.918116
0
LINE
8
0
10
20.506658
20
16.693116
11
20.506658
21
16.708116
0
POLYLINE
8
0
66
1
70
0
0
VERTEX
8
0
10
20.123209
20
16.358116
0
VERTEX
8
0
10
20.123273
20
16.365841
0
VERTEX
8
0
10
20.123460
20
16.373424
0
VERTEX
8
0
10
20.123764
20
16.380895
0
SEQEND
0
POLYLINE
8
0
66
1
70
0
0
VERTEX
8
0
10
20.123209
20
4.268116
0
VERTEX
8
0
10
20.123273
20
4.275841
0
VERTEX
8
0
10
20.123460
20
4.283424
0
VERTEX
8
0
10
20.123764
20
4.290895
0
SEQEND
0
POLYLINE
8
0
66
1
70
0
0
VERTEX
8
0
10
20.270106
20
16.358116
0
VERTEX
8
0
10
20.270042
20
16.350391
0
VERTEX
8
0
10
20.269855
20
16.342809
0
VERTEX
8
0
10
20.269551
20
16.335337
0
SEQEND
0
POLYLINE
8
0
66
1
70
0
0
VERTEX
8
0
10
20.270106
20
4.268116
0
VERTEX
8
0
10
20.270042
20
4.260391
0
VERTEX
8
0
10
20.269855
20
4.252809
0
VERTEX
8
0
10
20.269551
20
4.245337
0
SEQEND
0
POLYLINE
8
0
66
1
70
0
0
VERTEX
8
0
10
20.172196
20
16.387471
0
VERTEX
8
0
10
20.172432
20
16.396898
0
VERTEX
8
0
10
20.172766
20
16.407148
0
VERTEX
8
0
10
20.173233
20
16.418444
0
VERTEX
8
0
10
20.173878
20
16.431009
0
SEQEND
0
POLYLINE
8
0
66
1
70
0
0
VERTEX
8
0
10
20.221120
20
16.328762
0
VERTEX
8
0
10
20.220883
20
16.319335
0
VERTEX
8
0
10
20.220549
20
16.309084
0
VERTEX
8
0
10
20.220082
20
16.297789
0
VERTEX
8
0
10
20.219437
20
16.285223
0
SEQEND
0
POLYLINE
8
0
66
1
70
0
0
VERTEX
8
0
10
20.172196
20
4.297471
0
VERTEX
8
0
10
20.172432
20
4.306898
0
VERTEX
8
0
10
20.172766
20
4.317148
0
VERTEX
8
0
10
20.173233
20
4.328444
0
VERTEX
8
0
10
20.173878
20
4.341009
0
SEQEND
0
POLYLINE
8
0
66
1
70
0
0
VERTEX
8
0
10
20.221120
20
4.238762
0
VERTEX
8
0
10
20.220883
20
4.229335
0
VERTEX
8
0
10
20.220549
20
4.219084
0
VERTEX
8
0
10
20.220082
20
4.207789
0
VERTEX
8
0
10
20.219437
20
4.195223
0
SEQEND
0
LINE
8
0
10
18.653878
20
4.195223
11
18.699437
21
4.341009
0
LINE
8
0
10
18.699437
20
16.285223
11
18.653878
21
16.431009
0
POLYLINE
8
0
66
1
70
0
0
VERTEX
8
0
10
20.219437
20
16.431009
0
VERTEX
8
0
10
20.220094
20
16.418195
0
VERTEX
8
0
10
20.220564
20
16.406746
0
VERTEX
8
0
10
20.220894
20
16.396540
0
VERTEX
8
0
10
20.221120
20
16.387471
0
SEQEND
0
LINE
8
0
10
20.552158
20
16.828116
11
20.552158
21
16.888116
0
LINE
8
0
10
20.559658
20
16.828116
11
20.559658
21
16.808116
0
LINE
8
0
10
20.559658
20
16.708116
11
20.559658
21
16.693116
0
LINE
8
0
10
20.694658
20
16.758116
11
20.694658
21
16.808116
0
LINE
8
0
10
20.707658
20
2.943116
11
20.707658
21
3.788116
0
LINE
8
0
10
20.707658
20
16.838116
11
20.707658
21
17.683116
0
LINE
8
0
10
20.771658
20
3.918116
11
20.771658
21
3.933116
0
LINE
8
0
10
20.871658
20
4.023116
11
20.871658
21
16.603116
0
LINE
8
0
10
20.886658
20
16.678116
11
20.886658
21
3.948116
0
LINE
8
0
10
20.936658
20
3.948116
11
20.936658
21
16.678116
0
LINE
8
0
10
20.939158
20
16.402113
11
20.939158
21
16.264119
0
LINE
8
0
10
20.939158
20
9.577116
11
20.939158
21
9.439116
0
LINE
8
0
10
20.939158
20
4.937113
11
20.939158
21
4.799119
0
LINE
8
0
10
19.098878
20
16.855006
11
19.097758
21
16.859032
0
LINE
8
0
10
19.097758
20
16.859032
11
19.097196
21
16.861103
0
LINE
8
0
10
20.173878
20
4.195223
11
20.219437
21
4.341009
0
LINE
8
0
10
18.650373
20
4.294400
11
18.652196
21
4.297471
0
LINE
8
0
10
18.702942
20
4.241832
11
18.701120
21
4.238762
0
LINE
8
0
10
18.652196
20
16.328762
11
18.650373
21
16.331832
0
LINE
8
0
10
18.701120
20
16.387471
11
18.702942
21
16.384400
0
LINE
8
0
10
20.219437
20
16.285223
11
20.173878
21
16.431009
0
LINE
8
0
10
20.396878
20
16.905006
11
20.395752
21
16.909056
0
LINE
8
0
10
20.395752
20
16.909056
11
20.395196
21
16.911103
0
LINE
8
0
10
18.652196
20
4.238762
11
18.701120
21
4.297471
0
LINE
8
0
10
18.143209
20
3.770611
11
18.143764
21
3.771226
0
LINE
8
0
10
18.143764
20
16.855006
11
18.143209
21
16.855621
0
LINE
8
0
10
18.701120
20
16.328762
11
18.652196
21
16.387471
0
LINE
8
0
10
20.170373
20
4.294400
11
20.172196
21
4.297471
0
LINE
8
0
10
20.222942
20
4.241832
11
20.221120
21
4.238762
0
LINE
8
0
10
18.650373
20
4.241832
11
18.702942
21
4.294400
0
LINE
8
0
10
18.702942
20
16.331832
11
18.650373
21
16.384400
0
LINE
8
0
10
19.048764
20
16.855006
11
19.048209
21
16.855621
0
LINE
8
0
10
20.172196
20
16.328762
11
20.170373
21
16.331832
0
LINE
8
0
10
20.221120
20
16.387471
11
20.222942
21
16.384400
0
LINE
8
0
10
20.172196
20
4.238762
11
20.221120
21
4.297471
0
LINE
8
0
10
18.647303
20
4.243654
11
18.706012
21
4.292578
0
LINE
8
0
10
18.647303
20
16.382578
11
18.706012
21
16.333654
0
LINE
8
0
10
20.221120
20
16.328762
11
20.172196
21
16.387471
0
LINE
8
0
10
20.170373
20
4.241832
11
20.222942
21
4.294400
0
LINE
8
0
10
20.167303
20
4.243654
11
20.226012
21
4.292578
0
LINE
8
0
10
18.647303
20
4.292578
11
18.650373
21
4.294400
0
LINE
8
0
10
18.706012
20
4.243654
11
18.702942
21
4.241832
0
LINE
8
0
10
18.650373
20
16.331832
11
18.647303
21
16.333654
0
LINE
8
0
10
18.702942
20
16.384400
11
18.706012
21
16.382578
0
LINE
8
0
10
20.167303
20
16.382578
11
20.226012
21
16.333654
0
LINE
8
0
10
20.170373
20
16.384400
11
20.222942
21
16.331832
0
LINE
8
0
10
20.346764
20
16.905006
11
20.346209
21
16.905621
0
LINE
8
0
10
20.167303
20
4.292578
11
20.170373
21
4.294400
0
LINE
8
0
10
20.226012
20
4.243654
11
20.222942
21
4.241832
0
LINE
8
0
10
18.603764
20
4.245337
11
18.749551
21
4.290895
0
LINE
8
0
10
18.603764
20
16.380895
11
18.749551
21
16.335337
0
LINE
8
0
10
20.170373
20
16.331832
11
20.167303
21
16.333654
0
LINE
8
0
10
20.222942
20
16.384400
11
20.226012
21
16.382578
0
LINE
8
0
10
20.577658
20
2.813116
11
20.707658
21
2.943116
0
LINE
8
0
62
2
10
18.614171
20
3.421054
11
16.169640
21
2.157864
0
LINE
8
0
10
20.123764
20
4.245337
11
20.269551
21
4.290895
0
POLYLINE
8
0
66
1
70
0
0
VERTEX
8
0
10
20.269551
20
16.335337
0
VERTEX
8
0
10
20.259111
20
16.334791
0
VERTEX
8
0
10
20.249729
20
16.334380
0
VERTEX
8
0
10
20.241209
20
16.334068
0
VERTEX
8
0
10
20.233366
20
16.333833
0
VERTEX
8
0
10
20.226012
20
16.333654
0
SEQEND
0
POLYLINE
8
0
66
1
70
0
0
VERTEX
8
0
10
20.123764
20
16.380895
0
VERTEX
8
0
10
20.134204
20
16.381441
0
VERTEX
8
0
10
20.143586
20
16.381853
0
VERTEX
8
0
10
20.152106
20
16.382164
0
VERTEX
8
0
10
20.159949
20
16.382400
0
VERTEX
8
0
10
20.167303
20
16.382578
0
SEQEND
0
POLYLINE
8
0
66
1
70
0
0
VERTEX
8
0
10
18.749551
20
16.335337
0
VERTEX
8
0
10
18.739111
20
16.334791
0
VERTEX
8
0
10
18.729729
20
16.334380
0
VERTEX
8
0
10
18.721209
20
16.334068
0
VERTEX
8
0
10
18.713366
20
16.333833
0
VERTEX
8
0
10
18.706012
20
16.333654
0
SEQEND
0
POLYLINE
8
0
66
1
70
0
0
VERTEX
8
0
10
18.603764
20
16.380895
0
VERTEX
8
0
10
18.614204
20
16.381441
0
VERTEX
8
0
10
18.623586
20
16.381853
0
VERTEX
8
0
10
18.632106
20
16.382164
0
VERTEX
8
0
10
18.639949
20
16.382400
0
VERTEX
8
0
10
18.647303
20
16.382578
0
SEQEND
0
POLYLINE
8
0
66
1
70
0
0
VERTEX
8
0
10
20.219437
20
16.285223
0
VERTEX
8
0
10
20.208077
20
16.284807
0
VERTEX
8
0
10
20.196662
20
16.284668
0
VERTEX
8
0
10
20.185245
20
16.284807
0
VERTEX
8
0
10
20.173878
20
16.285223
0
SEQEND
0
POLYLINE
8
0
66
1
70
0
0
VERTEX
8
0
10
18.699437
20
16.285223
0
VERTEX
8
0
10
18.688077
20
16.284807
0
VERTEX
8
0
10
18.676662
20
16.284668
0
VERTEX
8
0
10
18.665245
20
16.284807
0
VERTEX
8
0
10
18.653878
20
16.285223
0
SEQEND
0
POLYLINE
8
0
66
1
70
0
0
VERTEX
8
0
10
20.173878
20
16.431009
0
VERTEX
8
0
10
20.185238
20
16.431425
0
VERTEX
8
0
10
20.196653
20
16.431564
0
VERTEX
8
0
10
20.208070
20
16.431425
0
VERTEX
8
0
10
20.219437
20
16.431009
0
SEQEND
0
POLYLINE
8
0
66
1
70
0
0
VERTEX
8
0
10
18.653878
20
16.431009
0
VERTEX
8
0
10
18.665238
20
16.431425
0
VERTEX
8
0
10
18.676653
20
16.431564
0
VERTEX
8
0
10
18.688070
20
16.431425
0
VERTEX
8
0
10
18.699437
20
16.431009
0
SEQEND
0
LINE
8
0
10
18.001658
20
16.048116
11
17.986658
21
16.048116
0
LINE
8
0
10
20.886658
20
16.193116
11
20.871658
21
16.193116
0
LINE
8
0
10
20.886658
20
16.473116
11
20.871658
21
16.473116
0
POLYLINE
8
0
66
1
70
0
0
VERTEX
8
0
10
18.647303
20
16.333654
0
VERTEX
8
0
10
18.639749
20
16.333838
0
VERTEX
8
0
10
18.631900
20
16.334075
0
VERTEX
8
0
10
18.623466
20
16.334384
0
VERTEX
8
0
10
18.614182
20
16.334792
0
VERTEX
8
0
10
18.603764
20
16.335337
0
SEQEND
0
POLYLINE
8
0
66
1
70
0
0
VERTEX
8
0
10
20.167303
20
16.333654
0
VERTEX
8
0
10
20.159749
20
16.333838
0
VERTEX
8
0
10
20.151900
20
16.334075
0
VERTEX
8
0
10
20.143466
20
16.334384
0
VERTEX
8
0
10
20.134182
20
16.334792
0
VERTEX
8
0
10
20.123764
20
16.335337
0
SEQEND
0
POLYLINE
8
0
66
1
70
0
0
VERTEX
8
0
10
18.706012
20
16.382578
0
VERTEX
8
0
10
18.713566
20
16.382394
0
VERTEX
8
0
10
18.721415
20
16.382157
0
VERTEX
8
0
10
18.729849
20
16.381848
0
VERTEX
8
0
10
18.739133
20
16.381440
0
VERTEX
8
0
10
18.749551
20
16.380895
0
SEQEND
0
POLYLINE
8
0
66
1
70
0
0
VERTEX
8
0
10
20.226012
20
16.382578
0
VERTEX
8
0
10
20.233566
20
16.382394
0
VERTEX
8
0
10
20.241415
20
16.382157
0
VERTEX
8
0
10
20.249849
20
16.381848
0
VERTEX
8
0
10
20.259133
20
16.381440
0
VERTEX
8
0
10
20.269551
20
16.380895
0
SEQEND
0
LINE
8
0
10
20.123764
20
16.380895
11
20.269551
21
16.335337
0
LINE
8
0
10
20.577658
20
17.813116
11
20.707658
21
17.683116
0
LINE
8
0
10
19.059068
20
16.856929
11
19.048764
21
16.855006
0
LINE
8
0
10
20.357194
20
16.906951
11
20.346764
21
16.905006
0
LINE
8
0
10
18.154194
20
16.856951
11
18.143764
21
16.855006
0
LINE
8
0
10
19.068354
20
16.858404
11
19.059068
21
16.856929
0
LINE
8
0
10
20.366529
20
16.908429
11
20.357194
21
16.906951
0
LINE
8
0
10
18.163529
20
16.858429
11
18.154194
21
16.856951
0
LINE
8
0
10
19.076848
20
16.859542
11
19.068354
21
16.858404
0
LINE
8
0
10
20.375008
20
16.909561
11
20.366529
21
16.908429
0
LINE
8
0
10
18.172008
20
16.859561
11
18.163529
21
16.858429
0
LINE
8
0
10
19.084755
20
16.860422
11
19.076848
21
16.859542
0
LINE
8
0
10
20.382851
20
16.910432
11
20.375008
21
16.909561
0
LINE
8
0
10
18.179851
20
16.860432
11
18.172008
21
16.859561
0
LINE
8
0
10
19.092303
20
16.861103
11
19.084755
21
16.860422
0
LINE
8
0
10
20.390303
20
16.911103
11
20.382851
21
16.910432
0
LINE
8
0
10
18.187303
20
16.861103
11
18.179851
21
16.860432
0
LINE
8
0
10
20.445025
20
16.911161
11
20.444120
21
16.911103
0
LINE
8
0
10
19.147025
20
16.861161
11
19.146120
21
16.861103
0
LINE
8
0
10
18.242025
20
16.861161
11
18.241120
21
16.861103
0
LINE
8
0
10
20.445942
20
16.911211
11
20.445025
21
16.911161
0
LINE
8
0
10
19.147942
20
16.861211
11
19.147025
21
16.861161
0
LINE
8
0
10
18.242942
20
16.861211
11
18.242025
21
16.861161
0
LINE
8
0
10
19.093826
20
16.861161
11
19.092303
21
16.861103
0
LINE
8
0
10
20.391826
20
16.911161
11
20.390303
21
16.911103
0
LINE
8
0
10
18.188826
20
16.861161
11
18.187303
21
16.861103
0
LINE
8
0
10
19.095373
20
16.861211
11
19.093826
21
16.861161
0
LINE
8
0
10
20.393373
20
16.911211
11
20.391826
21
16.911161
0
LINE
8
0
10
18.190373
20
16.861211
11
18.188826
21
16.861161
0
LINE
8
0
10
17.986658
20
16.588116
11
18.001658
21
16.588116
0
LINE
8
0
10
20.781658
20
16.693116
11
18.091658
21
16.693116
0
LINE
8
0
10
18.026658
20
16.708116
11
18.396658
21
16.708116
0
LINE
8
0
10
18.467658
20
16.708116
11
20.856658
21
16.708116
0
LINE
8
0
10
18.026658
20
16.758116
11
20.856658
21
16.758116
0
LINE
8
0
10
18.973158
20
16.768782
11
18.981658
21
16.768782
0
LINE
8
0
10
19.261658
20
16.768782
11
19.270158
21
16.768782
0
LINE
8
0
10
19.261658
20
16.778116
11
18.981658
21
16.778116
0
LINE
8
0
10
18.356658
20
16.778116
11
18.076658
21
16.778116
0
LINE
8
0
10
20.694658
20
16.808116
11
20.144658
21
16.808116
0
LINE
8
0
10
20.559658
20
16.828116
11
20.279658
21
16.828116
0
LINE
8
0
10
18.084158
20
16.838116
11
18.349158
21
16.838116
0
LINE
8
0
10
18.989158
20
16.838116
11
19.254158
21
16.838116
0
LINE
8
0
10
20.009158
20
16.871416
11
20.287158
21
16.871416
0
LINE
8
0
10
20.552158
20
16.871416
11
20.564158
21
16.871416
0
LINE
8
0
10
20.287158
20
16.888116
11
20.552158
21
16.888116
0
LINE
8
0
10
18.244490
20
16.861161
11
18.242942
21
16.861211
0
LINE
8
0
10
19.149489
20
16.861161
11
19.147942
21
16.861211
0
LINE
8
0
10
20.447490
20
16.911161
11
20.445942
21
16.911211
0
LINE
8
0
10
18.246012
20
16.861103
11
18.244490
21
16.861161
0
LINE
8
0
10
19.151012
20
16.861103
11
19.149489
21
16.861161
0
LINE
8
0
10
20.449012
20
16.911103
11
20.447490
21
16.911161
0
POLYLINE
8
0
66
1
70
0
0
VERTEX
8
0
10
18.239437
20
16.855006
0
VERTEX
8
0
10
18.228077
20
16.855467
0
VERTEX
8
0
10
18.216662
20
16.855621
0
VERTEX
8
0
10
18.205245
20
16.855467
0
VERTEX
8
0
10
18.194007
20
16.855011
0
SEQEND
0
POLYLINE
8
0
66
1
70
0
0
VERTEX
8
0
10
19.144437
20
16.855006
0
VERTEX
8
0
10
19.133090
20
16.855466
0
VERTEX
8
0
10
19.121663
20
16.855621
0
VERTEX
8
0
10
19.110234
20
16.855467
0
VERTEX
8
0
10
19.099007
20
16.855011
0
SEQEND
0
POLYLINE
8
0
66
1
70
0
0
VERTEX
8
0
10
20.442437
20
16.905006
0
VERTEX
8
0
10
20.431077
20
16.905467
0
VERTEX
8
0
10
20.419662
20
16.905621
0
VERTEX
8
0
10
20.408245
20
16.905467
0
VERTEX
8
0
10
20.397007
20
16.905011
0
SEQEND
0
LINE
8
0
10
18.191290
20
16.861161
11
18.190373
21
16.861211
0
LINE
8
0
10
19.096290
20
16.861161
11
19.095373
21
16.861211
0
LINE
8
0
10
20.394290
20
16.911161
11
20.393373
21
16.911211
0
LINE
8
0
10
18.192196
20
16.861103
11
18.191290
21
16.861161
0
LINE
8
0
10
19.097196
20
16.861103
11
19.096290
21
16.861161
0
LINE
8
0
10
20.395196
20
16.911103
11
20.394290
21
16.911161
0
LINE
8
0
10
18.253464
20
16.860432
11
18.246012
21
16.861103
0
LINE
8
0
10
20.456464
20
16.910432
11
20.449012
21
16.911103
0
LINE
8
0
10
19.158561
20
16.860422
11
19.151012
21
16.861103
0
LINE
8
0
10
18.261307
20
16.859561
11
18.253464
21
16.860432
0
LINE
8
0
10
20.464307
20
16.909561
11
20.456464
21
16.910432
0
LINE
8
0
10
19.166467
20
16.859542
11
19.158561
21
16.860422
0
LINE
8
0
10
18.269786
20
16.858429
11
18.261307
21
16.859561
0
LINE
8
0
10
20.472786
20
16.908429
11
20.464307
21
16.909561
0
LINE
8
0
10
19.174961
20
16.858404
11
19.166467
21
16.859542
0
LINE
8
0
10
18.279121
20
16.856951
11
18.269786
21
16.858429
0
LINE
8
0
10
20.482121
20
16.906951
11
20.472786
21
16.908429
0
LINE
8
0
10
19.184247
20
16.856929
11
19.174961
21
16.858404
0
LINE
8
0
10
18.289551
20
16.855006
11
18.279121
21
16.856951
0
LINE
8
0
10
20.492551
20
16.905006
11
20.482121
21
16.906951
0
LINE
8
0
10
19.194551
20
16.855006
11
19.184247
21
16.856929
0
LINE
8
0
10
18.165658
20
17.013116
11
20.707658
21
17.013116
0
LINE
8
0
10
20.577658
20
17.813116
11
18.295658
21
17.813116
0
LINE
8
0
62
2
10
16.477732
20
18.948278
11
16.227732
21
18.948278
0
LINE
8
0
62
2
10
20.078658
20
17.634116
11
16.477732
21
18.948278
0
LINE
8
0
10
11.123307
20
3.768921
11
11.135872
21
3.771226
0
LINE
8
0
10
11.112011
20
3.767230
11
11.123173
21
3.768901
0
LINE
8
0
10
2.862979
20
2.813116
11
2.967979
21
2.813116
0
LINE
8
0
10
2.862979
20
2.943116
11
2.967979
21
2.943116
0
LINE
8
0
10
4.090086
20
3.771226
11
4.102785
21
3.768901
0
LINE
8
0
10
4.236427
20
16.855621
11
4.235872
21
16.855006
0
LINE
8
0
10
11.101761
20
3.766003
11
11.111798
21
3.767205
0
LINE
8
0
10
11.092334
20
3.765129
11
11.101574
21
3.765985
0
LINE
8
0
10
11.037612
20
3.765071
11
11.038517
21
3.765129
0
LINE
8
0
10
11.036695
20
3.765021
11
11.037612
21
3.765071
0
LINE
8
0
10
11.090811
20
3.765071
11
11.092334
21
3.765129
0
LINE
8
0
10
4.190811
20
3.765071
11
4.192334
21
3.765129
0
LINE
8
0
10
11.089263
20
3.765021
11
11.090811
21
3.765071
0
LINE
8
0
10
4.189263
20
3.765021
11
4.190811
21
3.765071
0
POLYLINE
8
0
66
1
70
0
0
VERTEX
8
0
10
11.062979
20
3.770611
0
VERTEX
8
0
10
11.070704
20
3.770682
0
VERTEX
8
0
10
11.078287
20
3.770889
0
VERTEX
8
0
10
11.085630
20
3.771220
0
SEQEND
0
POLYLINE
8
0
66
1
70
0
0
VERTEX
8
0
10
4.162979
20
3.770611
0
VERTEX
8
0
10
4.170704
20
3.770682
0
VERTEX
8
0
10
4.178287
20
3.770889
0
VERTEX
8
0
10
4.185630
20
3.771220
0
SEQEND
0
LINE
8
DEFAULT_1
10
3.142979
20
3.788116
11
2.994487
21
3.788116
0
LINE
8
0
10
4.030479
20
3.788116
11
4.295479
21
3.788116
0
LINE
8
0
10
10.930479
20
3.788116
11
11.195479
21
3.788116
0
LINE
8
0
10
4.022981
20
3.848116
11
4.302977
21
3.848116
0
LINE
8
0
10
10.922981
20
3.848116
11
11.202977
21
3.848116
0
LINE
8
0
10
3.074487
20
3.868116
11
12.062979
21
3.868116
0
LINE
8
0
10
3.222979
20
3.918116
11
3.242979
21
3.918116
0
LINE
8
0
10
4.135147
20
3.765071
11
4.136695
21
3.765021
0
LINE
8
0
10
11.035147
20
3.765071
11
11.036695
21
3.765021
0
LINE
8
0
10
4.133625
20
3.765129
11
4.135147
21
3.765071
0
LINE
8
0
10
11.033625
20
3.765129
11
11.035147
21
3.765071
0
POLYLINE
8
0
66
1
70
0
0
VERTEX
8
0
10
4.140200
20
3.771226
0
VERTEX
8
0
10
4.147668
20
3.770889
0
VERTEX
8
0
10
4.155251
20
3.770682
0
VERTEX
8
0
10
4.162979
20
3.770611
0
SEQEND
0
LINE
8
0
10
4.188347
20
3.765071
11
4.189263
21
3.765021
0
LINE
8
0
10
4.187441
20
3.765129
11
4.188347
21
3.765071
0
LINE
8
0
10
4.124556
20
3.765965
11
4.133625
21
3.765129
0
LINE
8
0
10
4.114349
20
3.767176
11
4.124385
21
3.765985
0
LINE
8
0
10
4.102900
20
3.768880
11
4.114160
21
3.767205
0
LINE
8
0
10
4.235872
20
3.771226
11
4.236427
21
3.770611
0
LINE
8
0
10
4.223307
20
3.768921
11
4.235872
21
3.771226
0
LINE
8
0
10
4.212011
20
3.767230
11
4.223173
21
3.768901
0
LINE
8
0
10
4.201761
20
3.766003
11
4.211798
21
3.767205
0
LINE
8
0
10
4.192334
20
3.765129
11
4.201574
21
3.765985
0
LINE
8
0
10
4.137612
20
3.765071
11
4.138517
21
3.765129
0
LINE
8
0
10
4.136695
20
3.765021
11
4.137612
21
3.765071
0
LINE
8
DEFAULT_1
10
3.117979
20
3.948116
11
3.222979
21
3.948116
0
LINE
8
DEFAULT_1
10
3.242979
20
3.958116
11
12.062979
21
3.958116
0
LINE
8
0
10
3.222979
20
3.968116
11
3.242979
21
3.968116
0
LINE
8
0
10
3.222979
20
4.468116
11
3.242979
21
4.468116
0
POLYLINE
8
0
66
1
70
0
0
VERTEX
8
0
10
11.040200
20
3.771226
0
VERTEX
8
0
10
11.047668
20
3.770889
0
VERTEX
8
0
10
11.055251
20
3.770682
0
VERTEX
8
0
10
11.062979
20
3.770611
0
SEQEND
0
LINE
8
0
10
11.088347
20
3.765071
11
11.089263
21
3.765021
0
LINE
8
0
10
11.087441
20
3.765129
11
11.088347
21
3.765071
0
LINE
8
0
10
11.024556
20
3.765965
11
11.033625
21
3.765129
0
LINE
8
0
10
11.014349
20
3.767176
11
11.024385
21
3.765985
0
LINE
8
0
10
11.002900
20
3.768880
11
11.014160
21
3.767205
0
LINE
8
0
10
10.990086
20
3.771226
11
11.002785
21
3.768901
0
LINE
8
0
10
3.222979
20
4.682380
11
3.242979
21
4.682380
0
LINE
8
0
10
2.954914
20
6.708283
11
2.954982
21
6.708236
0
LINE
8
0
10
2.954168
20
6.651701
11
2.954561
21
6.647709
0
LINE
8
0
10
2.953664
20
6.684154
11
2.953813
21
6.682506
0
LINE
8
0
10
2.953813
20
6.655965
11
2.954168
21
6.651701
0
LINE
8
0
10
2.953549
20
6.685856
11
2.953664
21
6.684154
0
LINE
8
0
10
2.953668
20
6.658649
11
2.953813
21
6.655965
0
LINE
8
0
10
2.953473
20
6.687624
11
2.953549
21
6.685856
0
LINE
8
0
10
2.953552
20
6.661524
11
2.953668
21
6.658649
0
LINE
8
0
10
2.953473
20
6.664609
11
2.953552
21
6.661524
0
LINE
8
0
10
2.862979
20
17.813116
11
2.862979
21
16.969624
0
LINE
8
0
10
2.862979
20
2.813116
11
2.862979
21
3.656609
0
LINE
8
0
10
4.187441
20
16.861103
11
4.186711
21
16.858421
0
LINE
8
0
10
4.186711
20
16.858421
11
4.185758
21
16.855006
0
LINE
8
0
10
4.185758
20
3.771226
11
4.186716
21
3.767794
0
LINE
8
0
10
4.186716
20
3.767794
11
4.187441
21
3.765129
0
LINE
8
0
10
2.954561
20
6.647709
11
2.954982
21
6.643997
0
LINE
8
0
10
3.014992
20
10.346762
11
3.015851
21
10.337495
0
LINE
8
0
10
3.014934
20
10.401484
11
3.014992
21
10.400578
0
LINE
8
0
10
3.014884
20
10.402400
11
3.014934
21
10.401484
0
LINE
8
0
10
3.014934
20
10.348284
11
3.014992
21
10.346762
0
LINE
8
0
10
3.014884
20
10.349832
11
3.014934
21
10.348284
0
POLYLINE
8
0
66
1
70
0
0
VERTEX
8
0
10
3.020474
20
10.376116
0
VERTEX
8
0
10
3.020545
20
10.368391
0
VERTEX
8
0
10
3.020752
20
10.360808
0
VERTEX
8
0
10
3.021083
20
10.353466
0
SEQEND
0
POLYLINE
8
0
66
1
70
0
0
VERTEX
8
0
10
2.954914
20
6.676116
0
VERTEX
8
0
10
2.954922
20
6.674019
0
VERTEX
8
0
10
2.954944
20
6.671943
0
VERTEX
8
0
10
2.954982
20
6.669884
0
SEQEND
0
LINE
8
0
10
2.967979
20
2.813116
11
2.967979
21
3.613116
0
LINE
8
0
10
2.967979
20
17.013116
11
2.967979
21
17.813116
0
LINE
8
0
10
2.987979
20
6.543616
11
2.987979
21
6.808616
0
LINE
8
0
10
3.037979
20
6.543616
11
3.037979
21
6.808616
0
LINE
8
0
10
3.037979
20
10.243616
11
3.037979
21
10.508616
0
LINE
8
0
10
3.067979
20
6.543616
11
3.067979
21
6.808616
0
LINE
8
0
10
3.097979
20
10.516116
11
3.097979
21
10.236116
0
LINE
8
0
10
3.097979
20
6.816116
11
3.097979
21
6.536116
0
LINE
8
0
10
3.117979
20
3.911609
11
3.117979
21
16.714624
0
LINE
8
0
10
3.222979
20
3.868116
11
3.222979
21
16.758116
0
LINE
8
0
10
3.242979
20
16.758116
11
3.242979
21
3.868116
0
POLYLINE
8
0
66
1
70
0
0
VERTEX
8
0
10
2.954982
20
6.682348
0
VERTEX
8
0
10
2.954944
20
6.680291
0
VERTEX
8
0
10
2.954922
20
6.678215
0
VERTEX
8
0
10
2.954914
20
6.676116
0
SEQEND
0
LINE
8
0
10
2.953552
20
6.690708
11
2.953473
21
6.687624
0
LINE
8
0
10
3.014934
20
10.403948
11
3.014884
21
10.402400
0
LINE
8
0
10
3.014992
20
10.405471
11
3.014934
21
10.403948
0
LINE
8
0
10
2.953668
20
6.693583
11
2.953552
21
6.690708
0
LINE
8
0
10
2.953549
20
6.666376
11
2.953473
21
6.664609
0
POLYLINE
8
0
66
1
70
0
0
VERTEX
8
0
10
3.021089
20
10.398895
0
VERTEX
8
0
10
3.020752
20
10.391429
0
VERTEX
8
0
10
3.020545
20
10.383845
0
VERTEX
8
0
10
3.020474
20
10.376116
0
SEQEND
0
LINE
8
0
10
2.953813
20
6.696267
11
2.953668
21
6.693583
0
LINE
8
0
10
3.014934
20
10.350749
11
3.014884
21
10.349832
0
LINE
8
0
10
3.014992
20
10.351654
11
3.014934
21
10.350749
0
LINE
8
0
10
2.953664
20
6.668078
11
2.953549
21
6.666376
0
LINE
8
0
10
2.954168
20
6.700531
11
2.953813
21
6.696267
0
LINE
8
0
10
2.953813
20
6.669727
11
2.953664
21
6.668078
0
LINE
8
0
10
3.015834
20
10.414597
11
3.014992
21
10.405471
0
LINE
8
0
10
2.954561
20
6.704524
11
2.954168
21
6.700531
0
LINE
8
0
10
2.954982
20
6.708236
11
2.954561
21
6.704524
0
LINE
8
0
10
3.017052
20
10.424839
11
3.015851
21
10.414737
0
LINE
8
0
10
3.018774
20
10.436370
11
3.017075
21
10.424994
0
LINE
8
0
10
3.021089
20
10.449009
11
3.018774
21
10.436370
0
LINE
8
0
10
7.749427
20
16.905621
11
7.748872
21
16.905006
0
LINE
8
0
10
2.953813
20
6.682506
11
2.954982
21
6.682348
0
LINE
8
0
10
3.018790
20
10.315754
11
3.021089
21
10.303223
0
LINE
8
0
10
3.017096
20
10.327065
11
3.018774
21
10.315862
0
LINE
8
0
10
3.015865
20
10.337342
11
3.017075
21
10.327239
0
LINE
8
0
10
4.022979
20
16.778116
11
4.022979
21
16.758116
0
LINE
8
0
10
4.022979
20
3.848116
11
4.022979
21
3.868116
0
LINE
8
0
10
4.030479
20
3.848116
11
4.030479
21
3.788116
0
LINE
8
0
10
4.030479
20
16.778116
11
4.030479
21
16.838116
0
LINE
8
0
10
3.097979
20
6.536116
11
3.117979
21
6.536116
0
LINE
8
0
10
3.097979
20
6.543616
11
2.987979
21
6.543616
0
LINE
8
0
10
3.242979
20
6.607116
11
3.222979
21
6.607116
0
LINE
8
0
10
3.242979
20
6.745116
11
3.222979
21
6.745116
0
LINE
8
0
10
3.097979
20
6.808616
11
2.987979
21
6.808616
0
LINE
8
0
10
3.097979
20
6.816116
11
3.117979
21
6.816116
0
LINE
8
0
10
4.295479
20
3.848116
11
4.295479
21
3.788116
0
LINE
8
0
10
4.295479
20
16.778116
11
4.295479
21
16.838116
0
LINE
8
0
10
4.302979
20
16.778116
11
4.302979
21
16.758116
0
LINE
8
0
10
4.302979
20
3.848116
11
4.302979
21
3.868116
0
LINE
8
0
10
3.021089
20
10.303223
11
3.020474
21
10.302668
0
LINE
8
0
10
2.954982
20
6.669884
11
2.953813
21
6.669727
0
LINE
8
0
10
3.020474
20
10.449564
11
3.021089
21
10.449009
0
LINE
8
0
10
5.078979
20
16.758116
11
5.078979
21
16.871416
0
LINE
8
0
10
5.086479
20
16.758116
11
5.086479
21
16.768782
0
LINE
8
0
10
5.383479
20
16.758116
11
5.383479
21
16.768782
0
LINE
8
0
10
10.691427
20
16.855621
11
10.690872
21
16.855006
0
LINE
8
0
10
11.104427
20
16.905621
11
11.103872
21
16.905006
0
LINE
8
0
10
11.136427
20
16.855621
11
11.135872
21
16.855006
0
LINE
8
0
10
11.135872
20
3.771226
11
11.136427
21
3.770611
0
LINE
8
0
10
7.700441
20
16.911103
11
7.699711
21
16.908421
0
LINE
8
0
10
4.138517
20
3.765129
11
4.139247
21
3.767811
0
LINE
8
0
10
7.699711
20
16.908421
11
7.698758
21
16.905006
0
LINE
8
0
10
4.139247
20
3.767811
11
4.140200
21
3.771226
0
POLYLINE
8
0
66
1
70
0
0
VERTEX
8
0
10
3.016557
20
10.400154
0
VERTEX
8
0
10
3.019159
20
10.399437
0
VERTEX
8
0
10
3.021089
20
10.398895
0
SEQEND
0
LINE
8
0
10
4.140200
20
16.855006
11
4.139243
21
16.858438
0
LINE
8
0
10
4.139243
20
16.858438
11
4.138517
21
16.861103
0
LINE
8
0
10
3.014992
20
10.400578
11
3.016557
21
10.400154
0
LINE
8
0
10
7.177979
20
16.758116
11
7.177979
21
16.871416
0
LINE
8
0
10
7.478479
20
16.808116
11
7.478479
21
16.758116
0
LINE
8
0
10
7.535979
20
16.828116
11
7.535979
21
16.808116
0
LINE
8
0
10
7.543479
20
16.828116
11
7.543479
21
16.888116
0
LINE
8
0
10
3.097979
20
10.236116
11
3.117979
21
10.236116
0
LINE
8
0
10
3.097979
20
10.243616
11
3.037979
21
10.243616
0
LINE
8
0
10
3.242979
20
10.307116
11
3.222979
21
10.307116
0
LINE
8
0
10
7.808479
20
16.828116
11
7.808479
21
16.888116
0
LINE
8
0
10
7.815979
20
16.828116
11
7.815979
21
16.808116
0
LINE
8
0
10
2.954982
20
6.643997
11
2.954914
21
6.643950
0
LINE
8
0
10
3.242979
20
10.445116
11
3.222979
21
10.445116
0
LINE
8
0
10
3.097979
20
10.508616
11
3.037979
21
10.508616
0
LINE
8
0
10
3.097979
20
10.516116
11
3.117979
21
10.516116
0
LINE
8
0
10
3.021089
20
10.353337
11
3.017669
21
10.352383
0
LINE
8
0
10
3.017669
20
10.352383
11
3.014992
21
10.351654
0
LINE
8
0
10
11.055441
20
16.911103
11
11.054711
21
16.908421
0
LINE
8
0
10
11.087441
20
16.861103
11
11.086711
21
16.858421
0
POLYLINE
8
0
66
1
70
0
0
VERTEX
8
0
10
10.642441
20
16.861103
0
VERTEX
8
0
10
10.641703
20
16.858392
0
VERTEX
8
0
10
10.641297
20
16.856925
0
VERTEX
8
0
10
10.640758
20
16.855006
0
SEQEND
0
LINE
8
0
10
11.054711
20
16.908421
11
11.053758
21
16.905006
0
LINE
8
0
10
11.086711
20
16.858421
11
11.085758
21
16.855006
0
LINE
8
0
10
4.089531
20
3.770611
11
4.090086
21
3.771226
0
LINE
8
0
10
2.862979
20
3.656609
11
3.117979
21
3.911609
0
LINE
8
0
10
2.967979
20
3.613116
11
3.222979
21
3.868116
0
LINE
8
0
10
3.586479
20
11.951116
11
4.649479
21
11.951116
0
LINE
8
0
10
5.086479
20
11.951116
11
6.149479
21
11.951116
0
LINE
8
0
10
6.586479
20
11.951116
11
7.649479
21
11.951116
0
LINE
8
0
10
7.649479
20
12.138116
11
6.586479
21
12.138116
0
LINE
8
0
10
6.149479
20
12.138116
11
5.086479
21
12.138116
0
LINE
8
0
10
4.649479
20
12.138116
11
3.586479
21
12.138116
0
LINE
8
0
10
3.117979
20
16.714624
11
2.862979
21
16.969624
0
LINE
8
0
10
2.967979
20
17.013116
11
3.222979
21
16.758116
0
LINE
8
0
10
4.090086
20
16.855006
11
4.089531
21
16.855621
0
LINE
8
0
10
11.085758
20
3.771226
11
11.086716
21
3.767794
0
LINE
8
0
10
11.086716
20
3.767794
11
11.087441
21
3.765129
0
LINE
8
0
10
3.586479
20
12.271116
11
4.649479
21
12.271116
0
LINE
8
0
10
5.086479
20
12.271116
11
6.149479
21
12.271116
0
LINE
8
0
10
6.586479
20
12.271116
11
7.649479
21
12.271116
0
LINE
8
0
10
7.649479
20
12.458116
11
6.586479
21
12.458116
0
LINE
8
0
10
6.149479
20
12.458116
11
5.086479
21
12.458116
0
LINE
8
0
10
4.649479
20
12.458116
11
3.586479
21
12.458116
0
LINE
8
0
10
3.586479
20
12.591116
11
4.649479
21
12.591116
0
LINE
8
0
10
5.086479
20
12.591116
11
6.149479
21
12.591116
0
LINE
8
0
10
6.586479
20
12.591116
11
7.649479
21
12.591116
0
LINE
8
0
10
7.653200
20
16.905006
11
7.652243
21
16.908438
0
LINE
8
0
10
7.652243
20
16.908438
11
7.651517
21
16.911103
0
LINE
8
0
10
10.477979
20
16.778116
11
10.477979
21
16.758116
0
LINE
8
0
10
10.485479
20
16.778116
11
10.485479
21
16.838116
0
LINE
8
0
10
7.649479
20
12.778116
11
6.586479
21
12.778116
0
LINE
8
0
10
6.149479
20
12.778116
11
5.086479
21
12.778116
0
LINE
8
0
10
4.649479
20
12.778116
11
3.586479
21
12.778116
0
LINE
8
0
10
3.586479
20
12.911116
11
4.649479
21
12.911116
0
LINE
8
0
10
5.086479
20
12.911116
11
6.149479
21
12.911116
0
LINE
8
0
10
6.586479
20
12.911116
11
7.649479
21
12.911116
0
LINE
8
0
10
7.649479
20
13.098116
11
6.586479
21
13.098116
0
LINE
8
0
10
6.149479
20
13.098116
11
5.086479
21
13.098116
0
LINE
8
0
10
4.649479
20
13.098116
11
3.586479
21
13.098116
0
LINE
8
0
10
3.586479
20
13.231116
11
4.649479
21
13.231116
0
LINE
8
0
10
5.086479
20
13.231116
11
6.149479
21
13.231116
0
LINE
8
0
10
6.586479
20
13.231116
11
7.649479
21
13.231116
0
LINE
8
0
10
10.750479
20
16.778116
11
10.750479
21
16.838116
0
LINE
8
0
10
10.757979
20
16.778116
11
10.757979
21
16.758116
0
LINE
8
0
10
10.890979
20
16.828116
11
10.890979
21
16.808116
0
LINE
8
0
10
10.898479
20
16.828116
11
10.898479
21
16.888116
0
LINE
8
0
10
10.922979
20
16.778116
11
10.922979
21
16.758116
0
LINE
8
0
10
10.922979
20
3.848116
11
10.922979
21
3.868116
0
LINE
8
0
10
10.930479
20
3.848116
11
10.930479
21
3.788116
0
LINE
8
0
10
10.930479
20
16.778116
11
10.930479
21
16.838116
0
LINE
8
0
10
7.649479
20
13.418116
11
6.586479
21
13.418116
0
LINE
8
0
10
6.149479
20
13.418116
11
5.086479
21
13.418116
0
LINE
8
0
10
4.649479
20
13.418116
11
3.586479
21
13.418116
0
LINE
8
0
10
3.586479
20
13.551116
11
4.649479
21
13.551116
0
LINE
8
0
10
5.086479
20
13.551116
11
6.149479
21
13.551116
0
LINE
8
0
10
6.586479
20
13.551116
11
7.649479
21
13.551116
0
LINE
8
0
10
7.649479
20
13.738116
11
6.586479
21
13.738116
0
LINE
8
0
10
6.149479
20
13.738116
11
5.086479
21
13.738116
0
LINE
8
0
10
4.649479
20
13.738116
11
3.586479
21
13.738116
0
LINE
8
0
10
3.586479
20
13.871116
11
4.649479
21
13.871116
0
LINE
8
0
10
5.086479
20
13.871116
11
6.149479
21
13.871116
0
LINE
8
0
10
6.586479
20
13.871116
11
7.649479
21
13.871116
0
LINE
8
0
10
12.065966
20
4.297471
11
12.065110
21
4.306711
0
LINE
8
0
10
12.066024
20
4.242749
11
12.065966
21
4.243654
0
LINE
8
0
10
11.163479
20
16.848913
11
11.163479
21
16.888116
0
LINE
8
0
10
11.195479
20
3.848116
11
11.195479
21
3.788116
0
LINE
8
0
10
11.195479
20
16.778116
11
11.195479
21
16.838116
0
LINE
8
0
10
11.202979
20
16.778116
11
11.202979
21
16.758116
0
LINE
8
0
10
11.202979
20
3.848116
11
11.202979
21
3.868116
0
LINE
8
0
10
11.228479
20
16.808116
11
11.228479
21
16.758116
0
LINE
8
0
10
12.065966
20
16.382578
11
12.066024
21
16.383484
0
LINE
8
0
10
12.065130
20
16.319693
11
12.065966
21
16.328762
0
LINE
8
0
10
12.063919
20
16.309486
11
12.065110
21
16.319522
0
LINE
8
0
10
12.062979
20
16.303172
11
12.063891
21
16.309297
0
LINE
8
0
10
7.649479
20
14.058116
11
6.586479
21
14.058116
0
LINE
8
0
10
6.149479
20
14.058116
11
5.086479
21
14.058116
0
LINE
8
0
10
4.649479
20
14.058116
11
3.586479
21
14.058116
0
LINE
8
0
10
3.586479
20
14.191116
11
4.649479
21
14.191116
0
LINE
8
0
10
4.649479
20
14.378116
11
3.586479
21
14.378116
0
LINE
8
0
10
12.063865
20
4.317148
11
12.062979
21
4.323066
0
LINE
8
0
10
12.065093
20
4.306898
11
12.063891
21
4.316935
0
LINE
8
0
10
12.066074
20
4.241832
11
12.066024
21
4.242749
0
LINE
8
0
10
12.066024
20
4.295948
11
12.065966
21
4.297471
0
LINE
8
0
10
12.066024
20
16.385948
11
12.065966
21
16.387471
0
LINE
8
0
10
12.066074
20
4.294400
11
12.066024
21
4.295948
0
LINE
8
0
10
12.066074
20
16.384400
11
12.066024
21
16.385948
0
LINE
8
0
10
12.062979
20
16.758116
11
12.062979
21
3.868116
0
LINE
8
0
10
12.066024
20
16.330284
11
12.066074
21
16.331832
0
LINE
8
0
10
12.066024
20
4.240284
11
12.066074
21
4.241832
0
LINE
8
0
10
12.065966
20
16.328762
11
12.066024
21
16.330284
0
LINE
8
0
10
12.065966
20
4.238762
11
12.066024
21
4.240284
0
LINE
8
0
10
12.066024
20
16.383484
11
12.066074
21
16.384400
0
LINE
8
0
10
3.586479
20
14.511116
11
4.649479
21
14.511116
0
LINE
8
0
10
4.649479
20
14.698116
11
3.586479
21
14.698116
0
LINE
8
0
10
3.586479
20
14.831116
11
4.649479
21
14.831116
0
LINE
8
0
10
4.649479
20
15.018116
11
3.586479
21
15.018116
0
LINE
8
0
10
7.603086
20
16.905006
11
7.602531
21
16.905621
0
LINE
8
0
10
10.595200
20
16.855006
11
10.594249
21
16.858416
0
LINE
8
0
10
10.594249
20
16.858416
11
10.593517
21
16.861103
0
LINE
8
0
10
12.065966
20
16.387471
11
12.065110
21
16.396711
0
LINE
8
0
10
12.066024
20
16.332749
11
12.065966
21
16.333654
0
LINE
8
0
10
12.066074
20
16.331832
11
12.066024
21
16.332749
0
LINE
8
0
10
12.066024
20
4.293484
11
12.066074
21
4.294400
0
LINE
8
0
10
12.065966
20
4.292578
11
12.066024
21
4.293484
0
LINE
8
0
10
12.065130
20
4.229693
11
12.065966
21
4.238762
0
LINE
8
0
10
12.063919
20
4.219486
11
12.065110
21
4.229522
0
LINE
8
0
10
11.038517
20
3.765129
11
11.039247
21
3.767811
0
LINE
8
0
10
11.039247
20
3.767811
11
11.040200
21
3.771226
0
LINE
8
0
10
3.586479
20
15.151116
11
4.649479
21
15.151116
0
LINE
8
0
10
4.649479
20
15.338116
11
3.586479
21
15.338116
0
LINE
8
0
10
3.586479
20
15.471116
11
4.649479
21
15.471116
0
LINE
8
0
10
4.649479
20
15.658116
11
3.586479
21
15.658116
0
LINE
8
0
10
11.008200
20
16.905006
11
11.007243
21
16.908438
0
LINE
8
0
10
11.040200
20
16.855006
11
11.039243
21
16.858438
0
LINE
8
0
10
11.007243
20
16.908438
11
11.006517
21
16.911103
0
LINE
8
0
10
11.039243
20
16.858438
11
11.038517
21
16.861103
0
LINE
8
0
10
12.065093
20
16.396898
11
12.063891
21
16.406935
0
LINE
8
0
10
12.062979
20
4.213172
11
12.063891
21
4.219297
0
LINE
8
0
10
11.002652
20
16.857311
11
10.990086
21
16.855006
0
LINE
8
0
10
10.970652
20
16.907311
11
10.958086
21
16.905006
0
LINE
8
0
10
10.557668
20
16.857312
11
10.545086
21
16.855006
0
LINE
8
0
10
11.013947
20
16.859002
11
11.002785
21
16.857331
0
LINE
8
0
10
3.586479
20
15.791116
11
4.649479
21
15.791116
0
LINE
8
0
10
3.222979
20
15.943852
11
3.242979
21
15.943852
0
LINE
8
0
10
4.649479
20
15.978116
11
3.586479
21
15.978116
0
LINE
8
0
10
3.586479
20
16.111116
11
4.649479
21
16.111116
0
LINE
8
0
10
3.222979
20
16.158116
11
3.242979
21
16.158116
0
LINE
8
0
10
4.235872
20
16.855006
11
4.223173
21
16.857331
0
LINE
8
0
10
12.063865
20
16.407148
11
12.062979
21
16.413066
0
LINE
8
0
10
7.615652
20
16.907311
11
7.603086
21
16.905006
0
LINE
8
0
10
10.568901
20
16.858996
11
10.557668
21
16.857312
0
LINE
8
0
10
10.981947
20
16.909002
11
10.970785
21
16.907331
0
LINE
8
0
10
7.626947
20
16.909002
11
7.615785
21
16.907331
0
LINE
8
0
10
11.024198
20
16.860230
11
11.014160
21
16.859028
0
LINE
8
0
10
10.992198
20
16.910230
11
10.982160
21
16.909028
0
LINE
8
0
10
7.637198
20
16.910230
11
7.627160
21
16.909028
0
LINE
8
0
10
10.579329
20
16.860242
11
10.569043
21
16.859013
0
LINE
8
0
10
11.033625
20
16.861103
11
11.024385
21
16.860247
0
LINE
8
0
10
10.588625
20
16.861103
11
10.579329
21
16.860242
0
LINE
8
0
10
11.001625
20
16.911103
11
10.992385
21
16.910247
0
LINE
8
0
10
11.088347
20
16.861161
11
11.087441
21
16.861103
0
LINE
8
0
10
10.643347
20
16.861161
11
10.642441
21
16.861103
0
LINE
8
0
10
11.056347
20
16.911161
11
11.055441
21
16.911103
0
LINE
8
0
10
11.089263
20
16.861211
11
11.088347
21
16.861161
0
LINE
8
0
10
10.644263
20
16.861211
11
10.643347
21
16.861161
0
LINE
8
0
10
11.057263
20
16.911211
11
11.056347
21
16.911161
0
LINE
8
0
10
11.035147
20
16.861161
11
11.033625
21
16.861103
0
LINE
8
0
10
10.590147
20
16.861161
11
10.588625
21
16.861103
0
LINE
8
0
10
11.003147
20
16.911161
11
11.001625
21
16.911103
0
LINE
8
0
10
11.036695
20
16.861211
11
11.035147
21
16.861161
0
LINE
8
0
10
10.591695
20
16.861211
11
10.590147
21
16.861161
0
LINE
8
0
10
11.004695
20
16.911211
11
11.003147
21
16.911161
0
POLYLINE
8
0
66
1
70
0
0
VERTEX
8
0
10
11.062979
20
16.855621
0
VERTEX
8
0
10
11.055254
20
16.855550
0
VERTEX
8
0
10
11.047672
20
16.855344
0
VERTEX
8
0
10
11.040329
20
16.855012
0
SEQEND
0
POLYLINE
8
0
66
1
70
0
0
VERTEX
8
0
10
10.617979
20
16.855621
0
VERTEX
8
0
10
10.610254
20
16.855550
0
VERTEX
8
0
10
10.602670
20
16.855343
0
VERTEX
8
0
10
10.595329
20
16.855012
0
SEQEND
0
LINE
8
0
10
4.649479
20
16.298116
11
3.586479
21
16.298116
0
LINE
8
0
10
3.222979
20
16.658116
11
3.242979
21
16.658116
0
LINE
8
DEFAULT_1
10
3.242979
20
16.668116
11
12.062979
21
16.668116
0
LINE
8
DEFAULT_1
10
3.222979
20
16.678116
11
3.117979
21
16.678116
0
LINE
8
0
10
3.222979
20
16.708116
11
3.242979
21
16.708116
0
LINE
8
0
10
3.074487
20
16.758116
11
12.062979
21
16.758116
0
LINE
8
0
10
5.086479
20
16.768782
11
5.383479
21
16.768782
0
LINE
8
0
10
11.202977
20
16.778116
11
10.922981
21
16.778116
0
LINE
8
0
10
10.757977
20
16.778116
11
10.477982
21
16.778116
0
LINE
8
0
10
4.302977
20
16.778116
11
4.022981
21
16.778116
0
LINE
8
0
10
7.478479
20
16.808116
11
10.485479
21
16.808116
0
LINE
8
0
10
10.750479
20
16.808116
11
10.930479
21
16.808116
0
LINE
8
0
10
11.195479
20
16.808116
11
11.228479
21
16.808116
0
LINE
8
0
10
10.930479
20
16.828116
11
10.890981
21
16.828116
0
LINE
8
0
10
7.815977
20
16.828116
11
7.535981
21
16.828116
0
LINE
8
DEFAULT_1
10
3.142979
20
16.838116
11
2.994487
21
16.838116
0
LINE
8
0
10
4.030479
20
16.838116
11
4.295479
21
16.838116
0
LINE
8
0
10
10.485479
20
16.838116
11
10.750479
21
16.838116
0
LINE
8
0
10
10.930479
20
16.838116
11
11.195479
21
16.838116
0
LINE
8
0
10
4.190811
20
16.861161
11
4.189263
21
16.861211
0
LINE
8
0
10
4.192334
20
16.861103
11
4.190811
21
16.861161
0
POLYLINE
8
0
66
1
70
0
0
VERTEX
8
0
10
4.185758
20
16.855006
0
VERTEX
8
0
10
4.178291
20
16.855343
0
VERTEX
8
0
10
4.170707
20
16.855550
0
VERTEX
8
0
10
4.162979
20
16.855621
0
SEQEND
0
LINE
8
0
10
4.137612
20
16.861161
11
4.136695
21
16.861211
0
LINE
8
0
10
4.138517
20
16.861103
11
4.137612
21
16.861161
0
LINE
8
0
10
4.201402
20
16.860267
11
4.192334
21
16.861103
0
LINE
8
0
10
4.211609
20
16.859056
11
4.201574
21
16.860247
0
LINE
8
0
10
4.223058
20
16.857352
11
4.211798
21
16.859028
0
LINE
8
0
10
7.748872
20
16.905006
11
7.736173
21
16.907331
0
LINE
8
0
10
10.989531
20
3.770611
11
10.990086
21
3.771226
0
LINE
8
0
10
4.102652
20
16.857311
11
4.090086
21
16.855006
0
LINE
8
0
10
4.113947
20
16.859002
11
4.102785
21
16.857331
0
LINE
8
0
10
4.124198
20
16.860230
11
4.114160
21
16.859028
0
LINE
8
0
10
7.646625
20
16.911103
11
7.637385
21
16.910247
0
LINE
8
0
10
4.133625
20
16.861103
11
4.124385
21
16.860247
0
LINE
8
0
10
7.701347
20
16.911161
11
7.700441
21
16.911103
0
LINE
8
0
10
4.188347
20
16.861161
11
4.187441
21
16.861103
0
LINE
8
0
10
7.702263
20
16.911211
11
7.701347
21
16.911161
0
LINE
8
0
10
4.189263
20
16.861211
11
4.188347
21
16.861161
0
LINE
8
0
10
7.648147
20
16.911161
11
7.646625
21
16.911103
0
LINE
8
0
10
4.135147
20
16.861161
11
4.133625
21
16.861103
0
LINE
8
0
10
7.649695
20
16.911211
11
7.648147
21
16.911161
0
LINE
8
0
10
4.136695
20
16.861211
11
4.135147
21
16.861161
0
POLYLINE
8
0
66
1
70
0
0
VERTEX
8
0
10
11.030979
20
16.905621
0
VERTEX
8
0
10
11.023254
20
16.905550
0
VERTEX
8
0
10
11.015672
20
16.905344
0
VERTEX
8
0
10
11.008329
20
16.905012
0
SEQEND
0
POLYLINE
8
0
66
1
70
0
0
VERTEX
8
0
10
4.162979
20
16.855621
0
VERTEX
8
0
10
4.155254
20
16.855550
0
VERTEX
8
0
10
4.147672
20
16.855344
0
VERTEX
8
0
10
4.140329
20
16.855012
0
SEQEND
0
POLYLINE
8
0
66
1
70
0
0
VERTEX
8
0
10
7.675979
20
16.905621
0
VERTEX
8
0
10
7.668254
20
16.905550
0
VERTEX
8
0
10
7.660672
20
16.905344
0
VERTEX
8
0
10
7.653329
20
16.905012
0
SEQEND
0
LINE
8
0
10
5.078979
20
16.871416
11
7.177979
21
16.871416
0
LINE
8
0
10
7.543479
20
16.888116
11
7.808479
21
16.888116
0
LINE
8
0
10
10.898479
20
16.888116
11
11.163479
21
16.888116
0
LINE
8
0
10
7.703811
20
16.911161
11
7.702263
21
16.911211
0
LINE
8
0
10
10.645811
20
16.861161
11
10.644263
21
16.861211
0
LINE
8
0
10
11.090811
20
16.861161
11
11.089263
21
16.861211
0
LINE
8
0
10
11.058811
20
16.911161
11
11.057263
21
16.911211
0
LINE
8
0
10
7.705334
20
16.911103
11
7.703811
21
16.911161
0
LINE
8
0
10
10.647334
20
16.861103
11
10.645811
21
16.861161
0
LINE
8
0
10
11.092334
20
16.861103
11
11.090811
21
16.861161
0
LINE
8
0
10
11.060334
20
16.911103
11
11.058811
21
16.911161
0
POLYLINE
8
0
66
1
70
0
0
VERTEX
8
0
10
7.698758
20
16.905006
0
VERTEX
8
0
10
7.691291
20
16.905343
0
VERTEX
8
0
10
7.683707
20
16.905550
0
VERTEX
8
0
10
7.675979
20
16.905621
0
SEQEND
0
POLYLINE
8
0
66
1
70
0
0
VERTEX
8
0
10
10.640758
20
16.855006
0
VERTEX
8
0
10
10.633293
20
16.855343
0
VERTEX
8
0
10
10.625709
20
16.855550
0
VERTEX
8
0
10
10.617979
20
16.855621
0
SEQEND
0
POLYLINE
8
0
66
1
70
0
0
VERTEX
8
0
10
11.085758
20
16.855006
0
VERTEX
8
0
10
11.078291
20
16.855343
0
VERTEX
8
0
10
11.070707
20
16.855550
0
VERTEX
8
0
10
11.062979
20
16.855621
0
SEQEND
0
POLYLINE
8
0
66
1
70
0
0
VERTEX
8
0
10
11.053758
20
16.905006
0
VERTEX
8
0
10
11.046291
20
16.905343
0
VERTEX
8
0
10
11.038707
20
16.905550
0
VERTEX
8
0
10
11.030979
20
16.905621
0
SEQEND
0
LINE
8
0
10
7.650612
20
16.911161
11
7.649695
21
16.911211
0
LINE
8
0
10
10.592612
20
16.861161
11
10.591695
21
16.861211
0
LINE
8
0
10
11.037612
20
16.861161
11
11.036695
21
16.861211
0
LINE
8
0
10
11.005612
20
16.911161
11
11.004695
21
16.911211
0
LINE
8
0
10
7.651517
20
16.911103
11
7.650612
21
16.911161
0
LINE
8
0
10
10.593517
20
16.861103
11
10.592612
21
16.861161
0
LINE
8
0
10
11.038517
20
16.861103
11
11.037612
21
16.861161
0
LINE
8
0
10
11.006517
20
16.911103
11
11.005612
21
16.911161
0
LINE
8
0
10
7.714402
20
16.910267
11
7.705334
21
16.911103
0
LINE
8
0
10
11.101402
20
16.860267
11
11.092334
21
16.861103
0
LINE
8
0
10
11.069402
20
16.910267
11
11.060334
21
16.911103
0
LINE
8
0
10
10.656630
20
16.860242
11
10.647334
21
16.861103
0
LINE
8
0
10
7.724609
20
16.909056
11
7.714574
21
16.910247
0
LINE
8
0
10
11.111609
20
16.859056
11
11.101574
21
16.860247
0
LINE
8
0
10
11.079609
20
16.909056
11
11.069574
21
16.910247
0
LINE
8
0
10
10.666789
20
16.859032
11
10.656630
21
16.860242
0
LINE
8
0
10
7.736058
20
16.907352
11
7.724798
21
16.909028
0
LINE
8
0
10
11.123058
20
16.857352
11
11.111798
21
16.859028
0
LINE
8
0
10
11.091058
20
16.907352
11
11.079798
21
16.909028
0
LINE
8
0
10
10.678290
20
16.857312
11
10.666915
21
16.859013
0
LINE
8
0
10
11.135872
20
16.855006
11
11.123173
21
16.857331
0
LINE
8
0
10
11.103872
20
16.905006
11
11.091173
21
16.907331
0
LINE
8
0
10
10.690872
20
16.855006
11
10.678290
21
16.857312
0
LINE
8
0
10
10.545086
20
16.855006
11
10.544531
21
16.855621
0
LINE
8
0
10
10.990086
20
16.855006
11
10.989531
21
16.855621
0
LINE
8
0
10
10.958086
20
16.905006
11
10.957531
21
16.905621
0
LINE
8
0
10
2.967979
20
17.683116
11
2.862979
21
17.683116
0
LINE
8
0
10
2.967979
20
17.813116
11
2.862979
21
17.813116
0
ARC
8
0
10
19.121658
20
16.492116
40
0.314000
50
116.506957
51
118.224654
0
ARC
8
0
10
19.121658
20
16.492116
40
0.314000
50
61.775346
51
63.493043
0
CIRCLE
8
0
10
18.676658
20
4.268116
40
0.140000
0
CIRCLE
8
0
10
18.676658
20
4.268116
40
0.132500
0
CIRCLE
8
0
10
20.196658
20
4.268116
40
0.140000
0
CIRCLE
8
0
10
20.196658
20
4.268116
40
0.132500
0
CIRCLE
8
0
10
18.676658
20
16.358116
40
0.140000
0
CIRCLE
8
0
10
18.676658
20
16.358116
40
0.132500
0
CIRCLE
8
0
10
20.196658
20
16.358116
40
0.140000
0
CIRCLE
8
0
10
20.196658
20
16.358116
40
0.132500
0
ARC
8
0
10
20.419658
20
16.549491
40
0.363625
50
101.653284
51
111.369825
0
ARC
8
0
10
20.419658
20
16.549491
40
0.363625
50
68.630175
51
78.346716
0
ARC
8
0
10
18.216658
20
16.499491
40
0.363625
50
101.653284
51
111.369825
0
ARC
8
0
10
18.216658
20
16.499491
40
0.363625
50
68.630175
51
78.346716
0
ARC
8
0
10
18.216658
20
4.126741
40
0.363625
50
281.653284
51
291.369825
0
ARC
8
0
10
18.216658
20
4.126741
40
0.363625
50
248.630175
51
258.346716
0
ARC
8
0
10
19.121658
20
16.499491
40
0.363625
50
101.653284
51
111.369825
0
ARC
8
0
10
19.121658
20
16.499491
40
0.363625
50
68.630175
51
78.346716
0
ARC
8
0
10
18.026658
20
16.668116
40
0.040000
50
90.000000
51
180.000000
0
ARC
8
0
10
18.026658
20
3.958116
40
0.040000
50
180.000000
51
270.000000
0
ARC
8
0
10
18.026658
20
3.958116
40
0.090000
50
180.000000
51
270.000000
0
ARC
8
0
10
18.026658
20
16.668116
40
0.090000
50
90.000000
51
180.000000
0
ARC
8
0
10
18.091658
20
4.023116
40
0.090000
50
180.000000
51
270.000000
0
ARC
8
0
10
20.781658
20
4.023116
40
0.090000
50
270.000000
51
360.000000
0
ARC
8
0
10
18.091658
20
16.603116
40
0.090000
50
90.000000
51
180.000000
0
ARC
8
0
10
20.781658
20
16.603116
40
0.090000
50
0.000000
51
90.000000
0
ARC
8
0
10
20.215658
20
3.384116
40
0.108000
50
0.000000
51
180.000000
0
ARC
8
0
10
18.715658
20
3.384116
40
0.108000
50
0.000000
51
180.000000
0
ARC
8
0
10
20.787658
20
3.788116
40
0.080000
50
90.000000
51
180.000000
0
ARC
8
0
10
20.787658
20
16.838116
40
0.080000
50
180.000000
51
270.000000
0
ARC
8
0
10
20.186658
20
17.634116
40
0.108000
50
0.000000
51
180.000000
0
ARC
8
0
10
18.686658
20
17.634116
40
0.108000
50
0.000000
51
180.000000
0
ARC
8
0
10
20.856658
20
16.678116
40
0.080000
50
0.000000
51
90.000000
0
ARC
8
0
10
20.856658
20
3.948116
40
0.080000
50
270.000000
51
360.000000
0
ARC
8
0
10
20.856658
20
3.948116
40
0.030000
50
270.000000
51
360.000000
0
ARC
8
0
10
20.856658
20
16.678116
40
0.030000
50
0.000000
51
90.000000
0
ARC
8
0
10
18.016658
20
16.678116
40
0.080000
50
89.999987
51
180.000000
0
ARC
8
0
10
18.016658
20
3.948116
40
0.080000
50
180.000000
51
270.000000
0
ARC
8
0
10
20.215658
20
3.134116
40
0.200000
50
122.683639
51
417.316361
0
ARC
8
0
10
18.715658
20
3.134116
40
0.200000
50
122.683639
51
417.316361
0
ARC
8
0
10
20.186658
20
17.384116
40
0.200000
50
122.683639
51
417.316361
0
ARC
8
0
10
18.686658
20
17.384116
40
0.200000
50
122.683639
51
417.316361
0
ARC
8
0
10
4.827979
20
16.333116
40
0.140000
50
200.827109
51
231.051959
0
ARC
8
0
10
4.827979
20
16.333116
40
0.132500
50
205.035381
51
225.445580
0
ARC
8
0
10
11.030979
20
16.549491
40
0.363625
50
101.653327
51
111.369825
0
ARC
8
0
10
11.030979
20
16.549491
40
0.363625
50
68.630175
51
78.346673
0
ARC
8
0
10
7.675979
20
16.549491
40
0.363625
50
101.653327
51
111.369825
0
ARC
8
0
10
7.675979
20
16.549491
40
0.363625
50
68.630175
51
78.346673
0
ARC
8
0
10
3.376604
20
10.376116
40
0.363625
50
191.653333
51
201.369825
0
ARC
8
0
10
3.376604
20
10.376116
40
0.363625
50
158.630175
51
168.346667
0
ARC
8
0
10
3.221283
20
6.676116
40
0.268304
50
150.406476
51
173.101140
0
ARC
8
0
10
3.221283
20
6.676116
40
0.268304
50
186.898860
51
209.593524
0
ARC
8
0
10
5.234979
20
16.492116
40
0.314000
50
61.775346
51
118.224654
0
ARC
8
0
10
11.062979
20
16.499491
40
0.363625
50
101.653327
51
111.369825
0
ARC
8
0
10
11.062979
20
16.499491
40
0.363625
50
68.630175
51
78.346673
0
ARC
8
0
10
4.162979
20
16.499491
40
0.363625
50
101.653327
51
111.369825
0
ARC
8
0
10
4.162979
20
16.499491
40
0.363625
50
68.630175
51
78.346673
0
ARC
8
0
10
4.162979
20
4.126741
40
0.363625
50
248.630175
51
258.346673
0
ARC
8
0
10
4.162979
20
4.126741
40
0.363625
50
281.653327
51
291.369825
0
ARC
8
0
10
11.062979
20
4.126741
40
0.363625
50
248.630175
51
258.346673
0
ARC
8
0
10
11.062979
20
4.126741
40
0.363625
50
281.653327
51
291.369825
0
ARC
8
0
10
10.617979
20
16.499491
40
0.363625
50
101.653338
51
111.369825
0
ARC
8
0
10
10.617979
20
16.499491
40
0.363625
50
68.630175
51
78.346662
0
ARC
8
0
10
4.649479
20
16.204616
40
0.093500
50
270.000000
51
450.000000
0
ARC
8
0
10
3.586479
20
16.204616
40
0.093500
50
90.000000
51
270.000000
0
ARC
8
0
10
4.649479
20
15.884616
40
0.093500
50
270.000000
51
450.000000
0
ARC
8
0
10
3.586479
20
15.884616
40
0.093500
50
90.000000
51
270.000000
0
ARC
8
0
10
4.649479
20
15.564616
40
0.093500
50
270.000000
51
450.000000
0
ARC
8
0
10
3.586479
20
15.564616
40
0.093500
50
90.000000
51
270.000000
0
ARC
8
0
10
4.649479
20
15.244616
40
0.093500
50
270.000000
51
450.000000
0
ARC
8
0
10
3.586479
20
15.244616
40
0.093500
50
90.000000
51
270.000000
0
ARC
8
0
10
4.649479
20
14.924616
40
0.093500
50
270.000000
51
450.000000
0
ARC
8
0
10
3.586479
20
14.924616
40
0.093500
50
90.000000
51
270.000000
0
ARC
8
0
10
4.649479
20
14.604616
40
0.093500
50
270.000000
51
450.000000
0
ARC
8
0
10
3.586479
20
14.604616
40
0.093500
50
90.000000
51
270.000000
0
ARC
8
0
10
7.649479
20
12.044616
40
0.093500
50
270.000000
51
450.000000
0
ARC
8
0
10
6.586479
20
12.044616
40
0.093500
50
90.000000
51
270.000000
0
ARC
8
0
10
7.649479
20
12.364616
40
0.093500
50
270.000000
51
450.000000
0
ARC
8
0
10
6.586479
20
12.364616
40
0.093500
50
90.000000
51
270.000000
0
ARC
8
0
10
7.649479
20
12.684616
40
0.093500
50
270.000000
51
450.000000
0
ARC
8
0
10
6.586479
20
12.684616
40
0.093500
50
90.000000
51
270.000000
0
ARC
8
0
10
7.649479
20
13.004616
40
0.093500
50
270.000000
51
450.000000
0
ARC
8
0
10
6.586479
20
13.004616
40
0.093500
50
90.000000
51
270.000000
0
ARC
8
0
10
7.649479
20
13.324616
40
0.093500
50
270.000000
51
450.000000
0
ARC
8
0
10
6.586479
20
13.324616
40
0.093500
50
90.000000
51
270.000000
0
ARC
8
0
10
7.649479
20
13.644616
40
0.093500
50
270.000000
51
450.000000
0
ARC
8
0
10
6.586479
20
13.644616
40
0.093500
50
90.000000
51
270.000000
0
ARC
8
0
10
7.649479
20
13.964616
40
0.093500
50
270.000000
51
450.000000
0
ARC
8
0
10
6.586479
20
13.964616
40
0.093500
50
90.000000
51
270.000000
0
ARC
8
0
10
6.149479
20
12.044616
40
0.093500
50
270.000000
51
450.000000
0
ARC
8
0
10
5.086479
20
12.044616
40
0.093500
50
90.000000
51
270.000000
0
ARC
8
0
10
4.649479
20
12.044616
40
0.093500
50
270.000000
51
450.000000
0
ARC
8
0
10
3.586479
20
12.044616
40
0.093500
50
90.000000
51
270.000000
0
ARC
8
0
10
6.149479
20
12.364616
40
0.093500
50
270.000000
51
450.000000
0
ARC
8
0
10
5.086479
20
12.364616
40
0.093500
50
90.000000
51
270.000000
0
ARC
8
0
10
4.649479
20
12.364616
40
0.093500
50
270.000000
51
450.000000
0
ARC
8
0
10
3.586479
20
12.364616
40
0.093500
50
90.000000
51
270.000000
0
ARC
8
0
10
6.149479
20
12.684616
40
0.093500
50
270.000000
51
450.000000
0
ARC
8
0
10
5.086479
20
12.684616
40
0.093500
50
90.000000
51
270.000000
0
ARC
8
0
10
4.649479
20
12.684616
40
0.093500
50
270.000000
51
450.000000
0
ARC
8
0
10
3.586479
20
12.684616
40
0.093500
50
90.000000
51
270.000000
0
ARC
8
0
10
6.149479
20
13.004616
40
0.093500
50
270.000000
51
450.000000
0
ARC
8
0
10
5.086479
20
13.004616
40
0.093500
50
90.000000
51
270.000000
0
ARC
8
0
10
4.649479
20
13.004616
40
0.093500
50
270.000000
51
450.000000
0
ARC
8
0
10
3.586479
20
13.004616
40
0.093500
50
90.000000
51
270.000000
0
ARC
8
0
10
6.149479
20
13.324616
40
0.093500
50
270.000000
51
450.000000
0
ARC
8
0
10
5.086479
20
13.324616
40
0.093500
50
90.000000
51
270.000000
0
ARC
8
0
10
4.649479
20
13.324616
40
0.093500
50
270.000000
51
450.000000
0
ARC
8
0
10
3.586479
20
13.324616
40
0.093500
50
90.000000
51
270.000000
0
ARC
8
0
10
6.149479
20
13.644616
40
0.093500
50
270.000000
51
450.000000
0
ARC
8
0
10
5.086479
20
13.644616
40
0.093500
50
90.000000
51
270.000000
0
ARC
8
0
10
4.649479
20
13.644616
40
0.093500
50
270.000000
51
450.000000
0
ARC
8
0
10
3.586479
20
13.644616
40
0.093500
50
90.000000
51
270.000000
0
ARC
8
0
10
6.149479
20
13.964616
40
0.093500
50
270.000000
51
450.000000
0
ARC
8
0
10
5.086479
20
13.964616
40
0.093500
50
90.000000
51
270.000000
0
ARC
8
0
10
4.649479
20
13.964616
40
0.093500
50
270.000000
51
450.000000
0
ARC
8
0
10
3.586479
20
13.964616
40
0.093500
50
90.000000
51
270.000000
0
ARC
8
0
10
4.649479
20
14.284616
40
0.093500
50
270.000000
51
450.000000
0
ARC
8
0
10
3.586479
20
14.284616
40
0.093500
50
90.000000
51
270.000000
0
ENDSEC
0
EOF
